<?xml version="1.0" encoding="UTF-8" standalone="no"?>
<!-- Created with Inkscape (http://www.inkscape.org/) -->

<svg
   xmlns:dc="http://purl.org/dc/elements/1.1/"
   xmlns:cc="http://creativecommons.org/ns#"
   xmlns:rdf="http://www.w3.org/1999/02/22-rdf-syntax-ns#"
   xmlns:svg="http://www.w3.org/2000/svg"
   xmlns="http://www.w3.org/2000/svg"
   xmlns:sodipodi="http://sodipodi.sourceforge.net/DTD/sodipodi-0.dtd"
   xmlns:inkscape="http://www.inkscape.org/namespaces/inkscape"
   width="820"
   height="461"
   viewBox="0 0 216.95833 121.97292"
   version="1.1"
   id="svg8"
   inkscape:version="0.92.4 5da689c313, 2019-01-14"
   sodipodi:docname="facebook-cover-new.svg"
   inkscape:export-filename="/home/cho2/Gambar/openSUSE-Asia-Summit-2019-artwork/poster/social-media/facebook-cover-new.png"
   inkscape:export-xdpi="96"
   inkscape:export-ydpi="96">
  <defs
     id="defs2">
    <clipPath
       clipPathUnits="userSpaceOnUse"
       id="clipPath16">
      <path
         d="M 0,200.303 H 320 V 0 H 0 Z"
         id="path18"
         inkscape:connector-curvature="0" />
    </clipPath>
    <inkscape:path-effect
       effect="bend_path"
       id="path-effect9796-3"
       is_visible="true"
       bendpath="m -1348.0487,464.70596 c 35.7274,-18.32234 69.1684,-15.916 100.5102,0"
       prop_scale="1"
       scale_y_rel="false"
       vertical="false"
       bendpath-nodetypes="cc" />
    <inkscape:path-effect
       bendpath-nodetypes="cc"
       vertical="false"
       scale_y_rel="false"
       prop_scale="1"
       bendpath="m -1348.0487,464.70596 c 35.7274,-18.32234 69.1684,-15.916 100.5102,0"
       is_visible="true"
       id="path-effect2472-6"
       effect="bend_path" />
    <inkscape:path-effect
       effect="bend_path"
       id="path-effect9876-7"
       is_visible="true"
       bendpath="m -1348.0487,464.70596 c 35.7274,-18.32234 69.1684,-15.916 100.5102,0"
       prop_scale="1"
       scale_y_rel="false"
       vertical="false"
       bendpath-nodetypes="cc" />
  </defs>
  <sodipodi:namedview
     id="base"
     pagecolor="#ffffff"
     bordercolor="#666666"
     borderopacity="1.0"
     inkscape:pageopacity="0.0"
     inkscape:pageshadow="2"
     inkscape:zoom="1"
     inkscape:cx="379.51638"
     inkscape:cy="226.60974"
     inkscape:document-units="px"
     inkscape:current-layer="layer1"
     showgrid="true"
     inkscape:window-width="1920"
     inkscape:window-height="1012"
     inkscape:window-x="0"
     inkscape:window-y="32"
     inkscape:window-maximized="1"
     units="px"
     showguides="true"
     inkscape:guide-bbox="true">
    <sodipodi:guide
       position="-31.220833,19.84375"
       orientation="0,1"
       id="guide834"
       inkscape:locked="false"
       inkscape:label=""
       inkscape:color="rgb(0,0,255)" />
    <sodipodi:guide
       position="57.149999,102.39375"
       orientation="0,1"
       id="guide836"
       inkscape:locked="false"
       inkscape:label=""
       inkscape:color="rgb(0,0,255)" />
    <inkscape:grid
       type="xygrid"
       id="grid1228" />
  </sodipodi:namedview>
  <metadata
     id="metadata5">
    <rdf:RDF>
      <cc:Work
         rdf:about="">
        <dc:format>image/svg+xml</dc:format>
        <dc:type
           rdf:resource="http://purl.org/dc/dcmitype/StillImage" />
        <dc:title />
      </cc:Work>
    </rdf:RDF>
  </metadata>
  <g
     inkscape:label="Layer 1"
     inkscape:groupmode="layer"
     id="layer1"
     transform="translate(0,-175.02708)">
    <rect
       style="opacity:1;fill:#73ba25;fill-opacity:1;stroke:none;stroke-width:1.01938796"
       id="rect838"
       width="216.95833"
       height="121.97292"
       x="-1.7763568e-15"
       y="175.02707" />
    <path
       inkscape:connector-curvature="0"
       style="display:inline;fill:#ffffff;stroke-width:0.16535364"
       d="m 100.53012,200.56763 c -0.12708,0.11405 -0.24992,0.21692 -0.36306,0.3076 h -7.023494 l -3.825431,6.6257 c -0.605459,-0.0317 -1.061918,0.0508 -1.061918,0.0508 0,0 0.0099,0.45488 0.01339,1.7653 l -0.587498,1.01752 c -0.483705,-0.14565 -1.047902,-0.0456 -1.047902,-0.0456 -0.306597,0.99937 -0.597651,1.65775 -0.479093,2.69047 l -0.07242,0.12554 -1.094627,-0.45573 c 0,0 -0.340278,1.45655 0.05576,2.25481 l -1.728383,2.99373 c 4.080603,0.67295 7.537727,1.79111 8.15955,2.00001 0.005,-0.19404 0.03722,-1.92962 0.03722,-1.92962 0,0 0.0042,-0.0399 0.02523,-0.0606 0.0273,-0.0266 0.06666,-0.0188 0.06666,-0.0188 0.392415,0.0569 8.768456,1.29849 12.298976,3.35584 0.43601,0.25508 0.65129,0.52609 0.92019,0.80104 0.97594,1.00934 2.26538,5.20667 2.40387,6.07217 0.005,0.034 -0.0364,0.0707 -0.0543,0.0847 -0.10027,0.0782 -0.20946,0.15969 -0.31882,0.23239 -0.83539,0.56049 -2.76019,1.90768 -5.22938,1.68773 -2.217966,-0.19621 -5.115432,-1.46844 -8.608737,-3.77013 0.343462,0.80416 0.681737,1.61058 1.020333,2.4168 0.505884,0.26275 5.388763,2.75106 7.798664,2.70246 1.94107,-0.0405 4.01713,-0.98695 4.84764,-1.48681 0,0 0.18224,-0.10997 0.26166,-0.0486 0.0868,0.0672 0.0628,0.16974 0.0422,0.27475 -0.051,0.23841 -0.16729,0.67354 -0.24641,0.88 l -0.0666,0.16806 c -0.0951,0.2547 -0.18631,0.49136 -0.36228,0.63717 -0.48925,0.44487 -1.27002,0.79896 -2.49359,1.33075 -1.89129,0.8273 -4.959936,1.35353 -7.808796,1.33542 -1.020362,-0.0226 -2.005992,-0.13594 -2.871605,-0.23705 -2.511925,-0.28359 -4.363346,-0.49281 -4.890622,1.5326 -0.361178,0.35411 -0.732825,0.78127 -0.870342,1.15257 -0.298732,0.80658 0.267425,1.58275 0.267426,1.58275 0,0 0.189062,-0.29087 0.631264,-0.25029 0.208205,0.9157 0.585842,1.80221 0.973763,2.54904 l 2.173056,3.76423 c -0.10274,0.0878 -0.206939,0.16752 -0.305431,0.22661 -0.448093,0.26886 -0.687022,0.26884 -0.687022,0.26884 0,0 0.842102,0.51867 1.783052,0.87392 l 0.93171,1.61375 h 6.987047 c 0.89124,0.69603 1.5203,0.89277 1.5203,0.89277 0,0 -0.11875,-0.49576 0.0765,-0.89277 h 1.50144 c 0.19084,0.16395 0.4236,0.31439 0.67909,0.37427 0.67595,0.15842 0.82377,0.13723 0.82377,0.13723 0,0 0.0519,-0.24616 0.0959,-0.5115 h 8.28867 c 0.0443,0.44129 0.0288,0.75618 0.0288,0.75618 0,0 0.79191,-0.19838 1.71608,-0.75618 h 5.28156 l 1.44693,-2.50621 c 1.13081,-0.36109 2.27483,-1.90226 2.13273,-3.69382 l 1.4756,-2.5559 c 0.26499,0.40414 0.34094,0.89464 0.34094,0.89464 0,0 1.41884,-1.3443 1.07531,-2.52427 -0.0536,-0.18407 -0.1195,-0.34603 -0.19142,-0.49186 l 5.57281,-9.65245 0.10637,-0.0841 c 0.41492,-0.32756 0.93904,0.0873 0.93904,0.0873 0,0 0.0438,-0.0654 -0.0873,-0.72052 -0.041,-0.20464 -0.11266,-0.41584 -0.19063,-0.61225 l 0.87922,-1.52279 -2.21978,-3.84476 -0.004,-0.33704 c -0.39059,-2.37602 -2.18801,-4.56043 -2.18801,-4.56043 -0.14838,0.12832 -0.28613,0.26831 -0.39997,0.40979 l -1.26175,-2.18537 c 0.28488,-0.58481 0.47403,-1.29527 0.23425,-2.14315 -0.51574,0.17731 -0.96424,0.21736 -1.36797,0.17959 l -0.32428,-0.56165 c 0.18984,-1.18837 0.0102,-2.40105 -0.85726,-3.12968 l -0.22257,0.2165 c -0.25681,-1.05558 -0.78954,-1.98613 -1.61998,-2.2659 -0.0419,0.0994 -0.0858,0.19052 -0.13099,0.276 l -3.13841,-5.43587 h -19.24068 c -0.14656,-0.11381 -0.27929,-0.22369 -0.37116,-0.30761 z m -0.0448,0.73453 c 0.0191,0.068 0.18522,0.60261 0.7501,0.7909 0.60327,0.20109 0.78671,1.07891 0.78671,1.07891 0,0 -0.8124,-0.30118 -1.34025,0.20153 -0.52787,0.50272 -0.22964,1.23312 0.0385,1.48447 0.26812,0.25138 1.11288,0.22008 1.0848,-0.40215 0,0 -0.2436,0.23718 -0.5948,0.2095 -0.54731,-0.0431 -0.81276,-1.15632 0.31835,-1.1982 1.13113,-0.0419 1.10085,1.1887 0.77409,1.64116 -0.32676,0.45243 -1.37899,0.72346 -1.98226,0.11182 -0.603267,-0.61164 -0.452467,-0.92155 -0.698548,-1.33449 -0.134622,-0.22589 -0.461182,-0.44264 -0.461182,-0.44264 0,0 0.415729,-0.0847 0.708985,0.0913 0.293245,0.17597 0.276305,0.25294 0.276305,0.25294 0,0 0.11366,-0.49602 -0.13753,-0.8571 -0.349002,-0.50167 -0.0181,-0.65966 0.19375,-0.98606 0.31574,-0.39468 0.29537,-0.59276 0.28301,-0.64185 z m 9.54029,0.69356 c 0.47134,-0.003 0.95378,0.0681 1.37902,0.18814 1.17238,0.33076 2.36494,1.71616 2.63518,3.04589 0,0 -1.17301,-1.28314 -2.90026,-1.02142 -0.47667,0.10564 -0.78397,0.28355 -0.97205,0.43393 l -0.0914,-0.0576 c -0.26848,-0.16926 -0.57332,-0.42592 -0.87423,-0.70602 1.12996,-1.03461 2.22944,-0.54389 2.22944,-0.54389 0,0 -0.91065,-0.91323 -1.89489,-0.45729 -0.38967,0.1805 -0.65,0.36407 -0.82548,0.52083 -0.24127,-0.2451 -0.45776,-0.47503 -0.635,-0.66709 0.40916,-0.52332 1.16412,-0.73119 1.94971,-0.73546 z m 4.5732,0.37536 c 1.05059,0.004 2.28196,0.24221 2.83765,0.65525 0,0 -0.79249,-0.0752 -1.1993,0.31539 -0.78547,-0.23012 -1.54974,-0.18941 -2.44686,0.0238 -0.198,-0.27531 -0.43143,-0.53676 -0.70229,-0.73125 0.31525,-0.18162 0.88043,-0.26488 1.5108,-0.26307 z m -18.46007,0.004 c 0.189667,0.002 0.38696,0.0126 0.591859,0.0342 1.926806,0.35848 2.501226,3.06239 2.501226,3.06239 0,0 -0.368618,0.0534 -0.882336,0.19313 -0.08492,-0.22081 -0.235611,-0.50706 -0.506663,-0.8504 -1.471699,-1.58941 -3.024553,-0.83763 -3.024553,-0.83763 0,0 2.343024,0.44843 2.879547,1.90407 -0.569183,0.23512 -1.109735,0.57659 -1.109735,0.57659 0,0 -0.02991,-0.56759 -0.776736,-1.17998 -1.42276,-1.01374 -3.048851,-0.39857 -3.048851,-0.39857 0.420638,-1.58809 1.542802,-2.51528 3.376242,-2.50372 z m 8.66854,0.17942 c 0.32782,5.1e-4 0.64311,0.1258 0.88202,0.35029 0.22025,-0.16049 0.48569,-0.24673 0.7582,-0.24763 0.035,2.3e-4 0.0701,0.002 0.10499,0.004 -0.13697,0.32257 -0.27739,0.76657 -0.33596,1.31986 -6.7e-4,0.0131 -0.003,0.025 -0.004,0.0379 -0.23863,0.10701 -0.4859,0.36706 -0.66523,0.58517 -0.14273,-0.26491 -0.11284,-0.7889 -0.75134,-1.09789 -0.50847,-0.29492 -0.6881,-0.26728 -0.96566,-0.50417 0.24488,-0.28421 0.60124,-0.44767 0.9764,-0.44856 z m 2.40621,0.009 c 0.335,0.0311 1.45556,1.95085 3.6267,3.37405 2.54139,1.66595 4.91211,2.3353 4.8182,2.68579 -0.0993,0.37068 -2.87633,2.11068 -6.67757,-0.4062 -2.63943,-1.7476 -2.91971,-4.5385 -1.82401,-5.63418 0.0154,-0.0154 0.0344,-0.0216 0.0566,-0.0195 z m -3.90096,0.18643 c 0.0807,1.11767 1.46502,1.11867 1.97914,2.19595 -0.5177,0.93979 -0.39564,1.47849 -0.0451,2.35389 0.0577,-0.56103 0.2119,-0.86354 0.71101,-1.35146 0,0 0.66107,2.84716 -1.50909,4.26418 0.7195,-1.95196 -0.35317,-3.46113 -1.61872,-4.25312 0,0 0.7952,-0.61013 0.55323,-1.38839 -0.74895,-1.1796 -0.0704,-1.82105 -0.0704,-1.82105 z m 14.28389,0.64949 c 0.46687,-0.004 1.02423,0.20093 1.61499,0.74885 1.89047,1.75343 0.30901,4.76705 -1.46813,5.60428 -0.14787,0.0697 -0.29106,0.13097 -0.4319,0.18862 -0.58603,0.0748 -1.18352,0.033 -1.54163,-0.20372 -0.64437,-0.42575 0.43641,-0.94274 0.60556,-1.29743 0.96306,-0.56232 1.9798,-1.32204 2.24564,-2.13582 0.53947,-1.65144 -0.55245,-2.08678 -0.55245,-2.08678 0,0 0.32224,0.21615 0.35371,0.60745 0.0315,0.39128 -0.0275,1.50888 -0.97111,2.33192 -0.36452,0.31791 -0.90103,0.63936 -1.43199,0.91598 -0.23937,-0.11591 -0.57839,-0.27595 -0.93607,-0.44483 0.31416,-0.11667 0.66379,-0.25959 1.04011,-0.44109 1.30533,-0.6296 2.00439,-1.49983 1.97525,-2.21839 -0.0291,-0.71856 -0.6844,-1.04411 -0.99198,-0.74884 -0.3076,0.29524 -0.10763,0.55011 -0.10763,0.55011 0,0 -0.007,-0.47627 0.40418,-0.33004 0.41148,0.14624 0.35113,0.49421 0.24453,0.65213 -0.10658,0.1579 -0.55322,0.74788 -1.21362,-0.0925 -0.45401,-0.57776 0.13542,-1.59216 1.16254,-1.59988 z m -10.36112,0.068 c 0.15803,0.69848 0.83573,1.75537 2.01793,2.76397 0.1863,0.0915 0.54036,-0.10347 0.45059,-0.37567 -1.09718,-0.83527 -1.90327,-1.73645 -2.46852,-2.3883 z m 7.89213,0.0399 c 0.29927,0.003 0.59604,0.054 0.89246,0.1763 -0.16363,0.3879 -0.19119,0.71777 -0.16011,0.88498 -0.56327,-0.04 -0.98788,0.0445 -1.52716,0.11652 -0.0214,-0.0638 -0.0925,-0.48538 -0.3766,-0.99325 0.39768,-0.11075 0.78662,-0.18796 1.17141,-0.18455 z m -3.41845,1.38012 c 0.28041,0.009 0.4266,0.14469 0.4266,0.14469 0.46916,-0.28671 0.94429,-0.0462 1.02937,0.11136 0.10553,0.19539 -0.36629,0.13447 -0.79293,0.55183 -0.30492,0.29828 -0.37171,0.35801 -0.58656,0.41508 -0.22572,-0.1407 -0.45389,-0.28512 -0.68563,-0.43704 -0.23335,-0.15297 -0.45437,-0.30954 -0.66772,-0.46679 0.16611,-0.0491 0.55572,-0.16413 0.95212,-0.2763 0.12289,-0.0348 0.23127,-0.0458 0.32475,-0.0429 z m -17.874127,0.39731 c 0.643608,0.007 1.459364,0.15733 1.865444,1.05351 0.570587,1.27817 -0.731568,2.20343 -0.731568,4.56339 0,1.84055 0.557104,3.44828 1.085904,4.08616 -0.03057,0.20261 -0.05349,0.31526 -0.0377,0.54187 -0.729058,-0.44016 -1.165406,-1.02841 -1.549891,-1.76842 -0.276326,-0.7244 -0.179115,-1.44881 -0.179115,-1.44881 -0.13383,0.21135 -0.235859,0.37591 -0.25777,0.63438 -0.157509,-0.36779 -0.300105,-0.77751 -0.417884,-1.23682 -0.844958,-3.29523 -0.01355,-3.78057 -0.01355,-3.78057 0,0 0.568318,0.47472 0.998683,-0.13613 0.316291,-0.48944 -0.398731,-1.15912 -1.040425,-0.9878 -0.549232,0.14667 -1.180592,1.07379 -0.909283,3.23248 -0.310549,-0.17611 -0.207417,-0.16581 -0.365549,-0.49933 -0.0095,0.89767 0.113315,1.04004 0.504169,1.33558 0.364558,1.66563 1.591777,4.93092 3.346182,5.27892 0.05158,0.21751 0.152718,0.34951 0.306832,0.57939 -1.230739,0.18321 -1.892435,-0.21695 -3.407237,-2.18754 -2.386926,-3.10513 -2.791993,-6.25021 -1.447717,-7.89321 0.714151,-0.87285 1.52103,-1.37463 2.250464,-1.36673 z m 13.602917,0.004 c 0.0809,0.21579 0.31562,0.73875 1.13622,1.50784 0.16679,0.0965 0.35689,-0.13044 0.28035,-0.23348 -0.83188,-0.65811 -1.41657,-1.27436 -1.41657,-1.27436 z m 14.16007,0.22708 c 1.30443,0.30529 1.76782,2.3276 1.44196,3.26488 0.38914,-0.36675 0.61356,-0.77118 0.73546,-1.40862 0.86505,0.86666 0.69423,1.36019 0.23425,2.14985 0.35175,-0.16422 0.5566,-0.16279 1.06037,-0.55183 0.23954,0.2585 0.6789,2.49284 -0.30046,2.6805 -0.002,-0.20229 -0.17745,-0.5453 -0.36212,-0.85727 0.38688,-0.47978 0.499,-0.62178 0.50636,-1.24835 -0.25849,0.29285 -0.48328,0.60554 -0.8459,0.77533 -0.17745,-0.20006 -0.42806,-0.38918 -0.64544,-0.57129 0.64166,-0.74998 0.52364,-1.24836 0.52364,-1.24836 -0.2602,0.50749 -0.40268,0.6708 -0.83779,0.98341 -0.22542,-0.18909 -0.41526,-0.34822 -0.63951,-0.53515 0.61504,-0.90418 0.084,-1.74412 0.084,-1.74412 0.0182,0.6065 0.0465,1.02462 -0.30559,1.55986 -0.22848,-0.1901 -0.47004,-0.3913 -0.51524,-0.42878 0.7642,-0.82555 0.20931,-1.9878 -0.13394,-2.82006 z m -8.43725,0.21276 c 0.57191,0.42277 1.49179,0.85291 2.85649,0.83437 -0.46987,0.31699 -1.02535,0.57384 -1.61328,0.74029 -0.34047,-0.16537 -0.67534,-0.3327 -0.95912,-0.48657 0.82014,0.0547 1.458,-0.0718 1.458,-0.0718 -1.01675,-0.0695 -1.75316,-0.30613 -2.26559,-0.53035 -0.0492,-0.19484 0.23001,-0.34466 0.5235,-0.48594 z m -12.70564,0.20497 4.8e-4,5e-4 c 1.93183,0.0448 3.77217,1.95871 3.21114,4.03959 -0.45564,-0.1039 -0.87693,-0.11081 -1.27624,0.0238 0.27307,-0.75683 -0.18805,-1.88774 -1.13075,-2.24067 -1.15025,-0.4306 -2.486708,0.16301 -2.785786,1.9103 -0.199796,1.16725 0.196,1.92628 0.755242,2.28068 0.962874,0.61024 2.080324,0.64971 2.786254,0.59296 -0.12906,0.18533 -0.33276,0.431 -0.61725,0.77237 -0.13166,0.15801 -0.23274,0.30707 -0.31213,0.44639 -0.44953,-0.41467 -1.187589,-0.91184 -2.215103,-1.02157 -0.296915,-0.0318 -0.565922,-0.009 -0.808977,0.0503 l -9.83e-4,-6.6e-4 c -0.718195,-0.78157 -0.823773,-3.25304 -0.823773,-3.25304 0,0 -0.126778,0.25349 -0.232383,1.45753 -0.06969,0.79441 0.144126,1.64486 0.298733,2.13723 -0.508931,0.34792 -0.821453,0.83211 -0.96146,1.08731 -1.035105,-2.0192 -1.434727,-8.06649 3.925896,-8.28135 0.0624,-0.003 0.12474,-0.004 0.18706,-0.002 z m 10.83179,0.96457 c -0.31644,0.0165 -0.41949,0.20732 -0.39748,0.48688 1.54267,0.90739 2.96994,1.29171 3.99504,1.3373 -0.83401,-0.39891 -2.15343,-0.97236 -3.59756,-1.82418 z m 9.2213,0.3746 c 0.0585,6.6e-4 0.15346,0.46652 0.16136,0.72393 a 0.44809243,0.44809243 0 0 1 0.28503,0.41679 0.44809243,0.44809243 0 0 1 -0.0958,0.276 c 0.85535,0.55713 3.00359,2.45475 2.85105,2.58252 -0.17882,0.14978 -6.23291,0.12845 -6.40734,-0.0226 -0.14606,-0.12647 1.97426,-1.94214 2.87674,-2.5302 a 0.44809243,0.44809243 0 0 1 -0.12086,-0.30575 0.44809243,0.44809243 0 0 1 0.28487,-0.41725 c 0.008,-0.25565 0.10598,-0.72477 0.16494,-0.72347 z m -12.81576,0.37706 1.66608,1.28278 c -0.38845,0.12339 -0.54955,0.31689 -0.68827,0.62644 l -1.59147,-1.225 c 0.30212,-0.15816 0.49103,-0.32541 0.61366,-0.68422 z m 2.91304,0.0827 c -0.21351,-0.009 -0.29803,0.1209 -0.26463,0.32411 1.48069,0.75395 2.81771,0.86179 2.81771,0.86179 0,0 -1.08302,-0.3424 -2.55308,-1.1859 z m -9.85164,0.66475 c 0.39862,-0.005 0.76034,0.15878 0.90835,0.49965 0.3947,0.90896 -0.22569,1.22608 -0.22569,1.22608 0,0 -0.13271,-0.52486 -0.67456,-0.70057 -0.5117,-0.16591 -0.52908,1.3753 0.62519,1.2862 -0.39886,0.48985 -0.35322,0.96492 -0.29359,1.19866 -1.0259,-0.0129 -1.897553,-0.74096 -1.82324,-2.07789 0.05205,-0.93659 0.81919,-1.42183 1.48354,-1.43213 z m 5.93462,0.0794 1.88212,1.48339 c -0.0648,0.50126 -0.0548,1.16348 -0.0522,1.16348 l -2.4137,-2.06497 c 0.0518,-0.18217 0.0928,-0.35408 0.12586,-0.51477 0.15256,-0.0129 0.3099,-0.0341 0.4579,-0.0672 z m -17.203142,0.13769 c 0.144189,-0.003 0.314931,0.0226 0.642946,0.11091 -0.139267,2.5695 0.970409,4.74289 2.189255,6.18164 -1.65321,-0.35676 -2.73065,-2.71243 -2.73065,-2.71243 0,0 0.0629,1.03786 0.883427,2.10983 0.587657,0.76773 1.874239,1.22042 2.457149,1.38246 0.28549,0.31827 0.427965,0.41535 0.7311,0.54824 -0.681309,0.37072 -1.754789,0.25401 -2.816157,-0.48749 -1.366265,-0.95452 -2.031166,-2.1336 -2.049856,-3.6496 -0.0087,-0.86545 0.0968,-2.03376 0.209021,-3.4387 0.221892,-0.0156 0.33958,-0.0432 0.483765,-0.0448 z m 16.254452,0.90944 0.41399,0.34702 c -0.10869,0.23862 -0.1929,0.56206 -0.20668,0.99961 -0.0254,0.80539 0.21051,1.27009 0.25372,1.35567 0.0255,0.0253 0.0403,0.0385 0.0403,0.0385 0,0 -0.0142,0.0135 -0.0403,-0.0385 -0.17656,-0.17551 -0.90713,-1.0463 -0.67862,-2.07462 0.0566,-0.25462 0.13327,-0.45936 0.21759,-0.62768 z m 8.23524,0.5414 c 2.04179,-0.023 2.97275,1.57072 3.29401,2.89216 -0.11747,0.14768 -0.23812,0.28459 -0.34872,0.37817 -0.16781,0.14199 -0.30105,0.27688 -0.40169,0.38767 -0.0184,-0.40792 -0.38253,-1.31236 -0.38253,-1.31236 0,0 0.3489,1.87966 -1.60938,2.44296 -0.20419,-0.19951 -0.26294,-0.25513 -0.45091,-0.41523 0.0355,-0.005 0.0712,-0.0101 0.10591,-0.0173 1.5685,-0.32677 2.11335,-1.76439 0.74092,-2.76648 -1.37242,-1.00209 -3.15881,-0.32686 -4.79266,0.67519 -1.63385,1.0021 -2.98465,0.69705 -3.5946,-0.71896 -0.26046,-0.60422 -0.179,-1.07713 -0.002,-1.42123 l 0.66443,0.55682 c -0.11718,0.44573 0.22197,0.93318 0.76896,1.20131 0.93405,0.45787 2.58126,-1.52359 5.58387,-1.85594 0.14614,-0.0165 0.28705,-0.0253 0.42318,-0.0268 z m -11.04951,0.39234 c 1.54234,0.0306 2.654,1.60275 2.75804,3.24822 0.33337,-0.26298 0.24233,-0.93568 0.18006,-1.2764 0.57217,0.14986 0.97723,1.26717 0.94806,2.16263 -1.21829,-0.82634 -2.0488,-0.51107 -2.85696,-0.048 0,0 0.2825,-0.6167 0.35387,-1.38899 0.16964,-1.83616 -1.20458,-1.87978 -1.20458,-1.87978 0.75668,0.48516 0.81607,1.56144 0.42847,2.69576 -0.11485,0.33612 -0.29606,0.93391 -0.18239,1.35551 -1.03214,0.44555 -1.46329,1.80813 -1.46329,1.80813 0,0 -0.41115,-0.72156 -0.53267,-2.16076 0.1585,-1.61185 1.86186,-2.47351 1.26174,-3.26333 -0.44593,-0.58688 -1.01316,-0.33174 -1.01316,-0.33174 0,0 0.28861,-0.94183 1.32281,-0.92127 z m -15.766808,0.83265 c 0,0 0.377508,0.0351 0.980928,0.43097 -0.31333,2.09263 1.11054,3.50992 1.846442,4.04956 -0.782482,0.21009 -1.150418,0.25342 -1.913571,0.34577 0.809334,0.18155 2.015121,0.3841 2.837339,0.30075 -0.238383,0.26951 -0.23115,1.10799 -1.764207,1.45738 -2.203356,0.47934 -3.307555,-0.88374 -3.307555,-0.88374 0.71837,0.05 1.573431,0.0807 2.147824,-0.37988 0,0 -1.169876,-0.0644 -1.710472,-0.69933 -0.805886,-0.94651 -0.775334,-1.86809 -0.775334,-1.86809 0,0 0.591504,0.56167 1.12126,0.99121 0.529769,0.42953 1.393205,0.35916 1.393205,0.35916 0,0 -0.99486,-0.78391 -1.158797,-1.67418 -0.140334,-0.76212 -0.165431,-1.65335 0.302938,-2.42958 z m 26.340818,0.34453 c 0.0839,0.002 0.16651,0.009 0.24733,0.0217 1.46821,0.23293 1.49414,1.60207 1.49414,1.60207 0,0 -0.49978,-0.96974 -1.70128,-0.98513 -1.20153,-0.0154 -2.35669,0.80025 -2.35669,0.80025 l -0.48455,-0.33409 c 0,0 1.54267,-1.13226 2.80105,-1.10475 z m 5.33389,0.21586 c 0.15478,0.004 0.31994,0.009 0.49467,0.0123 v 0.43159 c -0.18433,-0.016 -0.35685,-0.0327 -0.49467,-0.0483 z m 3.34586,0.0119 v 0.43564 c -0.13719,0.008 -0.30959,0.0161 -0.49435,0.0242 v -0.4509 c 0.17468,-0.002 0.33963,-0.005 0.49435,-0.009 z m -2.5361,0.005 c 0.11848,0.003 0.24305,0.003 0.36538,0.004 v 0.46773 c -0.12584,-0.005 -0.24706,-0.0126 -0.36538,-0.0205 z m 1.72651,0.006 v 0.46025 c -0.11822,0.004 -0.23952,0.008 -0.36539,0.0104 v -0.4699 c 0.1223,-3e-4 0.24695,1.6e-4 0.36539,-6.7e-4 z m -1.04587,5e-4 c 0.12397,6.6e-4 0.2414,6.6e-4 0.36539,0.002 v 0.47272 c -0.0625,2.9e-4 -0.12365,0.002 -0.18659,0.002 -0.0598,0 -0.11934,-6.7e-4 -0.1788,-0.002 z m 4.947,0.2626 c 0.68176,0.29188 1.11637,0.37413 1.96138,0.2925 -0.31648,1.43712 -0.64436,1.87913 -1.55673,2.36556 -0.53925,-0.0626 -0.96053,-0.38798 -0.96053,-0.38798 0,0 0.31878,-0.28543 0.38705,-0.60275 0.42556,-0.0342 0.72019,-0.21993 0.92797,-0.48049 -0.60901,0.0841 -1.47548,-0.0458 -1.91965,-0.57209 1.03365,-0.35877 1.16051,-0.61475 1.16051,-0.61475 z m -7.21118,0.58657 c 0,0 1.24796,0.1802 2.44236,0.1802 1.19438,0 2.44064,-0.0897 2.44064,-0.0897 0,0 0.21916,0.26245 0.54777,0.51851 0.32861,0.25606 0.78671,0.42893 0.78671,0.42893 -0.38704,0.44046 -0.91443,0.98981 -3.77512,0.98981 -2.8607,0 -3.7661,-0.85087 -3.7661,-0.85087 0,0 0.34135,-0.18944 0.68204,-0.43891 0.3407,-0.24948 0.6417,-0.73795 0.6417,-0.73795 z m -7.87529,0.19437 c 0,0 1.11118,0.83649 2.31571,1.27717 -0.28602,0.11454 -0.52514,0.26918 -0.68016,0.38285 -0.95324,-0.50553 -1.71243,-1.22158 -2.0008,-1.51283 0.1223,-0.0476 0.24419,-0.0963 0.36525,-0.14719 z m -11.309018,0.56242 c 0.04885,-0.002 0.09742,-0.002 0.145629,3.1e-4 0.642799,0.021 1.223379,0.30737 1.593029,0.92127 0.59146,0.98223 -0.19429,2.14349 -0.60618,2.37584 -0.411907,0.23237 -1.14069,-0.0951 -1.235742,-0.72876 -0.09506,-0.63369 0.102329,-0.66381 0.102329,-0.66381 0,0 -0.602003,0.12674 -0.443581,0.83436 0.158427,0.70764 1.034973,1.00336 1.034973,1.00336 0,0 -1.077282,-0.0739 -1.499739,-0.88716 -0.422471,-0.81327 -0.04218,-1.66881 1.024539,-1.63712 1.066731,0.0318 0.5808,1.38355 0.5808,1.38355 0,0 0.338066,-0.19009 0.369756,-0.93997 0.03169,-0.74986 -1.436658,-1.47133 -2.365877,-0.33798 -0.547491,0.66776 -0.263833,2.31581 1.024539,2.53487 0,0 -0.369684,0.19006 -1.288539,-0.51756 -0.885187,-0.6817 -0.880035,-2.52522 0.517565,-3.10508 0.348612,-0.14464 0.704575,-0.22638 1.046499,-0.23612 z m 9.245438,0.33829 c -0.078,0.23364 -0.0782,0.66706 -0.0423,0.74824 -0.53607,0.3706 -0.75032,0.80131 -0.87548,0.79372 -0.40769,-0.13397 0.0557,-1.50444 0.91784,-1.54196 z m 1.12532,0.0762 c 0.62644,0.005 1.23674,0.0756 1.72231,0.5308 0.58946,0.55259 0.56215,1.21295 0.45557,1.22219 -0.0509,0.004 -0.74878,-0.23301 -1.28744,-0.26851 -0.58835,-0.0389 -1.04993,0.0829 -1.04993,0.0829 0,0 -0.15657,-0.14577 -0.33737,-0.6375 -0.18078,-0.49173 -0.13098,-0.92688 -0.13098,-0.92688 0.20833,0 0.41902,-0.005 0.62784,-0.004 z m 7.23205,0.34592 c 0.14252,0.16474 0.39314,0.38683 0.81504,0.60277 -0.0542,0.2222 -0.12904,0.41832 -0.22178,0.57442 -0.30308,0.51012 -0.85224,0.77035 -1.41049,0.89853 -0.13975,-0.19887 -0.32935,-0.46519 -0.55199,-0.75181 0.32842,-0.10586 0.6074,-0.25172 0.81708,-0.41944 0.32716,-0.26175 0.48474,-0.58705 0.55214,-0.90447 z m -11.00499,0.37802 c 0.66881,-0.007 1.02657,0.25154 1.10428,0.91255 -0.0362,0.0135 -0.37473,0.008 -0.77347,0.0902 -0.3776,0.081 -0.61973,0.31959 -0.99961,-0.19921 -0.23038,-0.32109 -0.35154,-0.65135 -0.35154,-0.65135 0.36635,-0.10182 0.60795,-0.13365 1.02034,-0.15217 z m 7.37938,0.0966 c 1.01243,0.0112 1.71187,0.95429 1.71187,0.95429 -0.475,0.0754 -0.49996,0.16985 -0.70385,0.36788 -0.26854,-0.10198 -0.6487,-0.16094 -1.10099,-0.20342 -0.23333,-0.0219 -0.77267,0.009 -0.84014,-0.0492 -0.10278,-0.0879 -0.0793,-1.08072 0.93311,-1.06954 z m 11.06823,0.22552 c 0.44352,0.50909 1.75044,0.44015 2.57179,1.31814 0,0 -0.93364,-0.25439 -1.47187,0.28922 -0.73807,-0.18241 -1.11088,-0.77599 -1.09992,-1.60736 z m -5.20649,0.0188 c 0.16225,0.0303 0.33919,0.0572 0.52987,0.0799 v 0.45496 c -0.19747,-0.0171 -0.38222,-0.035 -0.52987,-0.0518 z m -10.46717,0.0268 c 0.007,-1.6e-4 0.0142,4.9e-4 0.0209,0.003 0.0774,0.16376 0.25132,0.335 0.30824,0.50837 -0.0971,0.0593 -0.3162,0.22273 -0.40808,0.36259 -0.35789,-0.0302 -0.69313,-0.12059 -0.70368,-0.15092 -0.0102,-0.029 0.22084,-0.31303 0.37318,-0.43892 0.15717,-0.13006 0.30299,-0.28102 0.40947,-0.28284 z m 14.0515,0.007 v 0.5048 c -0.14696,0.008 -0.3318,0.0173 -0.52972,0.026 v -0.46601 c 0.19428,-0.0178 0.37064,-0.0394 0.52972,-0.0648 z m -2.71695,0.0796 c 0.12514,0.0103 0.25477,0.0188 0.39141,0.025 v 0.44467 c -0.13481,-0.005 -0.26466,-0.0135 -0.39141,-0.022 z m 1.84956,0.0104 v 0.45402 c -0.12665,0.004 -0.25671,0.008 -0.39157,0.011 v -0.44685 c 0.13806,-0.004 0.26747,-0.0105 0.39157,-0.0181 z m -0.72891,0.023 v 0.44529 c -0.067,5e-4 -0.13256,0.002 -0.19999,0.002 -0.0641,0 -0.12787,-0.002 -0.19159,-0.002 v -0.44467 c 0.0632,6.7e-4 0.1261,0.002 0.19159,0.002 0.0709,0 0.13229,-0.002 0.19999,-0.003 z m -2.88953,0.71427 c 0,0 1.49483,0.18021 2.68923,0.18021 1.19438,0 2.6864,-0.0895 2.6864,-0.0895 0,0 0.24118,0.26244 0.60293,0.51849 0.36173,0.25605 0.86598,0.42878 0.86598,0.42878 -0.42607,0.44046 -1.29462,0.99013 -4.15531,0.99013 -0.32908,0 -0.55028,-0.0123 -0.83811,-0.0322 -0.4143,-0.83477 -1.19463,-1.48139 -2.0416,-1.73852 0.19908,-0.21168 0.19048,-0.25715 0.19048,-0.25715 z m -7.79991,0.0427 c 0.52515,0.008 1.03168,0.16551 1.20614,0.32116 0.0888,0.0792 -0.0475,0.77241 -0.43844,1.3063 -0.13711,0.18725 -0.26548,0.34794 -0.40386,0.47784 -0.0337,-0.0644 -0.0699,-0.12901 -0.11121,-0.19345 -0.4536,-0.70805 -1.29317,-0.8089 -1.92665,-0.75788 0.0986,-0.14641 0.2157,-0.33311 0.35729,-0.58361 0.24788,-0.43854 0.79157,-0.5788 1.31673,-0.57036 z m -6.03695,0.0105 c 0.41715,0.0105 0.81374,0.20935 1.04213,0.57972 0.60909,0.98762 -0.61633,1.52107 -0.85773,1.49428 -0.24138,-0.0268 -0.40728,-0.11136 -0.40728,-0.11136 0,0 0.0858,0.9816 1.9131,0.67877 -0.16699,0.41601 -0.17193,1.11601 -0.19517,1.48868 -1.36364,0.37928 -3.2214,-0.94658 -3.05974,-2.37117 0.13418,-1.18232 0.86943,-1.77655 1.56469,-1.75892 z m 2.38845,6.7e-4 c 0.10459,0.004 0.21748,0.0314 0.40838,0.0783 0.22475,0.13721 0.0565,1.06784 -0.0697,1.37312 -0.41052,0.15982 -0.62282,0.36438 -0.99463,0.71568 -0.25508,-0.62482 -0.34603,-1.91968 0.29748,-2.10639 0.15771,-0.0457 0.25395,-0.0649 0.35854,-0.0607 z m 1.28994,0.32365 c 0.12845,-0.004 0.25658,0.007 0.3344,0.059 -0.12545,0.34511 -0.12247,0.56551 -0.31961,0.75072 -0.0687,0.0645 -0.38401,0.15406 -0.56756,0.22195 0.0213,-0.0614 0.0401,-0.12632 0.0515,-0.19936 0.0637,-0.40543 0.0681,-0.80656 0.16432,-0.80976 0.0796,-0.003 0.20843,-0.0195 0.33689,-0.0226 z m 4.85075,0.0605 c 0.74023,-0.009 1.43024,0.2395 1.69131,0.64699 -0.5387,0.31743 -0.81663,0.71798 -1.08544,1.21331 0,0 -0.0548,-0.49974 -0.27412,-0.89137 -0.33096,-0.59085 -0.88136,-0.83271 -0.8476,-0.92034 0.17151,-0.0307 0.34503,-0.0464 0.51585,-0.0487 z m -11.42333,0.12927 c 0.0845,1.29908 0.98997,2.33488 0.98997,2.33488 l -0.95244,-0.48953 c -0.3145,-0.16162 -0.18441,-0.82144 -0.18441,-0.82144 -0.0697,0.34734 -0.32764,0.68608 -0.6607,0.57162 l -0.892769,-0.30684 c 0,0 0.900199,-0.10769 1.217049,-0.46679 0.31685,-0.3591 0.4833,-0.8219 0.4833,-0.8219 z m 15.41744,0.10061 c 0.0766,3e-4 0.15468,0.004 0.2341,0.0103 2.35964,0.19673 2.74789,2.37288 2.29874,3.30897 -0.41954,0.8744 -2.04558,1.26861 -2.71772,0.10356 -0.67213,-1.16503 0.3443,-1.80826 0.83282,-1.446 0.43477,0.3224 -0.34344,0.50791 -0.34344,0.50791 -0.18143,0.33716 0.23313,1.18956 1.10008,0.67394 0.85137,-0.50784 -0.10891,-2.00538 -1.20833,-1.88772 -0.94099,0.14936 -1.46477,0.85531 -1.24073,1.96061 0.21821,1.10821 1.24003,1.64186 2.4285,1.45426 0.55245,1.22871 0.89258,2.19407 0.83654,3.62077 -1.15478,0.0974 -1.74093,0.76898 -2.14408,2.05951 0.64612,-0.84213 1.22244,-1.35183 2.1757,-1.33074 0,0 0.0633,0.697 -0.23239,1.20396 -1.14565,0.20723 -1.47255,0.83037 -2.30232,1.76374 0.77998,-0.59886 1.61443,-1.05714 2.37631,-1.07719 0,0 -0.20064,0.338 -0.54918,1.28855 -1.34132,0.42246 -1.47872,1.93273 -1.47872,1.93273 -1.02136,-0.22474 -1.30825,0.2024 -2.20732,0.92937 0.77892,-0.32449 1.28633,-0.48668 2.1335,-0.14781 l -0.57036,0.79215 c -0.67107,-0.43577 -1.16952,-0.53468 -2.0279,0.0844 0.73535,-0.0469 1.00511,0.0927 1.47872,0.45417 -1.21042,0.88688 -2.88685,1.6357 -4.25033,1.32545 0,0 2.30024,-0.92598 4.30172,-4.92893 2.00147,-4.00295 0.56761,-7.2293 -0.11947,-8.30472 -0.68707,-1.07543 -2.24049,-1.46375 -2.24049,-1.46375 0,0 1.05916,-2.89896 3.43605,-2.8875 z m -4.85448,0.0838 c 0.11475,-0.0288 1.06052,0.85002 0.96846,1.75424 -0.12694,1.24668 -0.90601,1.75159 -0.90601,1.75159 -0.2924,-0.4456 -0.62828,-0.61891 -0.97034,-0.76023 -0.004,-0.24216 -0.0395,-0.55899 -0.1573,-0.90024 0.22303,-0.1716 0.49291,-0.36787 0.66739,-0.7526 0.22469,-0.49548 0.27405,-1.06175 0.3978,-1.09276 z m 14.60332,0.0989 c 0.51957,0.008 1.10143,0.27844 1.45536,1.07655 0.69558,1.56857 -0.51119,3.1272 -0.51119,3.1272 -0.5545,-0.44843 -1.47901,-0.48267 -1.47901,-0.48267 0,0 1.09637,-0.59868 1.10506,-1.6555 0.009,-1.14422 -0.37972,-1.63004 -0.94277,-1.55207 -0.48577,0.0673 -0.36369,0.45916 -0.36369,0.45916 0,0 0.18798,-0.14447 0.3897,-0.13006 0.36382,0.026 0.6498,0.65844 -0.0952,0.84901 -0.62666,0.16031 -0.93555,-0.81438 -0.58906,-1.28215 0.16243,-0.21927 0.57233,-0.41652 1.03076,-0.40947 z m 2.85667,0.16619 c 1.46801,1.8253 2.24624,4.83437 0.88155,6.93455 l -0.52925,-0.18394 -0.2612,-0.82066 c 0.98795,-2.00249 0.26649,-4.50358 0.26649,-4.50358 0.0317,2.0185 -0.51014,3.25185 -0.7814,3.84506 -0.23191,-0.29263 -0.49622,-0.56797 -0.78904,-0.86847 0.5842,-0.67378 1.43923,-2.08675 1.21285,-4.40296 z m -20.84419,0.61677 c 0.81912,-0.0166 1.57536,0.3693 1.83741,0.89386 0.41933,0.83931 0.22,1.72653 -0.34982,2.2338 -0.56981,0.50727 -1.4183,0.49744 -1.89488,-0.33595 -0.47657,-0.83342 0.43137,-1.68329 0.95945,-1.33262 0.52807,0.35064 0.30557,0.7367 0.30557,0.7367 0,0 -0.25388,-0.23558 -0.60587,-0.14142 -0.35199,0.0942 0.25937,1.02401 0.88747,0.3805 0.62811,-0.64348 -0.2991,-1.64628 -1.20006,-1.44786 -0.76726,0.16897 -1.27806,0.95256 -0.83079,1.99456 0.29879,0.69608 0.77612,0.93285 1.19868,0.96161 0.42253,0.0288 1.28215,-0.26446 1.28215,-0.26446 l 0.95959,0.49949 c 0,0 -1.14006,-0.0221 -2.18973,0.50916 -1.04966,0.53132 -1.28199,1.95095 -1.28199,1.95095 -1.03809,-1.72904 -1.93681,-4.98212 -0.52628,-6.11671 0.44355,-0.35678 0.95765,-0.51164 1.4491,-0.52161 z m 16.27987,0.32723 c 0,0 -0.0849,0.69087 0.78358,0.94045 0.78059,0.22431 1.12998,-0.21557 1.12998,-0.21557 0,0 -0.0738,1.0458 -1.36236,0.79293 -0.88801,-0.17425 -0.88463,-1.08291 -0.5512,-1.51781 z m -1.94271,0.25871 v 0.47084 c -0.16349,0.009 -0.3634,0.0193 -0.57784,0.0289 v -0.42692 c 0.20898,-0.0209 0.40232,-0.0449 0.57784,-0.0729 z m -0.92906,0.10342 v 0.41104 c -0.13058,0.004 -0.26782,0.009 -0.40729,0.0128 v -0.40029 c 0.14213,-0.006 0.27773,-0.0142 0.40729,-0.0235 z m -1.92275,0.0329 c 0.13106,0.004 0.26637,0.007 0.40588,0.009 v 0.39515 c -0.11627,-6.7e-4 -0.2308,-0.004 -0.34328,-0.007 -0.0141,-0.12256 -0.0327,-0.24751 -0.0626,-0.39701 z m 1.16423,0.004 v 0.39669 c -0.13364,0.002 -0.27028,0.004 -0.40698,0.004 v -0.39436 c 0.1406,-0.002 0.27656,-0.003 0.40698,-0.006 z m 2.4693,0.73842 c 0,0 0.2584,0.26245 0.64591,0.5185 0.38751,0.25606 0.92765,0.42878 0.92765,0.42878 -0.45641,0.44046 -1.59023,0.98996 -4.45092,0.98996 -0.3521,0 -1.05923,-0.0552 -1.36144,-0.1517 0.3273,-0.23273 0.61406,-0.67327 0.65807,-1.32685 0.009,-0.13346 0.0254,-0.2617 0.0189,-0.38518 0.22802,0.009 0.47486,0.0161 0.68437,0.0161 1.1944,0 2.87737,-0.0896 2.87737,-0.0896 z m -10.32606,1.43775 c 0.33246,0.0147 0.71365,0.13658 1.14493,0.42411 2.35183,2.15933 1.47329,6.07209 0.75711,7.82297 -0.88248,2.15748 -2.49952,4.11038 -4.58082,5.2015 l -0.8962,-0.68714 c 0,0 1.53748,-0.15996 3.70426,-3.10678 1.49363,-2.03135 0.9549,-5.97376 -0.0299,-7.19934 -0.88349,-1.09947 -1.85207,-1.19493 -1.85207,-1.19493 0,0 0.52091,-1.20994 1.61314,-1.26034 0.0456,-0.002 0.0921,-0.002 0.13956,-1.6e-4 z m 9.97966,0.71504 v 0.44048 c -0.21056,0.0119 -0.47452,0.0247 -0.75709,0.0371 v -0.3844 c 0.27711,-0.0257 0.52937,-0.0568 0.75709,-0.0932 z m 1.87247,0.024 c 0.64605,0.0102 1.66124,0.14371 2.48128,0.78437 1.31208,1.02505 1.32513,1.76967 1.32513,1.76967 0,0 -0.8756,-0.28772 -1.63694,0.2414 -0.80191,0.55731 -0.47458,1.43963 -0.47458,1.43963 -0.81369,-0.13935 -1.13088,-0.27615 -1.80424,-0.69699 l 0.0615,-0.82005 c 0.75253,-0.33116 1.03755,-0.51562 1.57855,-1.08668 0,0 -1.88603,-0.32804 -2.17305,-1.59911 0,0 0.25468,-0.0383 0.64233,-0.0322 z m -6.16671,0.0664 c 0.22028,0.0226 0.46632,0.0405 0.72518,0.0539 v 0.35387 c -0.21254,-0.01 -0.41992,-0.0217 -0.6079,-0.0355 -0.0363,-0.12941 -0.0756,-0.25424 -0.11728,-0.37226 z m 3.16115,0.0333 v 0.3696 c -0.13933,0.005 -0.28834,0.009 -0.43595,0.0127 v -0.35885 c 0.15072,-0.006 0.29746,-0.0139 0.43595,-0.0234 z m -2.05998,0.0357 c 0.14329,0.004 0.28851,0.007 0.43595,0.008 v 0.35325 c -0.14443,-0.002 -0.28963,-0.004 -0.43595,-0.008 z m 1.24805,5e-4 v 0.35513 c -0.14322,0.003 -0.28966,0.004 -0.43595,0.004 v -0.35262 c 0.15025,-0.002 0.29585,-0.004 0.43595,-0.007 z m -20.29764,0.20118 v 1.6e-4 c -0.891785,0.0142 -1.735382,0.34944 -2.391574,0.96208 -0.699616,0.65131 -1.100126,1.53928 -1.135589,2.49609 -0.06614,1.97383 1.48355,3.63651 3.455673,3.70924 0.9618,0.0323 1.87277,-0.30532 2.57272,-0.9627 0.69783,-0.64929 1.09851,-1.5374 1.13574,-2.49422 0.0678,-1.97207 -1.48375,-3.63849 -3.45801,-3.70909 -0.0598,-0.002 -0.11949,-0.003 -0.17896,-0.002 z m 22.84839,0.49358 c 0,0 0.28166,0.26245 0.70415,0.5185 0.42248,0.25607 1.01146,0.42879 1.01146,0.42879 -0.49762,0.44044 -1.99161,0.99011 -4.8523,0.99011 -0.39835,0 -0.77647,-0.0185 -1.13747,-0.0471 -0.0143,-0.20271 -0.0221,-0.41304 -0.0464,-0.60478 -0.0648,-0.51147 -0.18471,-0.91929 -0.30029,-1.25147 0.508,0.0308 1.04511,0.0555 1.48416,0.0555 1.19439,0 3.1367,-0.0896 3.1367,-0.0896 z m -13.06527,0.54202 c 0.12701,0.004 0.25618,0.0166 0.38688,0.0418 2.0912,0.40133 2.30526,2.46239 2.3802,4.02728 0.10562,2.2054 -0.81164,3.85 -2.13255,4.83502 -0.85326,0.63628 -1.80293,1.05198 -2.33318,1.22375 -0.55264,-0.35848 -1.7287,-0.33003 -1.7287,-0.33003 0,0 0.96807,-0.36628 2.49547,-1.38729 2.14808,-1.4359 2.4285,-2.72503 2.51618,-4.23583 0.13541,-2.33325 -1.45759,-3.06293 -2.09128,-3.02067 l -0.63376,0.0422 c 0,0 1.33088,-0.0211 1.37312,1.20413 0.0422,1.22513 -1.43428,1.94996 -2.53269,0.87267 -1.02976,-1.00996 0.39507,-3.319 2.30031,-3.27297 z m -9.75944,0.0197 c 0.0416,-6.7e-4 0.0834,2e-5 0.12522,0.002 1.37973,0.049 2.45971,1.20804 2.41322,2.58736 -0.0213,0.66518 -0.30143,1.28214 -0.78887,1.73944 -0.48817,0.45517 -1.12655,0.69181 -1.79599,0.67161 -1.37652,-0.0508 -2.456742,-1.21158 -2.410263,-2.59125 0.02022,-0.66769 0.306525,-1.2843 0.791845,-1.73944 0.454973,-0.42674 1.041388,-0.66149 1.664838,-0.66928 z m 0.53407,1.25598 c -0.61303,0 -1.10833,0.32999 -1.10833,0.74045 0,0.40657 0.4953,0.73827 1.10833,0.73827 0.61267,0 1.10958,-0.33171 1.10958,-0.73827 0,-0.41046 -0.49656,-0.74045 -1.10958,-0.74045 z m 27.38343,0.27927 c 0.95552,0.0139 1.58276,0.4104 1.58276,0.4104 0,0 -0.34749,0.11586 -0.52412,0.16386 -0.30784,0.0837 -0.31898,0.52208 -0.31898,0.52208 0,0 1.37443,-0.59481 2.04768,-0.24048 0.67325,0.35433 0.8895,1.37964 0.8895,1.37964 0,0 -0.54532,-0.0448 -0.98825,0.25638 -0.44284,0.30119 -0.47224,0.89978 -0.47224,0.89978 0,0 -0.0995,-0.29156 -0.45386,-0.57504 -0.35435,-0.28347 -1.35489,-0.19936 -1.35489,-0.19936 l 0.38611,0.24703 c 0.38604,0.24705 0.84076,1.04619 0.84076,1.04619 l -0.31899,0.40759 c -0.3189,0.4075 -1.09322,0.18301 -1.09322,0.18301 0,0 0.16988,-0.26243 -0.12351,-0.8029 -0.29339,-0.54047 -0.84932,-0.5713 -0.84932,-0.5713 0,0 0.4942,0.23162 0.4942,0.98824 0,0.75663 -0.88015,1.09635 -0.88015,1.09635 -0.15334,-1.24798 -1.3535,-2.48628 -1.3535,-2.48628 0.31378,-0.17841 0.32782,-0.15854 0.55854,-0.42535 0.49226,0.56408 2.40025,1.11512 2.30216,-0.69934 -0.0403,-0.74365 -0.80651,-0.64576 -0.85164,-0.43672 0,0 0.28818,-0.0533 0.46289,0.35075 0.1747,0.404 -0.29154,1.0509 -1.0993,0.60213 -0.95433,-0.53019 -0.53171,-1.88004 0.40713,-2.05561 0.25182,-0.0472 0.48972,-0.0642 0.71024,-0.061 z m -5.29745,0.0855 v 0.40137 c -0.21429,0.0121 -0.47644,0.0253 -0.75757,0.038 v -0.3436 c 0.27405,-0.0272 0.52746,-0.059 0.75757,-0.0958 z m -1.13621,0.12881 v 0.32645 c -0.14244,0.005 -0.28766,0.0101 -0.43907,0.0148 v -0.3129 c 0.15233,-0.008 0.29826,-0.0177 0.43907,-0.0283 z m -2.90073,0.036 c 0.14242,0.008 0.294,0.0133 0.44779,0.0179 v 0.30153 c -0.14872,-0.004 -0.29697,-0.01 -0.43844,-0.0163 -0.003,-0.0982 -0.005,-0.20012 -0.009,-0.3031 z m 2.08303,0.009 v 0.30668 c -0.1455,0.004 -0.2893,0.007 -0.43891,0.009 v -0.30356 c 0.15117,-0.004 0.29735,-0.007 0.43891,-0.0123 z m -1.25661,0.0154 c 0.0766,6.7e-4 0.1514,0.004 0.22895,0.004 0.0722,0 0.13992,-6.6e-4 0.21012,-0.002 v 0.30262 c -0.07,3.1e-4 -0.13982,0.002 -0.21012,0.002 -0.0756,0 -0.15252,-0.002 -0.22895,-0.004 z m 3.93742,0.63501 v 1.6e-4 c 0,0 0.32854,0.22164 0.82143,0.52036 0.49291,0.29873 1.39119,0.50043 1.39119,0.50043 l -0.50791,0.30061 c -0.32909,-0.20144 -1.18174,-0.42452 -1.93008,-0.43283 -0.73295,0.0112 -1.77316,0.33303 -2.06388,1.35271 -0.38968,-0.20502 -1.02524,-0.22949 -1.69007,0.0157 -0.35723,-0.18143 -0.68051,-0.43298 -0.81115,-0.77782 0.0161,-0.3379 0.0273,-0.84426 0.0258,-1.40582 0.38656,0.018 0.77515,0.0311 1.10507,0.0311 1.39345,0 3.65956,-0.10466 3.65956,-0.10466 z m -12.80595,0.16743 c 0,0 0.40596,1.47665 -0.19019,2.89403 -0.65824,1.61722 -1.78359,2.23675 -3.35645,3.21006 0,0 0.83621,-0.82329 0.89744,-1.58883 0.0422,-0.52809 -0.20247,-0.71304 -0.20247,-0.71304 0,0 0.21121,-0.27927 0.29826,-0.90165 0.0871,-0.62238 -0.2816,-1.0993 -0.2816,-1.0993 0,0 1.39859,0.56465 2.09565,0.0788 0.69707,-0.48583 0.73936,-1.88009 0.73936,-1.88009 z m 12.68166,1.14477 c 0.27727,0.005 0.58904,0.0567 0.9356,0.16651 2.5348,0.80268 2.38688,4.30905 1.09836,5.87217 -1.28851,1.56313 -2.53486,2.0701 -2.53486,2.0701 -0.20194,-0.37294 -0.45834,-0.69876 -0.69668,-0.95943 0,0 2.75564,-2.93501 2.53159,-4.71244 -0.22404,-1.77744 -1.43385,-1.70284 -1.43385,-1.70284 0,0 0.39582,0.0598 0.59746,0.41087 0.20164,0.35101 0.63855,1.41894 0.12102,2.60184 -0.51752,1.18291 -2.09886,2.89996 -2.245,2.98905 -0.10423,-0.13383 -0.66097,-0.52349 -0.80198,-0.55978 0,0 0.88186,-0.65476 1.82184,-1.81653 0.93999,-1.1618 1.20874,-2.28108 0.86521,-2.93828 -0.34355,-0.65719 -1.09792,-0.67224 -1.25475,-0.2615 -0.15683,0.41075 0.14189,0.56024 0.14189,0.56024 0,0 -0.21649,-0.44066 0.23161,-0.48548 0.44809,-0.0448 0.5451,0.30626 0.51522,0.50043 -0.0298,0.19417 -0.1867,0.941 -1.1725,0.44811 -0.83178,-0.4159 -0.48738,-2.13703 1.16317,-2.18256 0.0382,-6.7e-4 0.0771,-6.7e-4 0.11665,-5e-4 z m -4.85216,1.09589 c 0.60414,0.90085 0.74116,1.57255 0.28504,2.43969 0.92377,-0.74335 0.78373,-1.31434 0.69792,-1.84535 0.83428,-0.59152 1.6219,-0.26239 1.8874,0.26867 0,0 -1.18013,0.62738 -0.58267,1.95672 0.59746,1.32935 -0.1791,1.95656 -0.1791,1.95656 -0.33584,-0.11288 -0.68213,-0.21262 -1.07377,-0.25575 0,0 0.13738,-0.63385 -0.0316,-1.00351 -0.26437,-0.57834 -1.25677,-1.02441 -2.03834,-0.4224 -1.02134,0.78673 -0.22162,1.44679 -0.22162,1.44679 l -0.57053,0.17958 c -0.76035,-0.78961 -0.0325,-2.76609 1.2186,-2.83797 -0.004,-0.19302 0.0498,-0.46078 0.27054,-0.77407 0.45416,-0.64427 0.33814,-1.10896 0.33814,-1.10896 z m 9.97329,1.90671 c 0,0 -0.0328,0.81269 -0.84495,1.90859 -1.10979,1.49751 -1.8033,1.43993 -1.8033,1.43993 0,0 1.00214,-0.69943 1.15335,-2.70838 0,0 0.46399,-0.0248 0.90522,-0.26104 z m -10.24539,1.23913 c 0.17452,0.01 0.34746,0.078 0.4763,0.20404 0.34353,0.33607 0.10451,0.94853 0.10451,0.94853 l -0.38082,-0.0149 c 0,0 0.0971,-0.11952 -0.0149,-0.32863 -0.11201,-0.2091 -0.39576,-0.31368 -0.39576,-0.31368 0,0 0.33606,0.47803 -0.007,0.65727 -0.34353,0.17923 -0.63481,-0.20924 -0.47052,-0.7096 0.10269,-0.31274 0.39788,-0.45915 0.68874,-0.44296 z m 0.44016,2.21371 1.6e-4,3e-4 c 0.0594,-6.7e-4 0.11762,-6.7e-4 0.17507,0 2.3487,0.0425 3.49207,1.42865 3.8868,2.49142 0.54921,1.47864 0.25593,2.87136 -0.43876,3.82621 -0.65942,0.90635 -2.31661,1.35988 -3.33465,0.4118 -3e-4,0 -6.7e-4,-6.6e-4 -6.7e-4,-6.6e-4 -0.75554,-0.49895 -1.52824,-1.57653 -1.52824,-1.57653 0,0 -0.34394,-0.56304 0.50542,-0.67829 -1.09397,-0.71727 -3.76157,-1.09916 -3.76157,-1.09916 1.00813,-0.22353 1.83062,-0.21749 2.85399,0.0422 -0.57887,-0.52061 -1.39108,-0.75762 -2.70759,-0.60213 -2.68266,0.31685 -4.20334,0.44372 -5.61861,-0.23222 -1.41525,-0.67595 -1.93294,-0.58096 -2.39765,-0.41197 -0.46472,0.16899 -0.92937,0.68656 -0.92937,0.68656 0,0 0.69696,-0.41201 1.52077,-0.20077 0.8238,0.21123 1.46827,0.32988 1.46827,0.32988 0,0 -0.926,0.28386 -2.15078,0.35854 -1.2248,0.0747 -1.77745,-0.11946 -1.77745,-0.11946 0,0 0.38826,-0.0896 0.65712,-1.16503 0.26883,-1.07541 0.85136,-1.85208 3.07688,-1.15007 2.22553,0.70201 1.94182,2.01631 7.13969,-0.10466 1.37055,-0.55924 2.47211,-0.79257 3.36176,-0.80587 z m -0.0841,0.8691 v 1.6e-4 c -2.09291,0.0347 -4.67552,1.3577 -4.67552,1.3577 0,0 1.54909,-0.36043 2.51415,-0.6037 -0.13403,0.22338 -0.13441,0.33034 -0.10886,0.54777 0,0 0.42274,-0.97159 2.35511,-0.74979 1.42326,0.16336 2.00912,1.40517 2.03366,1.45847 -0.0118,-0.0155 -0.069,-0.0607 -0.34374,-0.20171 -0.39078,-0.20066 -1.08778,0.0105 -1.08778,0.0105 h 0.29563 c 0.29572,0 1.27807,0.47533 0.87672,1.02455 -0.40134,0.54919 -1.0456,0.26419 -1.66873,-0.61242 -0.62315,-0.87664 -1.64771,-0.85555 -1.64771,-0.85555 0,0 0.88714,0.27462 1.43636,1.62651 0.5492,1.35189 1.68993,0.99289 1.92229,0.86615 0.23234,-0.12675 1.86407,-1.42578 0.0897,-3.22127 -0.44359,-0.44887 -1.08221,-0.6288 -1.79037,-0.64637 -0.0664,-0.002 -0.1334,-0.002 -0.20092,-6.7e-4 z m -14.59959,0.54918 c 0,0 0.94101,2.28525 -0.4182,2.62879 -0.6387,0.16142 -0.90587,0.3423 -1.01192,0.48906 -0.004,-0.19237 0.0485,-0.57737 0.48906,-0.89978 0.58724,-0.42969 0.74422,-1.03695 0.75649,-1.0873 -0.014,0.0364 -0.068,0.13985 -0.27849,0.40028 -0.2838,0.35099 -0.88859,0.40319 -1.20972,1.09026 -0.12702,0.27175 -0.13423,0.47374 -0.0941,0.62472 -0.10732,-0.0695 -0.24022,-0.16605 -0.39888,-0.30355 -0.4481,-0.38836 -0.25397,-1.2248 0.68702,-1.62808 0.941,-0.40329 1.47872,-1.3144 1.47872,-1.3144 z m 20.30012,0.10186 c 0.87803,0.0249 0.93247,0.70022 0.9096,0.9585 -0.9494,-0.73016 -1.46071,0.75085 -1.65379,1.26128 -0.0294,-0.29063 -0.0879,-0.56156 -0.15886,-0.80586 0.38009,-0.81252 0.88872,-0.96322 1.14058,-0.9557 0,0 -0.13086,-0.14562 -0.5939,0.0112 -0.28236,0.0956 -0.53253,0.3364 -0.69869,0.49669 -0.0625,-0.15841 -0.12328,-0.28795 -0.1799,-0.40121 0.0183,-0.0167 0.64076,-0.58185 1.23496,-0.56492 z m -33.376926,1.05226 4.81e-4,3.1e-4 c 0.666126,0.007 1.437053,0.12249 2.32881,0.36944 0.500637,0.13865 0.916349,0.27829 1.265487,0.41197 -0.738187,-0.0801 -1.564796,-0.12677 -2.167917,-0.0388 -1.985845,0.28965 -2.720309,1.26953 -2.7185,1.26953 0,0 1.357353,-0.54997 2.748249,-0.74668 1.477619,-0.20894 2.915442,-0.14578 2.917551,-0.14578 -0.0022,5e-4 -1.57427,0.37035 -2.410109,1.32561 -0.836444,0.95592 -0.896043,1.7625 -0.896043,1.7625 0,0 1.969411,-2.60064 4.091456,-2.59235 0,0 -1.098382,0.48575 -1.77433,1.75314 -0.675946,1.26739 -1.499874,1.81663 -2.936242,1.62653 -1.436387,-0.19012 -2.481574,-1.10498 -2.692801,-2.07664 -0.211236,-0.97167 -1.348348,-0.71413 -1.348348,-0.71413 0.539392,-1.27691 1.59389,-2.22649 3.592271,-2.20467 z m 18.979966,0.95928 c 1.23374,-0.0169 2.57111,0.11257 3.94412,0.48751 5.49204,1.49975 5.21753,6.44264 5.15415,7.20308 -0.0633,0.76043 -0.76039,2.19678 -2.66149,2.21791 -1.9011,0.0211 -3.02077,-0.95061 -2.72505,-2.80946 0.29573,-1.85885 2.0702,-1.62648 2.66166,-1.16176 0.59144,0.46471 0.1478,1.43635 0.1478,1.43635 0,0 -0.69699,-0.80273 -1.30956,-0.12678 -0.61257,0.67594 0.84492,1.85889 1.66872,0.73936 0.82383,-1.11953 0.2956,-2.78832 -1.94347,-3.80224 -2.23906,-1.01391 -4.75263,-1.22505 -6.14676,-1.24616 -1.39414,-0.0212 -1.88009,0.10559 -1.88009,0.10559 0,0 -0.45412,-0.38019 -0.77097,-0.54918 l -0.31679,-0.16899 c 0,0 3.1438,-0.68963 6.19083,-0.0623 3.04702,0.62731 4.57055,1.91185 4.57055,1.91185 0,0 -1.85208,-2.1807 -5.70567,-2.77815 -3.85359,-0.59746 -5.03134,1.20558 -7.34762,0.0203 0,0 2.76845,-1.36638 6.46964,-1.41688 z m -10.5005,0.14174 c 0.51172,0.16944 2.09422,1.72314 5.15041,2.5425 3.07805,0.82522 3.06292,3.46428 2.30248,4.98517 -0.76044,1.52088 -2.14567,2.3204 -3.84443,1.71093 -1.41303,-0.50696 -2.87141,-3.45715 -0.71817,-4.39361 1.67603,-0.72893 2.42918,1.64768 1.39413,2.19688 -1.03503,0.54921 -1.7955,-0.59154 -1.7955,-0.59154 0,0 0.44356,1.87995 2.3869,1.33074 1.94335,-0.54919 1.39354,-2.71203 0.19375,-3.60176 -0.9245,-0.68561 -2.65806,-0.53175 -2.65806,-0.53175 -0.12889,-1.02085 -1.12165,-2.73613 -2.41151,-3.64756 z m 24.18116,0.41882 c 0.36602,6.7e-4 0.92419,0.0549 1.29773,0.33813 0.87017,0.65965 0.43731,1.38224 0.22755,1.627 -0.27871,-0.9172 -1.03792,-0.77385 -1.69427,-0.45512 0.0404,-0.18106 0.0787,-0.39464 0.10841,-0.64979 0.64491,-0.20117 1.07162,-0.0357 1.2675,0.11322 0,0 -0.0271,-0.24201 -0.60884,-0.41787 -0.1974,-0.0597 -0.41863,-0.0661 -0.62534,-0.0531 0.007,-0.0998 0.0135,-0.20252 0.0176,-0.31167 0.003,-0.0644 0.002,-0.12747 6.7e-4,-0.19064 h 0.009 z m -25.543058,0.0165 c 0.257992,-0.002 0.573801,0.0457 0.880935,0.2221 0.702013,0.40328 1.389003,1.58322 1.389003,1.58322 -4.137385,-1.32934 -5.197929,3.40553 -2.554185,4.13741 2.643745,0.73189 3.106795,-1.43386 3.106795,-1.43386 0,0 0.31369,0.44813 -0.26883,2.2405 -0.58252,1.79237 -2.044096,2.81585 -2.044097,2.81585 10e-7,0 0.519087,-0.58572 0.562733,-1.29836 0.05887,-0.96104 -0.26696,-1.17888 -0.26696,-1.17888 0,0 -0.194183,1.09246 -1.329345,1.70486 -1.135175,0.61239 -2.338309,0.72377 -2.338309,0.72377 0,0 0.656625,-0.52623 0.704623,-1.13371 0.05378,-0.68068 -0.331753,-1.40473 -0.331753,-1.40473 0,0 -0.134375,1.44889 -1.568269,1.68789 -1.433896,0.23896 -2.882818,-0.35854 -2.882818,-0.35854 0,0 0.328642,-0.0448 0.926102,-0.4481 0.597455,-0.40329 1.659975,-1.60305 2.212616,-2.96974 0.55265,-1.36667 1.740221,-1.28448 1.740221,-1.28448 0,0 -0.104627,-0.20912 -0.507908,-0.30621 -0.40329,-0.0971 -0.948531,0.13441 -0.948531,0.13441 0,0 0.156964,-0.61236 0.858974,-1.44133 0.702009,-0.82897 1.986464,-0.26883 1.986464,-0.26883 0,0 0.0074,-0.27629 -0.478003,-0.56008 -0.485437,-0.28378 -1.015661,0.015 -1.015661,0.015 0,0 0.171802,-0.28384 1.060517,-0.63484 0.888716,-0.351 1.926811,0.59746 1.926811,0.59746 0,0 -0.112068,-0.33604 -0.48548,-0.70945 -0.373408,-0.37341 -0.903675,-0.34359 -0.903675,-0.34359 0,0 0.236324,-0.085 0.56803,-0.0877 z m 1.246797,2.0891 c 0.111031,0.003 0.222611,0.0127 0.333311,0.0287 0.64229,0.0926 1.5738,0.61906 1.16892,1.75221 0,0 -0.26049,-0.45446 -0.78857,-0.83467 -0.52809,-0.38022 -1.573882,-0.041 -1.573882,-0.041 0,0 0.116105,-0.0315 0.528001,0.0952 0.411911,0.12675 1.151331,1.10887 0.538751,1.63695 -0.612574,0.52809 -2.249703,0.0951 -1.975099,-1.19336 0.24028,-1.12747 0.991312,-1.46322 1.768568,-1.44399 z m 9.309311,0.8878 c 1.01593,0.004 2.42928,0.21676 3.58184,1.1792 2.04894,1.71098 -0.23254,5.19636 -0.23254,5.19636 0,0 0.33812,-1.58416 -0.16884,-2.36573 -0.50696,-0.78157 -0.80291,0.8661 -1.58447,1.18294 -0.78156,0.31686 -1.58415,-0.84495 -1.58415,-0.84495 0,0 0.48582,0.88706 0.27458,1.68976 -0.21122,0.80267 -1.373,0.42259 -1.83772,0.10574 l -0.46461,-0.31695 c 0,0 1.48127,-1.32561 1.45505,-3.30381 0.23876,0.18446 0.53506,0.33403 0.90787,0.51787 1.09036,0.53771 1.95672,0.16432 1.95672,0.16432 0,0 -0.61236,0.0599 -1.58322,-0.41804 -0.97087,-0.47796 -1.49538,-1.50956 -1.49538,-1.50956 0,0 1.31607,0.0307 2.45123,0.53861 1.13516,0.50784 1.91186,1.56842 1.91186,1.56842 0,0 -0.44795,-1.79242 -2.22539,-2.40482 -1.21239,-0.4177 -2.04567,-0.4588 -2.45979,-0.44358 -0.0726,-0.1361 -0.153,-0.2737 -0.24298,-0.41274 0,0 0.54976,-0.12517 1.33994,-0.12304 z m -15.082269,0.41928 c 0,0 -0.473759,1.4993 -0.959591,2.12243 -0.485836,0.62313 -0.939964,1.05615 -0.939964,1.05615 0,0 0.264011,-0.80262 -0.348574,-1.59474 -0.61257,-0.79212 -0.792001,-1.09836 -0.792001,-1.09836 0,0 1.03494,0.48571 1.858748,0.34842 0.823808,-0.13731 1.181382,-0.8339 1.181382,-0.8339 z m 28.795159,0.27427 c 0.34685,1.42012 0.15909,2.5246 -1.13497,3.93867 0.007,-0.99691 -0.20906,-1.567 -1.28044,-1.79645 0,0 0.23459,-0.29789 -0.0962,-1.45348 0.69517,0.23297 1.24175,0.74318 1.64258,1.38558 -0.0834,-0.57203 -0.24665,-1.18271 -0.66773,-1.58541 0.50186,-0.0119 1.0863,-0.12114 1.53681,-0.48891 z m -21.22326,4.29285 c 0.83348,0.91683 1.01196,1.82176 0.0475,2.15515 -0.96446,0.33339 -0.61911,0.90492 -0.61911,0.90492 l -0.38098,-0.48863 c -0.38103,-0.48817 -0.39295,-1.23825 0.0833,-1.6312 0.47628,-0.39292 0.86926,-0.94058 0.86926,-0.94058 z m 10.40829,0.16416 c 0.0363,0.004 0.0678,0.0297 0.093,0.0856 0.0812,0.1803 -0.13136,0.81513 -0.31274,1.29212 -0.25134,-0.0821 -0.50896,-0.14379 -0.7456,-0.1883 0.15043,-0.11764 0.28291,-0.2489 0.3562,-0.38689 0.20631,-0.38836 0.45215,-0.81604 0.60915,-0.80259 z m 1.65628,0.16666 c 0.20767,0.61502 0.50856,0.84909 1.10225,1.08902 -0.52979,1.11641 -1.1535,1.35333 -1.1535,1.35333 0,0 0.0263,-0.74313 -0.40729,-1.38931 0.17614,-0.31563 0.2412,-0.35078 0.32225,-0.58718 0.13632,-0.39759 0.13629,-0.46586 0.13629,-0.46586 z m -10.79301,0.89277 c 0,0 0.5587,0.22912 0.79807,0.22912 0.23938,0 0.46035,0.41426 0.48798,0.5984 0.0276,0.18413 -0.12882,0.63531 -0.12882,0.63531 0,0 -1.3477,-0.13602 -1.15723,-1.46283 z m 24.25561,5.73605 1.7e-4,0.002 c -0.38195,0 -0.67052,0.28309 -0.67052,0.65836 v 6.50795 c 0,0.37355 0.28186,0.65494 0.6554,0.65494 h 5.18608 c 0.39936,0 0.68795,-0.27619 0.68795,-0.65494 v -0.17226 c 0,-0.3802 -0.28859,-0.6579 -0.68795,-0.6579 h -4.24737 v -1.65688 h 3.11225 c 0.39846,0 0.68795,-0.27962 0.68795,-0.65837 v -0.17195 c 0,-0.3805 -0.28949,-0.6565 -0.68795,-0.6565 h -3.11225 v -1.70659 h 4.03164 c 0.39791,0 0.68781,-0.27425 0.68781,-0.65648 v -0.17196 c 0,-0.38048 -0.2899,-0.65835 -0.68781,-0.65835 z m -23.10975,0.002 c -1.28704,0 -1.99502,1.08824 -1.99502,1.84052 v 0.96567 c 0,1.10782 0.9052,1.79426 1.74458,1.79426 h 2.94636 c 0.3712,0 0.44888,0.24306 0.44888,0.4481 v 0.62316 c 0,0.0662 -0.0134,0.6646 -0.44888,0.6646 h -4.01856 c -0.39935,0 -0.68796,0.27786 -0.68796,0.65805 v 0.17227 c 0,0.37873 0.28861,0.65493 0.68796,0.65493 h 4.23708 c 1.10754,0 1.82215,-0.77065 1.82215,-1.96434 v -1.04199 c 0,-1.12087 -0.80534,-1.62201 -1.60488,-1.62201 h -2.89917 c -0.43646,0 -0.63422,-0.3274 -0.63422,-0.55883 v -0.57535 c 0,-0.36222 0.24211,-0.57223 0.66553,-0.57223 h 3.20927 c 0.39354,0 0.68951,-0.28268 0.68951,-0.65651 v -0.17194 c 0,-0.37527 -0.30097,-0.65836 -0.7029,-0.65836 h -3.45958 z m 6.78955,0 c -0.386,0 -0.68951,0.30455 -0.68951,0.68967 v 5.12067 c 0,1.1922 0.93809,2.05701 2.23037,2.05701 h 2.39517 c 1.29053,0 2.22818,-0.86452 2.22818,-2.05701 v -5.12067 c 0,-0.38512 -0.30254,-0.68967 -0.68795,-0.68967 h -0.21806 c -0.38048,0 -0.68701,0.30918 -0.68701,0.68967 v 4.93391 c 0,0.39529 -0.32254,0.71273 -0.71288,0.71273 h -2.23973 c -0.39178,0 -0.71256,-0.31744 -0.71256,-0.71273 v -4.93391 c 0,-0.38049 -0.30917,-0.68967 -0.68936,-0.68967 z m 9.54575,0 c -1.28647,0 -1.99643,1.08824 -1.99643,1.84052 v 0.96567 c 0,1.10782 0.90681,1.79426 1.74676,1.79426 h 2.94558 c 0.37181,0 0.44982,0.24306 0.44982,0.4481 v 0.62316 c 0,0.0662 -0.0135,0.6646 -0.44982,0.6646 h -4.02042 c -0.39759,0 -0.68781,0.27786 -0.68781,0.65805 v 0.17227 c 0,0.37873 0.29022,0.65493 0.68781,0.65493 h 4.23849 c 1.10783,0 1.82571,-0.77065 1.82571,-1.96434 v -1.04199 c 0,-1.12087 -0.80764,-1.62201 -1.60719,-1.62201 h -2.89918 c -0.43763,0 -0.63485,-0.3274 -0.63485,-0.55883 v -0.57535 c 0,-0.36222 0.24229,-0.57223 0.66569,-0.57223 h 3.21099 c 0.39266,0 0.68749,-0.28268 0.68749,-0.65651 v -0.17194 c 0,-0.37527 -0.30062,-0.65836 -0.70431,-0.65836 h -3.45818 z m -31.026469,3.06888 c -0.457642,0 -0.802713,0.16351 -1.079675,0.29749 -0.168787,0.0809 -0.314923,0.15078 -0.428319,0.15078 -0.05134,0 -0.09517,-0.0233 -0.118371,-0.0612 l -0.1056,-0.20185 c -0.02639,-0.0531 -0.132271,-0.15685 -0.263066,-0.15685 h -0.156844 c -0.150809,0 -0.271476,0.13547 -0.271476,0.30077 v 6.22402 c 0,0.19517 0.153996,0.34888 0.348885,0.34888 h 0.13566 c 0.193439,0 0.350754,-0.15545 0.350754,-0.34888 v -2.06528 c 0,-0.0612 0.03974,-0.12726 0.08006,-0.12726 0.113396,0 0.259531,0.0665 0.428319,0.14392 0.276963,0.12731 0.622033,0.2841 1.079675,0.2841 h 0.146407 c 0.810298,0 1.314393,-0.46304 1.314393,-1.20692 v -2.37586 c 0,-0.73258 -0.514825,-1.20552 -1.314393,-1.20552 h -0.146407 z m 9.886531,0 c -0.456191,0 -0.800441,0.16354 -1.078273,0.29609 -0.172849,0.0812 -0.320446,0.15218 -0.441089,0.15218 -0.05307,0 -0.07455,-0.006 -0.115725,-0.0781 l -0.09594,-0.17506 c -0.05511,-0.11079 -0.148769,-0.16682 -0.275214,-0.16682 h -0.134855 c -0.162988,0 -0.281911,0.12704 -0.281911,0.30076 v 4.08259 c 0,0.19343 0.152897,0.34888 0.34982,0.34888 h 0.134881 c 0.193437,0 0.351066,-0.15719 0.351066,-0.34888 v -3.08872 c 0,-0.28945 0.236387,-0.52722 0.525819,-0.52722 h 1.159731 c 0.290306,0 0.526754,0.23777 0.526754,0.52722 v 3.08872 c 0,0.19343 0.153704,0.34888 0.348884,0.34888 h 0.13628 c 0.19345,0 0.3506,-0.15719 0.3506,-0.34888 v -3.20616 c 0,-0.73258 -0.51502,-1.20553 -1.315169,-1.20553 z m -6.0787,0.0283 v 4.9e-4 c -0.649919,0 -1.177332,0.50583 -1.177332,1.12936 v 2.4355 c 0,0.63165 0.51271,1.16721 1.117679,1.16721 h 1.637735 c 0.20243,0 0.348885,-0.14028 0.348885,-0.33081 v -0.10732 c 0,-0.1917 -0.146455,-0.3291 -0.348885,-0.3291 h -1.345388 c -0.377018,0 -0.575972,-0.18544 -0.575972,-0.53781 v -0.71257 h 2.427087 c 0.39036,0 0.621141,-0.23799 0.621141,-0.64139 v -0.94433 c 0,-0.62324 -0.528308,-1.12936 -1.175619,-1.12936 z m -10.089476,4.9e-4 c -0.649922,-3e-4 -1.178891,0.50554 -1.178891,1.12906 v 2.45373 c 0,0.63339 0.511738,1.14929 1.139328,1.14929 h 1.587272 c 0.627589,0 1.139483,-0.5159 1.139483,-1.14929 v -2.45374 c 0,-0.62324 -0.529257,-1.12936 -1.178889,-1.12936 z m 5.221128,0.76678 h 1.159108 c 0.296104,0 0.527221,0.23141 0.527221,0.52722 v 2.14331 c 0,0.29089 -0.237208,0.52721 -0.527221,0.52721 h -1.159108 c -0.290305,0 -0.527378,-0.23632 -0.527378,-0.52721 v -2.14331 c 0,-0.2961 0.231563,-0.52722 0.527378,-0.52722 z m -5.084845,5e-4 h 1.236518 c 0.258112,0 0.478003,0.21971 0.478003,0.47753 v 2.24065 c 0,0.26449 -0.214091,0.47941 -0.478003,0.47941 h -1.245865 c -0.264492,0 -0.470372,-0.21027 -0.470372,-0.47941 v -2.24065 c 0,-0.26275 0.215804,-0.47753 0.479719,-0.47753 z m 10.080287,0 h 1.274832 c 0.262753,0 0.467881,0.20639 0.467881,0.46943 v 0.76054 h -2.213087 c 3.32e-4,-0.0992 3.32e-4,-0.76054 3.32e-4,-0.76054 0,-0.26304 0.206728,-0.46943 0.470061,-0.46943 z m 40.883884,2.38208 c -0.35324,0 -0.64046,0.28748 -0.64046,0.64653 0,0.36454 0.28722,0.6487 0.64046,0.6487 0.35583,0 0.63732,-0.28416 0.63732,-0.6487 0,-0.35933 -0.28129,-0.64653 -0.63453,-0.64653 z m -1.6e-4,0.10045 h 0.003 c 0.28711,0 0.51693,0.2442 0.51693,0.54871 0,0.30452 -0.22982,0.54864 -0.51693,0.54545 -0.28712,0 -0.5196,-0.24099 -0.5196,-0.54841 0,-0.3016 0.23257,-0.54575 0.51679,-0.54575 z m -0.0316,0.18378 c -0.0862,0 -0.14356,0.009 -0.20388,0.0174 v 0.72066 h 0.11478 3.1e-4 v -0.30994 h 0.0804 c 0.0919,0 0.13774,0.0346 0.15513,0.12631 0.0142,0.0948 0.0314,0.16104 0.0488,0.18395 h 0.12055 c -0.0116,-0.023 -0.0284,-0.0657 -0.0457,-0.17803 -0.0145,-0.10643 -0.0573,-0.16392 -0.12055,-0.17523 v -0.006 c 0.0774,-0.0232 0.14064,-0.0806 0.14064,-0.17522 0,-0.0693 -0.0233,-0.11805 -0.0665,-0.14938 -0.0429,-0.0316 -0.11448,-0.0546 -0.22382,-0.0546 z m -0.005,0.0888 c 0.12935,0 0.17506,0.0633 0.17506,0.12646 0,0.0893 -0.0802,0.12352 -0.17506,0.12352 h -0.0833 v -0.24391 c 0.02,-0.003 0.0458,-0.005 0.0833,-0.005 z m -39.911213,4.10182 c -0.253761,0 -0.42972,0.16066 -0.42972,0.39888 0,0.2434 0.175959,0.39872 0.42972,0.39872 0.253762,0 0.429877,-0.15532 0.429877,-0.39872 0,-0.23822 -0.176115,-0.39888 -0.429877,-0.39888 z m 19.895943,0 c -0.25376,0 -0.42987,0.16066 -0.42987,0.39888 0,0.2434 0.17611,0.39872 0.42987,0.39872 0.25376,0 0.42988,-0.15532 0.42988,-0.39872 0,-0.23822 -0.17612,-0.39888 -0.42988,-0.39888 z m -13.90431,0.30558 c -0.704317,0 -1.201472,0.44546 -1.201472,1.00476 0,0.49199 0.331478,0.78193 0.678457,0.92174 l 0.440155,0.18644 c 0.29519,0.1243 0.48688,0.19169 0.48688,0.40403 0,0.20197 -0.1554,0.32629 -0.4713,0.32629 -0.27966,0 -0.590341,-0.145 -0.833745,-0.35216 l -0.435016,0.52303 c 0.341802,0.32109 0.807843,0.48673 1.248041,0.48673 0.80789,0 1.27405,-0.48673 1.27405,-1.04604 0,-0.47646 -0.25904,-0.75088 -0.66817,-0.9166 l -0.43502,-0.17615 c -0.29001,-0.11913 -0.512579,-0.19158 -0.512579,-0.39874 0,-0.19161 0.165599,-0.30559 0.429719,-0.30559 0.2693,0 0.47648,0.0984 0.69917,0.26931 l 0.38845,-0.48159 c -0.29001,-0.29001 -0.69921,-0.44546 -1.08762,-0.44546 z m -11.011372,0.0622 -1.056469,3.37656 h 0.776736 l 0.207151,-0.8026 h 1.030613 l 0.207151,0.8026 h 0.807886 l -1.056467,-3.37656 z m 29.899912,0.026 c -0.47127,0 -0.77676,0.17605 -1.10304,0.52303 l 0.41431,0.40916 c 0.16573,-0.17608 0.34692,-0.33673 0.58516,-0.33673 0.28483,0 0.46617,0.17607 0.46617,0.49715 0,0.4661 -0.59037,1.03057 -1.42935,1.82293 v 0.43502 h 2.3148 v -0.64218 h -0.66289 c -0.15536,0 -0.38314,0.0206 -0.54887,0.0414 0.53342,-0.5593 1.05133,-1.14963 1.05133,-1.70377 0,-0.63181 -0.44027,-1.04603 -1.08762,-1.04603 z m 2.83984,0 c -0.70433,0 -1.17562,0.57473 -1.17562,1.69335 0,1.11863 0.47129,1.71936 1.17562,1.71936 0.70431,0 1.17561,-0.60073 1.17561,-1.71936 0,-1.11862 -0.4713,-1.69335 -1.17561,-1.69335 z m 5.36363,0 c -0.59556,0 -1.09276,0.41945 -1.09276,1.10304 0,0.69397 0.41945,1.01505 0.97876,1.01505 0.20197,0 0.48684,-0.12951 0.65774,-0.34702 -0.0258,0.76646 -0.31077,1.02547 -0.67845,1.02547 -0.19162,0 -0.39869,-0.10886 -0.50744,-0.23315 l -0.40404,0.45573 c 0.20716,0.20715 0.52832,0.39359 0.96333,0.39359 0.68878,0 1.33091,-0.55412 1.33091,-1.7815 0,-1.15488 -0.61105,-1.63121 -1.24805,-1.63121 z m -2.72067,0.0622 c -0.23305,0.13982 -0.46099,0.23297 -0.81833,0.30029 v 0.47131 h 0.61632 v 1.9004 h -0.71478 v 0.61616 h 2.09237 v -0.61616 h -0.6163 v -2.67224 z m -9.1858,0.0362 -0.088,0.6836 -0.39359,0.0311 v 0.56445 h 0.35215 v 1.04089 c 0,0.59557 0.2486,0.99433 0.8856,0.99433 0.2486,0 0.43495,-0.0518 0.56959,-0.0931 l -0.11918,-0.55442 c -0.0673,0.0258 -0.16042,0.0518 -0.24328,0.0518 -0.20198,0 -0.33144,-0.11915 -0.33144,-0.40916 v -1.03064 h 0.61616 v -0.59559 h -0.61615 v -0.6836 z m -25.767036,0.45572 h 0.02071 c 0.08804,0.35217 0.181216,0.75101 0.274435,1.08763 l 0.07772,0.31073 h -0.720081 l 0.08286,-0.31073 c 0.09322,-0.33662 0.181296,-0.73028 0.264156,-1.08763 z m 37.688926,0.0156 c 0.23305,0 0.44542,0.16572 0.51275,0.6836 -0.12949,0.23305 -0.32112,0.3263 -0.49203,0.3263 -0.24858,0 -0.43501,-0.12947 -0.43501,-0.47645 0,-0.37288 0.19161,-0.53345 0.41429,-0.53345 z m -5.37905,0.0206 c 0.25893,0 0.45572,0.20193 0.45572,1.10303 0,0.89595 -0.19679,1.12906 -0.45572,1.12906 -0.25376,0 -0.45574,-0.23311 -0.45574,-1.12906 0,-0.9011 0.20198,-1.10303 0.45574,-1.10303 z m -29.498237,0.12942 c -0.590384,0 -0.983887,0.32631 -0.983887,0.80275 0,0.42467 0.357293,0.63707 0.668021,0.75619 0.264121,0.10357 0.523172,0.18126 0.523172,0.35215 0,0.13465 -0.09843,0.21743 -0.3263,0.21743 -0.217511,0 -0.429835,-0.0932 -0.662882,-0.26929 l -0.341876,0.47645 c 0.25894,0.21232 0.647419,0.35729 0.984043,0.35729 0.688781,0 1.056467,-0.36251 1.056467,-0.82861 0,-0.47128 -0.367766,-0.65248 -0.694032,-0.7716 -0.264119,-0.0984 -0.492021,-0.16057 -0.492021,-0.32629 0,-0.12947 0.09851,-0.20186 0.295307,-0.20186 0.176078,0 0.357332,0.0828 0.538591,0.21743 l 0.34172,-0.45573 c -0.21751,-0.16572 -0.512732,-0.32631 -0.906323,-0.32631 z m 3.893185,0 c -0.403948,0 -0.771634,0.13996 -1.097898,0.33676 l 0.274591,0.50229 c 0.248585,-0.14502 0.460791,-0.233 0.678301,-0.233 0.279656,0 0.388488,0.145 0.404021,0.37286 -1.015045,0.10357 -1.444914,0.39872 -1.444914,0.93732 0,0.43502 0.295184,0.77674 0.766457,0.77674 0.290012,0 0.528232,-0.13454 0.745742,-0.32614 h 0.02071 l 0.05186,0.26399 h 0.621451 v -1.47077 c 0,-0.78718 -0.362622,-1.16005 -1.020331,-1.16005 z m 9.992902,0 c -0.33662,0 -0.56456,0.18127 -0.77689,0.39359 h -0.0207 l -0.0518,-0.33146 h -0.62145 v 2.56866 h 0.76132 v -1.73476 c 0.16054,-0.16572 0.31072,-0.24859 0.435,-0.24859 0.21752,0 0.31588,0.11386 0.31588,0.48673 v 1.49662 h 0.76131 v -1.73476 c 0.16572,-0.16572 0.31069,-0.24859 0.44015,-0.24859 0.21752,0 0.31587,0.11386 0.31587,0.48673 v 1.49662 h 0.76132 v -1.59506 c 0,-0.64217 -0.24862,-1.03574 -0.80275,-1.03574 -0.3418,0 -0.58002,0.19681 -0.80789,0.42986 -0.12947,-0.27447 -0.34692,-0.42986 -0.70944,-0.42986 z m 4.44051,0 c -0.33664,0 -0.56456,0.18127 -0.7769,0.39359 h -0.0206 l -0.0518,-0.33146 h -0.62146 l -1.6e-4,2.56866 h 0.76133 v -1.73476 c 0.16054,-0.16572 0.31071,-0.24859 0.43501,-0.24859 0.21751,0 0.31602,0.11386 0.31602,0.48673 v 1.49662 h 0.761 v -1.73476 c 0.16573,-0.16572 0.31084,-0.24859 0.44032,-0.24859 0.2175,0 0.31586,0.11386 0.31586,0.48673 v 1.49662 h 0.76131 v -1.59506 c 0,-0.64217 -0.2486,-1.03574 -0.80273,-1.03574 -0.3418,0 -0.58002,0.19681 -0.80789,0.42986 -0.12947,-0.27447 -0.34694,-0.42986 -0.70946,-0.42986 z m -16.926376,0.0622 v 2.56866 h 0.761316 v -2.56866 z m 8.045696,0 v 1.59505 c 0,0.64217 0.23829,1.03576 0.79761,1.03576 0.35215,0 0.59037,-0.16051 0.80788,-0.41945 h 0.0156 l 0.0571,0.3573 h 0.62145 v -2.56866 h -0.76132 v 1.69863 c -0.15018,0.20198 -0.26411,0.28486 -0.45573,0.28486 -0.22269,0 -0.32115,-0.11902 -0.32115,-0.48671 v -1.49678 z m 11.85025,0 v 2.56866 h 0.76132 v -2.56866 z m -17.14396,1.37249 v 0.45043 c -0.134646,0.13464 -0.248538,0.21758 -0.41944,0.21758 -0.181258,0 -0.295307,-0.0777 -0.295307,-0.24344 0,-0.19678 0.176153,-0.35207 0.714747,-0.42457 z m 4.12307,3.17968 c -0.15086,0 -0.25387,0.0957 -0.25387,0.23923 0,0.14719 0.10301,0.24281 0.25387,0.24281 0.15086,0 0.25388,-0.0956 0.25388,-0.24281 0,-0.14351 -0.10302,-0.23923 -0.25388,-0.23923 z m -1.212372,0.007 v 2.13411 c 0,0.31278 0.110397,0.50791 0.412122,0.50791 0.0994,0 0.17308,-0.0149 0.22459,-0.0369 l -0.0553,-0.31634 c -0.0331,0.007 -0.0478,0.007 -0.0662,0.007 -0.0442,0 -0.0921,-0.0369 -0.0921,-0.13987 v -2.15624 z m 11.146562,0 v 2.5978 h 0.33487 l 0.0367,-0.19126 h 0.0111 c 0.15086,0.15085 0.32753,0.23548 0.49311,0.23548 0.40107,0 0.77268,-0.35689 0.77268,-0.97874 0,-0.55561 -0.26122,-0.91629 -0.71381,-0.91629 -0.18398,0 -0.37169,0.092 -0.52254,0.22443 l 0.0111,-0.30168 v -0.66974 z m -6.46683,0.14719 c -0.62553,0 -1.05958,0.45997 -1.05958,1.23636 0,0.78007 0.43405,1.25847 1.05958,1.25847 0.6292,0 1.06348,-0.4784 1.06348,-1.25847 0,-0.77639 -0.43428,-1.23636 -1.06348,-1.23636 z m -8.739258,0.0442 v 2.40637 h 0.831561 c 0.529859,0 0.923611,-0.22448 0.923611,-0.70649 0,-0.3238 -0.195006,-0.51149 -0.459935,-0.57036 v -0.0147 c 0.209734,-0.0736 0.334866,-0.29441 0.334866,-0.52254 0,-0.44155 -0.364256,-0.59233 -0.860998,-0.59233 z m 25.139188,0.0221 c -0.47834,0 -0.91987,0.37518 -0.91987,1.28403 0,0.78743 0.38999,1.14447 0.84994,1.14447 0.40107,0 0.73593,-0.3018 0.73593,-0.76911 0,-0.48939 -0.27963,-0.72487 -0.68437,-0.72487 -0.16926,0 -0.37161,0.10306 -0.50777,0.27599 0.0184,-0.6476 0.25748,-0.86473 0.55184,-0.86473 0.13982,0 0.28701,0.0736 0.37163,0.17662 l 0.22818,-0.25762 c -0.13983,-0.14718 -0.34218,-0.26478 -0.62551,-0.26478 z m -3.81188,0.0441 -0.0699,1.15537 0.20248,0.1288 c 0.13981,-0.092 0.22435,-0.13254 0.3752,-0.13254 0.25758,0 0.43066,0.15833 0.43066,0.43797 0,0.28334 -0.19137,0.44888 -0.45262,0.44888 -0.23549,0 -0.40842,-0.11767 -0.54825,-0.25014 l -0.19499,0.27226 c 0.17293,0.17293 0.41939,0.32381 0.79838,0.32381 0.43051,0 0.82424,-0.2944 0.82424,-0.80586 0,-0.5041 -0.33486,-0.73219 -0.73593,-0.73219 -0.12142,0 -0.20965,0.0294 -0.30901,0.0772 l 0.0478,-0.56662 h 0.88312 v -0.35699 z m -9.2766,0.0405 -0.0514,0.49312 -0.27972,0.0184 v 0.31634 h 0.25761 v 0.86099 c 0,0.39004 0.15447,0.6551 0.57394,0.6551 0.14351,0 0.2687,-0.0333 0.36805,-0.0664 l -0.0737,-0.31275 c -0.0515,0.0222 -0.12513,0.0405 -0.18768,0.0405 -0.17295,0 -0.25388,-0.10292 -0.25388,-0.31634 v -0.86115 h 0.45994 v -0.33471 h -0.45994 v -0.49312 z m -3.31145,0.2207 c 0.37899,0 0.62192,0.32752 0.62192,0.86474 0,0.54089 -0.24293,0.88685 -0.62192,0.88685 -0.379,0 -0.62177,-0.34596 -0.62177,-0.88685 0,-0.53722 0.24277,-0.86474 0.62177,-0.86474 z m -8.312497,0.004 h 0.312906 c 0.312762,0 0.470839,0.0883 0.470839,0.32381 0,0.20605 -0.143476,0.33846 -0.478315,0.33846 h -0.30543 z m 2.453098,0.22444 c -0.287007,0 -0.544552,0.11039 -0.74325,0.23551 l 0.154507,0.2833 c 0.161902,-0.0957 0.331132,-0.17663 0.507752,-0.17663 0.246528,0 0.323773,0.16192 0.331128,0.35325 -0.74327,0.0809 -1.063319,0.28339 -1.063319,0.66974 0,0.31644 0.217006,0.52987 0.533452,0.52987 0.213414,0 0.397403,-0.10683 0.559306,-0.24297 h 0.01479 l 0.02944,0.19873 h 0.349507 v -1.07079 c 0,-0.50411 -0.224409,-0.78001 -0.673317,-0.78001 z m 8.154889,0 c -0.48204,0 -0.90524,0.34586 -0.90524,0.94932 0,0.59976 0.37899,0.94572 0.87206,0.94572 0.20605,0 0.41948,-0.0737 0.58873,-0.22086 l -0.17264,-0.2792 c -0.10303,0.0847 -0.2318,0.15452 -0.37163,0.15452 -0.28332,0 -0.48205,-0.2392 -0.48205,-0.59979 0,-0.36429 0.20244,-0.60339 0.49312,-0.60339 0.11407,0 0.20603,0.0478 0.30168,0.13238 l 0.20608,-0.276 c -0.13248,-0.11405 -0.29807,-0.20232 -0.52988,-0.20232 z m 2.89153,0 c -0.44891,0 -0.85742,0.34586 -0.85742,0.94932 0,0.59976 0.40851,0.94572 0.85742,0.94572 0.45259,0 0.86099,-0.34596 0.86099,-0.94572 0,-0.60346 -0.4084,-0.94932 -0.86099,-0.94932 z m 4.06342,0 c -0.42315,0 -0.83157,0.36059 -0.83157,0.94932 0,0.59608 0.39002,0.94572 0.89044,0.94572 0.22814,0 0.44524,-0.0809 0.61818,-0.195 l -0.14345,-0.26494 c -0.13246,0.0847 -0.26505,0.13239 -0.41959,0.13239 -0.2907,0 -0.49665,-0.18389 -0.53346,-0.50401 h 1.14806 c 0.0111,-0.0442 0.0184,-0.12512 0.0184,-0.20607 0,-0.5041 -0.2576,-0.85741 -0.74698,-0.85741 z m 2.05983,0 c -0.19134,0 -0.38271,0.12881 -0.5115,0.3643 h -0.0147 l -0.0295,-0.32006 h -0.34951 v 1.80656 h 0.42302 v -1.10381 c 0.11039,-0.27229 0.28342,-0.37163 0.42691,-0.37163 0.0773,0 0.12514,0.0111 0.18769,0.0295 l 0.0735,-0.36803 c -0.0552,-0.0257 -0.11407,-0.0367 -0.20606,-0.0367 z m -14.99101,0.0442 v 1.80657 h 0.42318 v -1.80657 z m 12.94223,0.28332 c 0.24653,0 0.3679,0.16923 0.3679,0.44889 h -0.80213 c 0.0368,-0.2907 0.22082,-0.44889 0.43423,-0.44889 z m -4.07447,0.0184 c 0.26492,0 0.42676,0.23911 0.42676,0.60339 0,0.36059 -0.16184,0.5998 -0.42676,0.5998 -0.26494,0 -0.42319,-0.23921 -0.42319,-0.5998 0,-0.36428 0.15825,-0.60339 0.42319,-0.60339 z m 2.10032,0.004 c 0.27229,0 0.39015,0.21352 0.39015,0.57412 0,0.40842 -0.184,0.62176 -0.42318,0.62176 -0.10671,0 -0.23551,-0.0404 -0.3643,-0.15076 v -0.84263 c 0.13983,-0.13614 0.26486,-0.20249 0.39733,-0.20249 z m 9.01696,0.36074 c 0.23181,0 0.3679,0.13973 0.3679,0.4157 0,0.287 -0.1545,0.44529 -0.34952,0.44529 -0.22812,0 -0.39382,-0.17668 -0.43797,-0.59248 0.13247,-0.19501 0.28713,-0.26851 0.41959,-0.26851 z m -24.616797,0.0479 h 0.360721 c 0.360601,0 0.551832,0.11041 0.551832,0.3643 0,0.2686 -0.198592,0.39732 -0.551832,0.39732 H 96.00371 Z m 22.599337,0.0111 v 0.30901 h 0.8758 v -0.30901 z m -19.896102,0.19127 v 0.4048 c -0.136141,0.12511 -0.246555,0.19858 -0.393741,0.19858 -0.150862,0 -0.261196,-0.0698 -0.261196,-0.23176 0,-0.18029 0.161878,-0.30906 0.654937,-0.37162 z m 3.145422,0.36057 c -0.15455,0 -0.28332,0.10313 -0.28332,0.26135 0,0.16557 0.12876,0.26119 0.27226,0.26119 h 0.0332 c 0.005,0.18398 -0.13245,0.35331 -0.37163,0.4453 l 0.0918,0.23208 c 0.36428,-0.12511 0.57395,-0.40477 0.57395,-0.76537 0,-0.27228 -0.11779,-0.43423 -0.31649,-0.43423 z"
       id="path3005" />
  </g>
</svg>
