<?xml version="1.0" encoding="utf-8"?>
<!-- Generator: Adobe Illustrator 22.0.0, SVG Export Plug-In . SVG Version: 6.00 Build 0)  -->
<svg version="1.1" id="Layer_1" xmlns="http://www.w3.org/2000/svg" xmlns:xlink="http://www.w3.org/1999/xlink" x="0px" y="0px"
	 viewBox="0 0 1280 600" style="enable-background:new 0 0 1280 600;" xml:space="preserve">
<style type="text/css">
	.st0{fill:#F38630;}
	.st1{fill:url(#SVGID_1_);}
	.st2{fill:url(#SVGID_2_);}
	.st3{fill:url(#SVGID_3_);}
	.st4{fill:url(#SVGID_4_);}
	.st5{fill:url(#SVGID_5_);}
	.st6{fill:url(#SVGID_6_);}
	.st7{fill:url(#SVGID_7_);}
	.st8{fill:url(#SVGID_8_);}
	.st9{fill:url(#SVGID_9_);}
	.st10{fill:url(#SVGID_10_);}
	.st11{fill:url(#SVGID_11_);}
	.st12{fill:url(#SVGID_12_);}
	.st13{fill-rule:evenodd;clip-rule:evenodd;fill:url(#XMLID_2_);}
	.st14{fill-rule:evenodd;clip-rule:evenodd;fill:url(#XMLID_3_);}
	.st15{fill-rule:evenodd;clip-rule:evenodd;fill:url(#XMLID_4_);}
	.st16{fill-rule:evenodd;clip-rule:evenodd;fill:url(#XMLID_5_);}
	.st17{fill-rule:evenodd;clip-rule:evenodd;fill:url(#XMLID_6_);}
	.st18{fill:#00AEEF;}
	.st19{fill:#FA6900;}
</style>
<g>
	<g>
		<path class="st0" d="M369.4,226.4c5.3,0,10.2,1.1,14.8,3.2c4.6,2.2,8.6,5.1,12.1,9c3.4,3.8,6.1,8.3,8.1,13.3c2,5.1,3,10.6,3,16.4
			c0,5.7-1,11.1-3,16.2c-2,5.1-4.7,9.5-8.1,13.3c-3.4,3.8-7.5,6.8-12.1,9.1c-4.6,2.2-9.6,3.3-14.8,3.3c-4.7,0-9.2-1.1-13.5-3.2
			c-4.3-2.2-8.2-5.1-11.6-8.8c-3.4-3.7-6.3-7.9-8.5-12.8c-2.2-4.8-3.6-9.9-4-15.3v-86.2l16.1,13v37.4c2.7-3.2,5.9-5.3,9.3-6.4
			C360.6,226.9,364.7,226.4,369.4,226.4z M369.2,291c6.5,0.1,11.8-1.9,15.9-6.1c4.1-4.2,6.2-9.6,6.2-16.2c0-3.7-0.6-7.1-1.7-10.3
			c-1.1-3.2-2.7-5.9-4.6-8.2c-1.9-2.3-4.3-4.1-6.9-5.4c-2.7-1.3-5.6-2-8.7-2c-1.8,0-3.7,0.4-5.6,1.2c-1.9,0.8-3.8,1.7-5.7,2.8
			l-10.3-12.2v32.6c0,7.2,1.9,13,5.7,17.3C357.2,288.7,362.4,290.9,369.2,291z"/>
		<path class="st0" d="M453.6,226.4c5.1,0,10,1.1,14.6,3.2c4.6,2.2,8.6,5.1,12,9s6.1,8.3,8.1,13.3c2,5.1,3,10.5,3,16.2
			c0,5.7-1,11.1-3,16.2c-2,5.1-4.7,9.5-8.1,13.3s-7.4,6.8-12,9.1c-4.6,2.2-9.4,3.3-14.6,3.3c-4.2,0-8.2-0.7-11.9-2.2
			c-3.7-1.5-7.1-3.5-10.2-6.2c-3.1-2.7-5.8-5.8-8.1-9.3c-2.3-3.6-4.2-7.4-5.6-11.6h15.6c1.9,4.2,4.8,7.4,8.7,9.6
			c3.8,2.2,8.1,3.3,12.9,3.3c6.6,0,11.8-2.4,15.6-7.3c3.8-4.9,5.7-11,5.7-18.4c0-7.4-2.1-13.3-6.3-17.8c-4.2-4.5-9.6-6.8-16.2-6.8
			c-4.6,0-8.5,1.1-11.6,3.3c-3.2,2.2-5.7,5.1-7.5,8.7c-1.8,3.6-2.8,7.6-3,12c-0.2,4.5,0.3,8.9,1.7,13.3L415.9,264
			c0.5-5.2,1.8-10.1,4-14.7c2.2-4.6,5.1-8.5,8.5-11.9c3.4-3.4,7.3-6,11.6-8C444.4,227.4,448.9,226.4,453.6,226.4z"/>
		<path class="st0" d="M576.3,314.3c0,3.9-0.5,7.9-1.5,11.8c-1,3.9-2.4,7.7-4.3,11.2c-1.9,3.5-4.2,6.7-6.9,9.6
			c-2.7,2.9-5.9,5.3-9.4,7.2l-11.3-12.8c2.3-1,4.5-2.3,6.6-3.9c2.1-1.6,4-3.4,5.6-5.5c1.6-2.1,2.9-4.4,3.9-7c1-2.5,1.5-5.3,1.5-8.4
			v-2.3V300c-2.6,3.2-6.1,5.7-10.3,7.5c-4.2,1.8-8.7,2.8-13.4,2.8c-5.1,0-9.9-1.1-14.4-3.2c-4.5-2.2-8.3-5.1-11.6-9
			c-3.3-3.8-5.9-8.3-7.9-13.5c-1.9-5.2-2.9-10.9-2.9-17c0-5.6,0.9-10.9,2.8-15.9c1.9-5,4.5-9.4,7.8-13.2c3.3-3.7,7.2-6.7,11.6-8.9
			c4.4-2.2,9.2-3.2,14.3-3.2c7,0,12.8,1.1,17.5,3.3c4.7,2.2,8.5,5,11.4,8.3c2.9,3.3,5.1,6.9,6.7,10.8c1.5,3.9,2.6,7.5,3.3,10.9
			c0.6,3.4,1,6.2,1,8.4c0.1,2.2,0.1,3.4,0.1,3.5V314.3z M560.3,271.6c0.1-6.4-0.9-11.6-3-15.8c-2.1-4.2-4.8-7.3-8.1-9.4
			s-6.8-3.2-10.6-3.2c-3.8-0.1-7.4,0.9-10.8,2.8c-3.4,1.9-6.2,4.7-8.6,8.5c-2.3,3.8-3.6,8.4-3.9,14c-0.2,7.6,1.6,13.3,5.5,17.1
			c3.9,3.8,8.7,5.9,14.6,6.4c2.7,0.3,5.6-0.1,8.5-1s5.3-2.4,7.1-4.3l9.2,13.3V271.6z"/>
		<path class="st0" d="M622.5,226.4c5.1,0,10,1.1,14.6,3.2c4.6,2.2,8.6,5.1,12,9s6.1,8.3,8.1,13.3c2,5.1,3,10.5,3,16.2
			c0,5.7-1,11.1-3,16.2c-2,5.1-4.7,9.5-8.1,13.3s-7.4,6.8-12,9.1c-4.6,2.2-9.4,3.3-14.6,3.3c-4.2,0-8.2-0.7-11.9-2.2
			c-3.7-1.5-7.1-3.5-10.2-6.2c-3.1-2.7-5.8-5.8-8.1-9.3c-2.3-3.6-4.2-7.4-5.6-11.6h15.6c1.9,4.2,4.8,7.4,8.7,9.6
			c3.8,2.2,8.1,3.3,12.9,3.3c6.6,0,11.8-2.4,15.6-7.3c3.8-4.9,5.7-11,5.7-18.4c0-7.4-2.1-13.3-6.3-17.8c-4.2-4.5-9.6-6.8-16.2-6.8
			c-4.6,0-8.5,1.1-11.6,3.3c-3.2,2.2-5.7,5.1-7.5,8.7c-1.8,3.6-2.8,7.6-3,12c-0.2,4.5,0.3,8.9,1.7,13.3L584.8,264
			c0.5-5.2,1.8-10.1,4-14.7c2.2-4.6,5.1-8.5,8.5-11.9c3.4-3.4,7.3-6,11.6-8C613.3,227.4,617.8,226.4,622.5,226.4z"/>
		<path class="st0" d="M709.9,243l0.3,0.2c-0.9-1.1-1.9-1.7-2.8-1.9c-1-0.1-1.9-0.2-2.8-0.2c-2.4,0-4.7,0.5-6.9,1.5
			c-2.2,1-4.2,2.4-6,4.2c-1.8,1.8-3.4,3.8-4.6,6.1c-1.3,2.3-2.1,4.8-2.6,7.5v49.7l-15.8-14.5v-60.8v-8.4c1.8,2.2,3.2,3.7,4,4.6
			c0.9,0.9,1.5,1.6,1.9,2c0.4,0.4,0.7,0.8,1,1.1c0.3,0.3,0.9,1,1.9,2c1,1,2.4,2.5,4.2,4.4c1.8,1.9,4.5,4.7,8.1,8.4l-2.2-18.3
			c2.7-1,5.7-2,8.9-2.9c3.2-0.9,7.6-1.3,13.4-1.3V243z"/>
		<path class="st0" d="M807.2,247.2l-20.6,63.3l-20.7-58.7l-20.7,58.7l-26.7-81.6l10.6-18.5l16.8,51.9l13.2-35.9h13.2l14.4,35.9
			l11.6-35.9L807.2,247.2z"/>
		<path class="st0" d="M890.9,277.5c-2.9,10.9-7.7,19.1-14.6,24.6c-6.9,5.5-14.6,8.2-23.1,8.2c-5.1,0-10-1.1-14.6-3.3
			c-4.6-2.2-8.6-5.2-12-9.1c-3.4-3.8-6.1-8.3-8.1-13.3c-2-5.1-3-10.5-3-16.2c0-5.8,1-11.3,3-16.4c2-5.1,4.7-9.5,8.1-13.3
			s7.4-6.8,12-9c4.6-2.2,9.4-3.2,14.6-3.2c5.8,0,11.4,1.4,16.7,4.1c5.3,2.7,9.8,6.2,13.6,10.4L861,268.4h-29.3
			c0,7.4,1.9,13.4,5.7,18.1c3.8,4.7,9,7.1,15.7,7.2c2.7,0,5.5-0.5,8.2-1.4c2.7-1,5.3-2.5,7.6-4.6c2.3-2.1,4.3-4.7,5.9-7.9
			c1.6-3.2,2.6-7,3.1-11.4L890.9,277.5z M853.1,241.5c-3.8,0-7.3,1-10.7,2.9c-3.4,1.9-6,5-8,9.3h38.7c-1.9-4.3-4.6-7.4-7.9-9.3
			C861.9,242.4,857.9,241.5,853.1,241.5z"/>
		<path class="st0" d="M937.2,226.4c5.3,0,10.2,1.1,14.8,3.2c4.6,2.2,8.7,5.1,12.1,9s6.1,8.3,8.1,13.3c2,5.1,3,10.6,3,16.4
			c0,5.7-1,11.1-3,16.2c-2,5.1-4.7,9.5-8.1,13.3c-3.4,3.8-7.5,6.8-12.1,9.1c-4.6,2.2-9.6,3.3-14.8,3.3c-4.7,0-9.2-1.1-13.5-3.2
			c-4.3-2.2-8.2-5.1-11.6-8.8c-3.4-3.7-6.3-7.9-8.5-12.8c-2.2-4.8-3.6-9.9-4-15.3v-86.2l16.1,13v37.4c2.7-3.2,5.9-5.3,9.3-6.4
			C928.4,226.9,932.5,226.4,937.2,226.4z M937,291c6.5,0.1,11.8-1.9,15.9-6.1s6.2-9.6,6.2-16.2c0-3.7-0.6-7.1-1.7-10.3
			c-1.1-3.2-2.7-5.9-4.6-8.2c-1.9-2.3-4.3-4.1-6.9-5.4c-2.7-1.3-5.6-2-8.7-2c-1.8,0-3.7,0.4-5.6,1.2c-1.9,0.8-3.8,1.7-5.7,2.8
			l-10.3-12.2v32.6c0,7.2,1.9,13,5.7,17.3C925,288.7,930.3,290.9,937,291z"/>
		<path class="st0" d="M1047.1,235.6c2.9,3.2,5.2,7,6.9,11.4c1.8,4.5,2.7,9.9,2.7,16.2v47.1h-15.4v-47.1c-0.1-4.6-1.2-8.5-3.2-11.6
			c-2-3.2-4.5-5.6-7.6-7.2c-3-1.7-6.3-2.5-9.8-2.6c-3.5-0.1-6.9,0.7-10.1,2.4l-11.9-10.7v76.9l-15.1-14.9v-111l15.2,15.4v33.6
			c2.5-2.3,5.9-4,10.3-5.1c4.3-1.1,8.9-1.7,13.6-1.6c4.7,0.1,9.3,0.8,13.7,2.3C1041,230.4,1044.5,232.6,1047.1,235.6z"/>
		<path class="st0" d="M1103,226.4c5.1,0,10,1.1,14.6,3.2c4.6,2.2,8.6,5.1,12,9c3.4,3.8,6.1,8.3,8.1,13.3c2,5.1,3,10.5,3,16.2
			c0,5.7-1,11.1-3,16.2c-2,5.1-4.7,9.5-8.1,13.3c-3.4,3.8-7.4,6.8-12,9.1c-4.6,2.2-9.4,3.3-14.6,3.3c-4.2,0-8.2-0.7-11.9-2.2
			c-3.7-1.5-7.1-3.5-10.2-6.2c-3.1-2.7-5.8-5.8-8.1-9.3c-2.3-3.6-4.2-7.4-5.6-11.6h15.6c1.9,4.2,4.8,7.4,8.7,9.6
			c3.8,2.2,8.1,3.3,12.9,3.3c6.6,0,11.8-2.4,15.6-7.3c3.8-4.9,5.7-11,5.7-18.4c0-7.4-2.1-13.3-6.3-17.8c-4.2-4.5-9.6-6.8-16.2-6.8
			c-4.6,0-8.5,1.1-11.6,3.3c-3.2,2.2-5.7,5.1-7.5,8.7c-1.8,3.6-2.8,7.6-3,12c-0.2,4.5,0.3,8.9,1.7,13.3l-17.5-16.8
			c0.5-5.2,1.8-10.1,4-14.7c2.2-4.6,5.1-8.5,8.5-11.9c3.4-3.4,7.3-6,11.6-8C1093.8,227.4,1098.3,226.4,1103,226.4z"/>
		<path class="st0" d="M1177.6,260.1c6.9,2.4,11.8,5.8,14.6,10.3c2.9,4.4,4.3,9.3,4.3,14.6c0,8.4-2.6,14.6-7.7,18.8
			c-5.2,4.2-12.1,6.3-20.8,6.3c-2.9,0-5.7-0.2-8.4-0.5c-2.8-0.3-5.6-1.6-8.4-3.7v-14.7c2.9,1,5.7,2.3,8.4,3.8
			c2.7,1.5,5.5,2.3,8.4,2.3c3.9,0,7.1-0.9,9.7-2.8c2.6-1.8,3.9-4.4,3.9-7.5c0-3.2-1.1-5.6-3.2-7.2c-2.1-1.6-5.6-3.5-10.4-5.6
			c-6.5-3.1-11.2-6.3-14.2-9.7c-3-3.4-4.5-7.8-4.5-13.2c0-3.7,0.7-7.1,2-10.1c1.3-3.1,3.1-5.7,5.5-7.9c2.3-2.2,5.1-3.9,8.3-5.1
			c3.2-1.2,6.7-1.8,10.4-1.8c1.9,0,4.2,0.1,6.8,0.2c2.6,0.1,4.7,0.7,6.4,1.7l-9.1,12.8c-1.4,0-2.9,0-4.7,0c-1.8,0-3.4,0.2-5,0.7
			c-1.5,0.4-2.9,1.2-3.9,2.4c-1.1,1.1-1.6,2.9-1.6,5.3c0,2.2,1,4.1,3,5.7C1169.3,256.8,1172.7,258.5,1177.6,260.1z"/>
		<path class="st0" d="M1249.1,226.4v15.4h-12.8v48.4l-15.9,20v-66.4v-2.1l-15.4-15.4h15.4v-42.3h15.9v42.3H1249.1z"/>
	</g>
	<g>
		<linearGradient id="SVGID_1_" gradientUnits="userSpaceOnUse" x1="790.3821" y1="184.062" x2="790.3821" y2="354.1709">
			<stop  offset="0" style="stop-color:#FF5AC2"/>
			<stop  offset="1" style="stop-color:#0055F1"/>
		</linearGradient>
		<path class="st1" d="M369.4,226.4c5.3,0,10.2,1.1,14.8,3.2c4.6,2.2,8.6,5.1,12.1,9c3.4,3.8,6.1,8.3,8.1,13.3c2,5.1,3,10.6,3,16.4
			c0,5.7-1,11.1-3,16.2c-2,5.1-4.7,9.5-8.1,13.3c-3.4,3.8-7.5,6.8-12.1,9.1c-4.6,2.2-9.6,3.3-14.8,3.3c-4.7,0-9.2-1.1-13.5-3.2
			c-4.3-2.2-8.2-5.1-11.6-8.8c-3.4-3.7-6.3-7.9-8.5-12.8c-2.2-4.8-3.6-9.9-4-15.3v-86.2l16.1,13v37.4c2.7-3.2,5.9-5.3,9.3-6.4
			C360.6,226.9,364.7,226.4,369.4,226.4z M369.2,291c6.5,0.1,11.8-1.9,15.9-6.1c4.1-4.2,6.2-9.6,6.2-16.2c0-3.7-0.6-7.1-1.7-10.3
			c-1.1-3.2-2.7-5.9-4.6-8.2c-1.9-2.3-4.3-4.1-6.9-5.4c-2.7-1.3-5.6-2-8.7-2c-1.8,0-3.7,0.4-5.6,1.2c-1.9,0.8-3.8,1.7-5.7,2.8
			l-10.3-12.2v32.6c0,7.2,1.9,13,5.7,17.3C357.2,288.7,362.4,290.9,369.2,291z"/>
		<linearGradient id="SVGID_2_" gradientUnits="userSpaceOnUse" x1="790.3821" y1="184.062" x2="790.3821" y2="354.1709">
			<stop  offset="0" style="stop-color:#FF5AC2"/>
			<stop  offset="1" style="stop-color:#0055F1"/>
		</linearGradient>
		<path class="st2" d="M453.6,226.4c5.1,0,10,1.1,14.6,3.2c4.6,2.2,8.6,5.1,12,9s6.1,8.3,8.1,13.3c2,5.1,3,10.5,3,16.2
			c0,5.7-1,11.1-3,16.2c-2,5.1-4.7,9.5-8.1,13.3s-7.4,6.8-12,9.1c-4.6,2.2-9.4,3.3-14.6,3.3c-4.2,0-8.2-0.7-11.9-2.2
			c-3.7-1.5-7.1-3.5-10.2-6.2c-3.1-2.7-5.8-5.8-8.1-9.3c-2.3-3.6-4.2-7.4-5.6-11.6h15.6c1.9,4.2,4.8,7.4,8.7,9.6
			c3.8,2.2,8.1,3.3,12.9,3.3c6.6,0,11.8-2.4,15.6-7.3c3.8-4.9,5.7-11,5.7-18.4c0-7.4-2.1-13.3-6.3-17.8c-4.2-4.5-9.6-6.8-16.2-6.8
			c-4.6,0-8.5,1.1-11.6,3.3c-3.2,2.2-5.7,5.1-7.5,8.7c-1.8,3.6-2.8,7.6-3,12c-0.2,4.5,0.3,8.9,1.7,13.3L415.9,264
			c0.5-5.2,1.8-10.1,4-14.7c2.2-4.6,5.1-8.5,8.5-11.9c3.4-3.4,7.3-6,11.6-8C444.4,227.4,448.9,226.4,453.6,226.4z"/>
		<linearGradient id="SVGID_3_" gradientUnits="userSpaceOnUse" x1="790.3821" y1="184.062" x2="790.3821" y2="354.1709">
			<stop  offset="0" style="stop-color:#FF5AC2"/>
			<stop  offset="1" style="stop-color:#0055F1"/>
		</linearGradient>
		<path class="st3" d="M576.3,314.3c0,3.9-0.5,7.9-1.5,11.8c-1,3.9-2.4,7.7-4.3,11.2c-1.9,3.5-4.2,6.7-6.9,9.6
			c-2.7,2.9-5.9,5.3-9.4,7.2l-11.3-12.8c2.3-1,4.5-2.3,6.6-3.9c2.1-1.6,4-3.4,5.6-5.5c1.6-2.1,2.9-4.4,3.9-7c1-2.5,1.5-5.3,1.5-8.4
			v-2.3V300c-2.6,3.2-6.1,5.7-10.3,7.5c-4.2,1.8-8.7,2.8-13.4,2.8c-5.1,0-9.9-1.1-14.4-3.2c-4.5-2.2-8.3-5.1-11.6-9
			c-3.3-3.8-5.9-8.3-7.9-13.5c-1.9-5.2-2.9-10.9-2.9-17c0-5.6,0.9-10.9,2.8-15.9c1.9-5,4.5-9.4,7.8-13.2c3.3-3.7,7.2-6.7,11.6-8.9
			c4.4-2.2,9.2-3.2,14.3-3.2c7,0,12.8,1.1,17.5,3.3c4.7,2.2,8.5,5,11.4,8.3c2.9,3.3,5.1,6.9,6.7,10.8c1.5,3.9,2.6,7.5,3.3,10.9
			c0.6,3.4,1,6.2,1,8.4c0.1,2.2,0.1,3.4,0.1,3.5V314.3z M560.3,271.6c0.1-6.4-0.9-11.6-3-15.8c-2.1-4.2-4.8-7.3-8.1-9.4
			s-6.8-3.2-10.6-3.2c-3.8-0.1-7.4,0.9-10.8,2.8c-3.4,1.9-6.2,4.7-8.6,8.5c-2.3,3.8-3.6,8.4-3.9,14c-0.2,7.6,1.6,13.3,5.5,17.1
			c3.9,3.8,8.7,5.9,14.6,6.4c2.7,0.3,5.6-0.1,8.5-1s5.3-2.4,7.1-4.3l9.2,13.3V271.6z"/>
		<linearGradient id="SVGID_4_" gradientUnits="userSpaceOnUse" x1="790.3821" y1="184.062" x2="790.3821" y2="354.1709">
			<stop  offset="0" style="stop-color:#FF5AC2"/>
			<stop  offset="1" style="stop-color:#0055F1"/>
		</linearGradient>
		<path class="st4" d="M622.5,226.4c5.1,0,10,1.1,14.6,3.2c4.6,2.2,8.6,5.1,12,9s6.1,8.3,8.1,13.3c2,5.1,3,10.5,3,16.2
			c0,5.7-1,11.1-3,16.2c-2,5.1-4.7,9.5-8.1,13.3s-7.4,6.8-12,9.1c-4.6,2.2-9.4,3.3-14.6,3.3c-4.2,0-8.2-0.7-11.9-2.2
			c-3.7-1.5-7.1-3.5-10.2-6.2c-3.1-2.7-5.8-5.8-8.1-9.3c-2.3-3.6-4.2-7.4-5.6-11.6h15.6c1.9,4.2,4.8,7.4,8.7,9.6
			c3.8,2.2,8.1,3.3,12.9,3.3c6.6,0,11.8-2.4,15.6-7.3c3.8-4.9,5.7-11,5.7-18.4c0-7.4-2.1-13.3-6.3-17.8c-4.2-4.5-9.6-6.8-16.2-6.8
			c-4.6,0-8.5,1.1-11.6,3.3c-3.2,2.2-5.7,5.1-7.5,8.7c-1.8,3.6-2.8,7.6-3,12c-0.2,4.5,0.3,8.9,1.7,13.3L584.8,264
			c0.5-5.2,1.8-10.1,4-14.7c2.2-4.6,5.1-8.5,8.5-11.9c3.4-3.4,7.3-6,11.6-8C613.3,227.4,617.8,226.4,622.5,226.4z"/>
		<linearGradient id="SVGID_5_" gradientUnits="userSpaceOnUse" x1="790.3821" y1="184.062" x2="790.3821" y2="354.1709">
			<stop  offset="0" style="stop-color:#FF5AC2"/>
			<stop  offset="1" style="stop-color:#0055F1"/>
		</linearGradient>
		<path class="st5" d="M709.9,243l0.3,0.2c-0.9-1.1-1.9-1.7-2.8-1.9c-1-0.1-1.9-0.2-2.8-0.2c-2.4,0-4.7,0.5-6.9,1.5
			c-2.2,1-4.2,2.4-6,4.2c-1.8,1.8-3.4,3.8-4.6,6.1c-1.3,2.3-2.1,4.8-2.6,7.5v49.7l-15.8-14.5v-60.8v-8.4c1.8,2.2,3.2,3.7,4,4.6
			c0.9,0.9,1.5,1.6,1.9,2c0.4,0.4,0.7,0.8,1,1.1c0.3,0.3,0.9,1,1.9,2c1,1,2.4,2.5,4.2,4.4c1.8,1.9,4.5,4.7,8.1,8.4l-2.2-18.3
			c2.7-1,5.7-2,8.9-2.9c3.2-0.9,7.6-1.3,13.4-1.3V243z"/>
		<linearGradient id="SVGID_6_" gradientUnits="userSpaceOnUse" x1="790.3821" y1="184.062" x2="790.3821" y2="354.1709">
			<stop  offset="0" style="stop-color:#FF5AC2"/>
			<stop  offset="1" style="stop-color:#0055F1"/>
		</linearGradient>
		<path class="st6" d="M807.2,247.2l-20.6,63.3l-20.7-58.7l-20.7,58.7l-26.7-81.6l10.6-18.5l16.8,51.9l13.2-35.9h13.2l14.4,35.9
			l11.6-35.9L807.2,247.2z"/>
		<linearGradient id="SVGID_7_" gradientUnits="userSpaceOnUse" x1="790.3821" y1="184.062" x2="790.3821" y2="354.1709">
			<stop  offset="0" style="stop-color:#FF5AC2"/>
			<stop  offset="1" style="stop-color:#0055F1"/>
		</linearGradient>
		<path class="st7" d="M890.9,277.5c-2.9,10.9-7.7,19.1-14.6,24.6c-6.9,5.5-14.6,8.2-23.1,8.2c-5.1,0-10-1.1-14.6-3.3
			c-4.6-2.2-8.6-5.2-12-9.1c-3.4-3.8-6.1-8.3-8.1-13.3c-2-5.1-3-10.5-3-16.2c0-5.8,1-11.3,3-16.4c2-5.1,4.7-9.5,8.1-13.3
			s7.4-6.8,12-9c4.6-2.2,9.4-3.2,14.6-3.2c5.8,0,11.4,1.4,16.7,4.1c5.3,2.7,9.8,6.2,13.6,10.4L861,268.4h-29.3
			c0,7.4,1.9,13.4,5.7,18.1c3.8,4.7,9,7.1,15.7,7.2c2.7,0,5.5-0.5,8.2-1.4c2.7-1,5.3-2.5,7.6-4.6c2.3-2.1,4.3-4.7,5.9-7.9
			c1.6-3.2,2.6-7,3.1-11.4L890.9,277.5z M853.1,241.5c-3.8,0-7.3,1-10.7,2.9c-3.4,1.9-6,5-8,9.3h38.7c-1.9-4.3-4.6-7.4-7.9-9.3
			C861.9,242.4,857.9,241.5,853.1,241.5z"/>
		<linearGradient id="SVGID_8_" gradientUnits="userSpaceOnUse" x1="790.3821" y1="184.062" x2="790.3821" y2="354.1709">
			<stop  offset="0" style="stop-color:#FF5AC2"/>
			<stop  offset="1" style="stop-color:#0055F1"/>
		</linearGradient>
		<path class="st8" d="M937.2,226.4c5.3,0,10.2,1.1,14.8,3.2c4.6,2.2,8.7,5.1,12.1,9s6.1,8.3,8.1,13.3c2,5.1,3,10.6,3,16.4
			c0,5.7-1,11.1-3,16.2c-2,5.1-4.7,9.5-8.1,13.3c-3.4,3.8-7.5,6.8-12.1,9.1c-4.6,2.2-9.6,3.3-14.8,3.3c-4.7,0-9.2-1.1-13.5-3.2
			c-4.3-2.2-8.2-5.1-11.6-8.8c-3.4-3.7-6.3-7.9-8.5-12.8c-2.2-4.8-3.6-9.9-4-15.3v-86.2l16.1,13v37.4c2.7-3.2,5.9-5.3,9.3-6.4
			C928.4,226.9,932.5,226.4,937.2,226.4z M937,291c6.5,0.1,11.8-1.9,15.9-6.1s6.2-9.6,6.2-16.2c0-3.7-0.6-7.1-1.7-10.3
			c-1.1-3.2-2.7-5.9-4.6-8.2c-1.9-2.3-4.3-4.1-6.9-5.4c-2.7-1.3-5.6-2-8.7-2c-1.8,0-3.7,0.4-5.6,1.2c-1.9,0.8-3.8,1.7-5.7,2.8
			l-10.3-12.2v32.6c0,7.2,1.9,13,5.7,17.3C925,288.7,930.3,290.9,937,291z"/>
		<linearGradient id="SVGID_9_" gradientUnits="userSpaceOnUse" x1="790.3821" y1="184.062" x2="790.3821" y2="354.1709">
			<stop  offset="0" style="stop-color:#FF5AC2"/>
			<stop  offset="1" style="stop-color:#0055F1"/>
		</linearGradient>
		<path class="st9" d="M1047.1,235.6c2.9,3.2,5.2,7,6.9,11.4c1.8,4.5,2.7,9.9,2.7,16.2v47.1h-15.4v-47.1c-0.1-4.6-1.2-8.5-3.2-11.6
			c-2-3.2-4.5-5.6-7.6-7.2c-3-1.7-6.3-2.5-9.8-2.6c-3.5-0.1-6.9,0.7-10.1,2.4l-11.9-10.7v76.9l-15.1-14.9v-111l15.2,15.4v33.6
			c2.5-2.3,5.9-4,10.3-5.1c4.3-1.1,8.9-1.7,13.6-1.6c4.7,0.1,9.3,0.8,13.7,2.3C1041,230.4,1044.5,232.6,1047.1,235.6z"/>
		<linearGradient id="SVGID_10_" gradientUnits="userSpaceOnUse" x1="790.3821" y1="184.062" x2="790.3821" y2="354.1709">
			<stop  offset="0" style="stop-color:#FF5AC2"/>
			<stop  offset="1" style="stop-color:#0055F1"/>
		</linearGradient>
		<path class="st10" d="M1103,226.4c5.1,0,10,1.1,14.6,3.2c4.6,2.2,8.6,5.1,12,9c3.4,3.8,6.1,8.3,8.1,13.3c2,5.1,3,10.5,3,16.2
			c0,5.7-1,11.1-3,16.2c-2,5.1-4.7,9.5-8.1,13.3c-3.4,3.8-7.4,6.8-12,9.1c-4.6,2.2-9.4,3.3-14.6,3.3c-4.2,0-8.2-0.7-11.9-2.2
			c-3.7-1.5-7.1-3.5-10.2-6.2c-3.1-2.7-5.8-5.8-8.1-9.3c-2.3-3.6-4.2-7.4-5.6-11.6h15.6c1.9,4.2,4.8,7.4,8.7,9.6
			c3.8,2.2,8.1,3.3,12.9,3.3c6.6,0,11.8-2.4,15.6-7.3c3.8-4.9,5.7-11,5.7-18.4c0-7.4-2.1-13.3-6.3-17.8c-4.2-4.5-9.6-6.8-16.2-6.8
			c-4.6,0-8.5,1.1-11.6,3.3c-3.2,2.2-5.7,5.1-7.5,8.7c-1.8,3.6-2.8,7.6-3,12c-0.2,4.5,0.3,8.9,1.7,13.3l-17.5-16.8
			c0.5-5.2,1.8-10.1,4-14.7c2.2-4.6,5.1-8.5,8.5-11.9c3.4-3.4,7.3-6,11.6-8C1093.8,227.4,1098.3,226.4,1103,226.4z"/>
		<linearGradient id="SVGID_11_" gradientUnits="userSpaceOnUse" x1="790.3821" y1="184.062" x2="790.3821" y2="354.1709">
			<stop  offset="0" style="stop-color:#FF5AC2"/>
			<stop  offset="1" style="stop-color:#0055F1"/>
		</linearGradient>
		<path class="st11" d="M1177.6,260.1c6.9,2.4,11.8,5.8,14.6,10.3c2.9,4.4,4.3,9.3,4.3,14.6c0,8.4-2.6,14.6-7.7,18.8
			c-5.2,4.2-12.1,6.3-20.8,6.3c-2.9,0-5.7-0.2-8.4-0.5c-2.8-0.3-5.6-1.6-8.4-3.7v-14.7c2.9,1,5.7,2.3,8.4,3.8
			c2.7,1.5,5.5,2.3,8.4,2.3c3.9,0,7.1-0.9,9.7-2.8c2.6-1.8,3.9-4.4,3.9-7.5c0-3.2-1.1-5.6-3.2-7.2c-2.1-1.6-5.6-3.5-10.4-5.6
			c-6.5-3.1-11.2-6.3-14.2-9.7c-3-3.4-4.5-7.8-4.5-13.2c0-3.7,0.7-7.1,2-10.1c1.3-3.1,3.1-5.7,5.5-7.9c2.3-2.2,5.1-3.9,8.3-5.1
			c3.2-1.2,6.7-1.8,10.4-1.8c1.9,0,4.2,0.1,6.8,0.2c2.6,0.1,4.7,0.7,6.4,1.7l-9.1,12.8c-1.4,0-2.9,0-4.7,0c-1.8,0-3.4,0.2-5,0.7
			c-1.5,0.4-2.9,1.2-3.9,2.4c-1.1,1.1-1.6,2.9-1.6,5.3c0,2.2,1,4.1,3,5.7C1169.3,256.8,1172.7,258.5,1177.6,260.1z"/>
		<linearGradient id="SVGID_12_" gradientUnits="userSpaceOnUse" x1="790.3821" y1="184.062" x2="790.3821" y2="354.1709">
			<stop  offset="0" style="stop-color:#FF5AC2"/>
			<stop  offset="1" style="stop-color:#0055F1"/>
		</linearGradient>
		<path class="st12" d="M1249.1,226.4v15.4h-12.8v48.4l-15.9,20v-66.4v-2.1l-15.4-15.4h15.4v-42.3h15.9v42.3H1249.1z"/>
	</g>
</g>
<g>
	
		<linearGradient id="XMLID_2_" gradientUnits="userSpaceOnUse" x1="32.9451" y1="304.9035" x2="300.9217" y2="304.9035" gradientTransform="matrix(1 0 0 1 -0.1363 3.1208)">
		<stop  offset="0" style="stop-color:#FF5AC2"/>
		<stop  offset="1" style="stop-color:#0055F1"/>
	</linearGradient>
	<path id="XMLID_269_" class="st13" d="M39.7,327.7c-16-48.3-3.5-99,28.4-134.4c-13,29.7-15.5,64.1-4.5,97.3
		c24,72.4,102.8,111.9,176.1,88.2c24.4-7.9,45.1-21.7,61-39.4c-15.3,35.1-45.2,63.8-84.9,76.6C142.6,439.6,63.7,400.1,39.7,327.7z"
		/>
	
		<linearGradient id="XMLID_3_" gradientUnits="userSpaceOnUse" x1="89.4244" y1="284.1899" x2="310.8188" y2="284.1899" gradientTransform="matrix(1 0 0 1 -0.1363 3.1208)">
		<stop  offset="0" style="stop-color:#FF5AC2"/>
		<stop  offset="1" style="stop-color:#0055F1"/>
	</linearGradient>
	<path id="XMLID_268_" class="st14" d="M165.5,366.7c-39.5-12-67.4-43.6-76.2-80.6c13.8,22.2,35.4,39.7,62.6,47.9
		c59.2,18,122-14.8,140.2-73.2c6.1-19.4,6.4-39.3,2-57.8c16.2,26.2,21.4,58.8,11.6,90.4C287.5,351.9,224.7,384.7,165.5,366.7z"/>
	
		<linearGradient id="XMLID_4_" gradientUnits="userSpaceOnUse" x1="161.2015" y1="232.4938" x2="281.3819" y2="232.4938" gradientTransform="matrix(1 0 0 1 -0.1363 3.1208)">
		<stop  offset="0" style="stop-color:#54D9A5"/>
		<stop  offset="1" style="stop-color:#3659F4"/>
	</linearGradient>
	<path id="XMLID_267_" class="st15" d="M250.6,303.2c-25.2,22.3-59.5,28.3-89.5,18.7c21.6-0.2,43.2-7.8,60.6-23.1
		c37.8-33.4,41.1-90.7,7.2-128.1c-11.3-12.4-25.2-21.1-40.2-25.8c25.5-0.2,50.9,10,69.2,30.2C291.7,212.5,288.4,269.8,250.6,303.2z"
		/>
	
		<linearGradient id="XMLID_5_" gradientUnits="userSpaceOnUse" x1="84.1575" y1="220.9083" x2="234.8779" y2="220.9083" gradientTransform="matrix(1 0 0 1 -0.1363 3.1208)">
		<stop  offset="0" style="stop-color:#54D9A5"/>
		<stop  offset="1" style="stop-color:#3659F4"/>
	</linearGradient>
	<path id="XMLID_266_" class="st16" d="M234.3,223.5c3.1,30.1-10.6,58-33.6,74.6c11.3-15.7,17.1-35.3,15-56
		c-4.7-45-45.5-77.8-91.2-73.1c-15.2,1.6-29,7.1-40.5,15.4c13.4-18.5,34.4-31.5,59.1-34C188.8,145.7,229.6,178.4,234.3,223.5z"/>
	
		<linearGradient id="XMLID_6_" gradientUnits="userSpaceOnUse" x1="65.3306" y1="219.9957" x2="192.4235" y2="219.9957" gradientTransform="matrix(1 0 0 1 -0.1363 3.1208)">
		<stop  offset="0" style="stop-color:#54D9A5"/>
		<stop  offset="1" style="stop-color:#3659F4"/>
	</linearGradient>
	<path id="XMLID_265_" class="st17" d="M156.2,185.4c21.2,9.9,34.2,29.9,36.1,51.4c-5.9-13.6-16.6-25.2-31.2-32
		c-31.8-14.9-69.7-1.6-84.8,29.8c-5,10.4-6.9,21.5-5.9,32.3c-6.9-16-7.2-34.8,1-51.7C86.4,183.9,124.4,170.5,156.2,185.4z"/>
</g>
<g>
	<path class="st18" d="M339.2,388.2c0.3-1.9,0.9-3.6,1.9-5.2c1-1.5,2.2-2.8,3.7-3.9s3-1.8,4.8-2.2c1.8-0.4,3.6-0.5,5.5-0.2
		c1,0.2,1.9,0.4,2.7,0.8c0.8,0.4,1.6,0.8,2.4,1.2v-13.7c0-0.4,0.1-0.7,0.4-1c0.2-0.3,0.5-0.4,0.9-0.4h4c0.4,0,0.8,0.1,1.1,0.4
		c0.3,0.3,0.4,0.6,0.4,1v37.8c0,0.4-0.1,0.7-0.4,1c-0.3,0.3-0.6,0.4-1.1,0.4h-4c-0.3,0-0.6-0.1-0.9-0.4c-0.3-0.3-0.4-0.6-0.4-1
		v-13.6c0-0.7-0.2-1.4-0.5-2.1c-0.3-0.7-0.8-1.3-1.3-1.8c-0.6-0.5-1.2-1-2-1.4c-0.7-0.4-1.6-0.6-2.4-0.7c-1-0.2-2-0.1-3,0.1
		c-1,0.3-1.9,0.6-2.6,1.2c-0.8,0.5-1.4,1.2-1.9,2.1s-0.9,1.8-1,2.8c-0.2,1-0.1,2,0.1,3c0.2,1,0.6,1.8,1.2,2.6c0.6,0.8,1.2,1.5,2.1,2
		c0.8,0.5,1.7,0.9,2.7,1c0.5,0.1,1.1,0.1,1.6,0.1c0.5,0,1-0.1,1.5-0.3c0.3-0.2,0.7-0.1,1,0.1c0.3,0.2,0.5,0.5,0.7,0.9l1.3,3.9
		c0.1,0.4,0.1,0.6,0,0.8c-0.1,0.1-0.2,0.2-0.3,0.3c-1.1,0.3-2.2,0.5-3.3,0.6c-1.1,0.2-2.3,0.1-3.4-0.1c-1.9-0.3-3.6-1-5.2-2
		c-1.5-1-2.8-2.2-3.9-3.7s-1.8-3.1-2.2-4.9C338.9,392,338.8,390.1,339.2,388.2z"/>
	<path class="st18" d="M382.1,366.7c1,0,1.4,0.5,1.4,1.5v4.1c0,0.3-0.1,0.7-0.4,0.9s-0.6,0.4-1,0.4h-4c-0.3,0-0.7-0.1-0.9-0.4
		s-0.4-0.6-0.4-0.9v-4.1c0-0.4,0.1-0.8,0.4-1s0.6-0.4,0.9-0.4H382.1z M382.1,376.7c0.4,0,0.8,0.2,1,0.5s0.4,0.7,0.4,1.1v24.5
		c0,0.4-0.1,0.7-0.4,1c-0.3,0.3-0.6,0.4-1,0.4h-4c-0.3,0-0.7-0.1-0.9-0.4c-0.3-0.3-0.4-0.6-0.4-1v-24.5c0-0.4,0.1-0.8,0.4-1.1
		s0.6-0.5,0.9-0.5H382.1z"/>
	<path class="st18" d="M416.1,406.4c0,1.7-0.3,3.3-0.9,4.8c-0.6,1.5-1.4,2.9-2.5,4.1s-2.5,2.1-4.1,2.8c-1.6,0.7-3.6,1.1-5.8,1.1
		c-2.9,0-5.3-0.6-7.3-1.9c-2-1.3-3.5-2.9-4.5-5c-0.1-0.1-0.1-0.2-0.1-0.3c0-0.1,0.1-0.2,0.3-0.3l0.5-0.2c0.3-0.1,0.7-0.2,1.3-0.4
		s1.4-0.5,2.5-0.9c0.4-0.1,0.7,0,0.9,0.2c0.6,0.7,1.4,1.4,2.4,2c1,0.6,2.4,0.9,4.1,0.9c1.3,0,2.5-0.2,3.4-0.7
		c0.9-0.5,1.7-1.1,2.2-1.8s0.9-1.6,1.2-2.5c0.2-0.9,0.3-1.8,0.3-2.7c0-2.6,0-4.9,0.1-7c0-0.9,0-1.8,0-2.6s0-1.6,0.1-2.3s0-1.3,0-1.7
		s0-0.7,0-0.8c0-2-0.5-3.6-1.6-5c-1.1-1.4-2.3-2.3-3.8-2.8c-1.5-0.5-3.1-0.5-4.7,0c-1.6,0.5-3.1,1.7-4.3,3.5
		c-0.8,1.4-1.1,2.9-0.9,4.4s0.7,2.8,1.6,3.9c0.9,1.1,2,2,3.4,2.5c1.4,0.5,2.9,0.6,4.5,0.1c0.3-0.1,0.6,0,0.9,0.1s0.5,0.4,0.7,0.7
		l1.5,4.2c0.2,0.5,0,0.8-0.6,1c-2,0.5-3.9,0.7-5.7,0.5c-1.8-0.2-3.5-0.8-5.1-1.6c-1.5-0.8-2.9-2-4-3.3c-1.2-1.4-2-2.9-2.6-4.5
		c-0.6-1.7-0.8-3.4-0.7-5.3c0.1-1.9,0.6-3.8,1.6-5.7c0.8-1.7,1.9-3.1,3.4-4.3c1.5-1.2,3-2,4.7-2.6c1.7-0.5,3.5-0.7,5.2-0.5
		c1.8,0.2,3.4,0.9,4.9,2.1c0.2,0.3,0.4,0.4,0.7,0.3c0.3-0.1,0.4-0.3,0.4-0.7c0-0.4,0.1-0.7,0.4-1c0.3-0.3,0.6-0.5,1.1-0.5h3.9
		c0.4,0,0.6,0.2,0.7,0.5c0.1,0.3,0.1,0.7,0.1,1V406.4z"/>
	<path class="st18" d="M429.2,366.7c1,0,1.4,0.5,1.4,1.5v4.1c0,0.3-0.1,0.7-0.4,0.9s-0.6,0.4-1,0.4h-4c-0.3,0-0.7-0.1-0.9-0.4
		s-0.4-0.6-0.4-0.9v-4.1c0-0.4,0.1-0.8,0.4-1s0.6-0.4,0.9-0.4H429.2z M429.2,376.7c0.4,0,0.8,0.2,1,0.5s0.4,0.7,0.4,1.1v24.5
		c0,0.4-0.1,0.7-0.4,1c-0.3,0.3-0.6,0.4-1,0.4h-4c-0.3,0-0.7-0.1-0.9-0.4c-0.3-0.3-0.4-0.6-0.4-1v-24.5c0-0.4,0.1-0.8,0.4-1.1
		s0.6-0.5,0.9-0.5H429.2z"/>
	<path class="st18" d="M456.3,401.1c0.1,0.2,0.1,0.3,0,0.5c-0.1,0.1-0.2,0.2-0.4,0.3c-0.1,0-0.3,0.2-0.8,0.5c-0.4,0.3-1,0.6-1.8,0.9
		c-0.7,0.3-1.6,0.6-2.7,0.8s-2.2,0.4-3.5,0.3c-2.3-0.1-4-0.7-5.2-1.9c-1.2-1.2-1.8-2.9-1.8-5.3v-13.2c0-0.4-0.2-0.6-0.6-0.6h-3.3
		c-0.3,0-0.6-0.1-0.9-0.4c-0.3-0.3-0.4-0.6-0.4-1v-3.7c0-0.4,0.1-0.8,0.4-1c0.3-0.3,0.6-0.4,0.9-0.4h3.3c0.4,0,0.6-0.2,0.6-0.6v-8
		c0-0.4,0.1-0.7,0.4-1s0.6-0.4,0.9-0.4h3.9c0.5,0,0.8,0.1,1.1,0.4c0.2,0.3,0.4,0.6,0.4,1v8c0,0.4,0.2,0.6,0.7,0.6h6.4
		c0.4,0,0.7,0.1,1,0.4c0.3,0.3,0.4,0.6,0.4,1v3.7c0,0.4-0.1,0.8-0.4,1c-0.3,0.3-0.6,0.4-1,0.4h-6.3c-0.2,0-0.3,0.1-0.5,0.2
		s-0.2,0.3-0.2,0.5l0.1,11.9c0,1.2,0.3,1.9,0.8,2.3c0.5,0.4,1.2,0.5,1.8,0.3c0.8-0.2,1.5-0.4,2.2-0.8c0.6-0.3,1.1-0.6,1.5-0.8
		c0.4-0.2,0.7-0.3,1.1-0.2c0.3,0,0.6,0.2,0.6,0.5L456.3,401.1z"/>
	<path class="st18" d="M486.3,402.7c0,0.4-0.1,0.8-0.4,1c-0.3,0.3-0.6,0.4-1.1,0.4H481c-0.4,0-0.8-0.1-1.1-0.4
		c-0.3-0.3-0.4-0.6-0.4-1v-5.6c0-0.7,0-1.4,0-2.1c0-0.7,0-1.3,0-1.9c0-0.6,0-1,0-1.4s0-0.5,0-0.6c0-1.8-0.3-3.3-1-4.4
		c-0.7-1.2-1.7-2.1-2.9-2.8c-0.9-0.5-1.9-0.8-2.9-0.9c-1-0.1-2,0-2.9,0.3c-0.9,0.3-1.8,0.7-2.6,1.3c-0.8,0.6-1.4,1.3-1.9,2.2
		c-0.8,1.3-1,2.7-0.8,4.2c0.2,1.5,0.7,2.8,1.6,4c0.8,1.2,1.9,2.1,3.3,2.7c1.4,0.6,2.8,0.7,4.4,0.2c0.4-0.1,0.7-0.1,1,0.1
		c0.3,0.2,0.5,0.4,0.7,0.7l1.6,4.3c0.1,0.3,0,0.5-0.4,0.7c-2.1,0.7-4.1,0.9-6,0.8c-1.9-0.2-3.7-0.7-5.3-1.6c-1.6-0.8-3-2-4.1-3.4
		c-1.2-1.4-2-2.9-2.6-4.6c-0.6-1.7-0.8-3.5-0.7-5.4s0.7-3.8,1.6-5.7c0.8-1.6,2-3,3.5-4.2s3-2,4.8-2.5c1.7-0.5,3.5-0.7,5.3-0.5
		c1.8,0.2,3.5,0.8,5,1.9c0.3,0.3,0.5,0.4,0.8,0.3c0.2-0.1,0.4-0.3,0.4-0.8c0-0.4,0.1-0.7,0.4-1c0.3-0.3,0.6-0.5,1-0.5h4.1
		c0.4,0,0.8,0.2,1.1,0.5c0.3,0.3,0.4,0.7,0.4,1V402.7z"/>
	<path class="st18" d="M499.9,364c0.3,0.3,0.4,0.7,0.4,1.1v37.7c0,0.4-0.1,0.7-0.4,1c-0.3,0.3-0.6,0.4-1,0.4h-4
		c-0.3,0-0.7-0.1-0.9-0.4c-0.3-0.3-0.4-0.6-0.4-1v-37.7c0-0.4,0.1-0.8,0.4-1.1c0.3-0.3,0.6-0.5,0.9-0.5h4
		C499.3,363.5,499.6,363.7,499.9,364z"/>
	<path class="st18" d="M552.3,401.5c0.2,0.3,0.3,0.6,0.1,0.9c-0.1,0.3-0.4,0.5-0.7,0.7c-0.8,0.4-1.7,0.7-2.7,1s-2.2,0.4-3.6,0.4
		c-1.7,0-3.3-0.4-4.9-1.1c-1.6-0.7-3-1.7-4.1-3s-2.1-2.7-2.8-4.4c-0.7-1.7-1.1-3.5-1.1-5.5v-0.1v-0.1c0-1.9,0.4-3.8,1.1-5.5
		c0.7-1.7,1.7-3.2,2.8-4.4c1.2-1.3,2.6-2.3,4.1-3c1.6-0.7,3.2-1.1,4.9-1.1c2.1,0,4.3,0.5,6.3,1.5c0.2,0.2,0.4,0.3,0.5,0.5
		c0.2,0.2,0.2,0.4,0.1,0.8l-2.1,3.8c-0.2,0.3-0.5,0.5-0.8,0.7c-0.3,0.1-0.6,0.1-0.9-0.1c-0.9-0.4-2-0.6-3.2-0.6
		c-0.9,0-1.8,0.2-2.6,0.6c-0.8,0.4-1.5,0.9-2.1,1.6c-0.6,0.7-1.1,1.5-1.4,2.4s-0.5,1.9-0.5,2.9s0.2,2,0.5,3s0.8,1.7,1.4,2.4
		c0.6,0.7,1.3,1.2,2.1,1.6c0.8,0.4,1.7,0.6,2.6,0.6c1.2,0,2.2-0.2,3.2-0.6c0.3-0.2,0.6-0.2,0.9-0.1c0.3,0.1,0.6,0.4,0.8,0.7
		L552.3,401.5z"/>
	<path class="st18" d="M559.2,377.6c0-0.2,0.1-0.4,0.3-0.6c0.2-0.2,0.4-0.2,0.5-0.2h2.9c0.5,0,0.8,0.2,0.8,0.6l0.1,1
		c0,0.3,0.1,0.5,0.1,0.8c0,0.3,0,0.4,0,0.4c0.1,0.3,0.2,0.4,0.5,0.2c0.2-0.3,0.5-0.7,0.9-1.2c0.4-0.4,0.9-0.8,1.4-1.2
		c0.6-0.4,1.2-0.7,1.8-0.9c0.7-0.2,1.4-0.3,2.2-0.3c0.5,0,1,0,1.6,0.1c0.6,0.1,1.1,0.2,1.5,0.4s0.8,0.4,1,0.6
		c0.2,0.3,0.3,0.5,0.1,0.8l-2.1,3.8c-0.2,0.4-0.7,0.5-1.4,0.2c-1-0.3-1.8-0.3-2.6-0.1c-0.7,0.3-1.4,0.7-1.9,1.3
		c-0.5,0.6-0.9,1.3-1.1,2c-0.3,0.8-0.4,1.5-0.4,2.3v15.5c0,0.5-0.4,0.8-1.1,0.8H560c-0.2,0-0.4-0.1-0.5-0.3
		c-0.2-0.2-0.3-0.4-0.3-0.6V377.6z"/>
	<path class="st18" d="M590.6,376.7c1.8,0,3.6,0.3,5.3,1c1.7,0.7,3.1,1.7,4.3,3c1.2,1.3,2.2,2.9,2.8,4.8c0.7,1.9,1,4.2,0.9,6.7
		c0,0.4-0.1,0.7-0.2,0.8s-0.4,0.2-0.7,0.2c-3.3,0-6.3,0.1-9,0.1h-10.3c0,0-0.1,0-0.1,0.1v0.1c0,0.2,0.2,0.6,0.4,1.1
		c0.2,0.5,0.6,1.1,1.2,1.7c0.5,0.6,1.2,1.2,2.1,1.7c0.9,0.5,2,0.9,3.3,1c1.1,0.2,2.2,0.2,3.1,0c0.9-0.2,1.7-0.4,2.4-0.7
		c0.7-0.3,1.3-0.6,1.8-1c0.5-0.4,0.9-0.8,1.3-1.2c0.2-0.2,0.3-0.2,0.5-0.1l3.1,2.7c0.2,0.2,0.2,0.3,0.2,0.4c0,0.2,0,0.3-0.1,0.3
		c-0.3,0.3-0.8,0.8-1.4,1.5c-0.6,0.6-1.5,1.2-2.5,1.8c-1,0.6-2.2,1.1-3.7,1.5c-1.4,0.4-3,0.6-4.9,0.6c-1.8,0-3.6-0.4-5.3-1.2
		s-3.1-1.8-4.3-3s-2.2-2.7-2.9-4.4c-0.7-1.7-1.1-3.5-1.1-5.4s0.4-3.8,1.1-5.5c0.7-1.7,1.7-3.2,2.9-4.4c1.2-1.3,2.7-2.3,4.3-3
		C587,377,588.8,376.7,590.6,376.7z M597.8,387.6c0,0,0.1-0.1,0.1-0.2c-0.2-0.5-0.5-1-0.8-1.6c-0.3-0.6-0.8-1.2-1.3-1.7
		c-0.6-0.5-1.2-1-2.1-1.3c-0.8-0.4-1.8-0.6-3-0.6c-1.2,0-2.2,0.2-3,0.7c-0.8,0.4-1.5,1-2,1.5s-0.9,1.2-1.1,1.7
		c-0.3,0.6-0.4,1-0.5,1.2v0.2c0,0,0.1,0.1,0.1,0.1h13.5C597.8,387.7,597.8,387.7,597.8,387.6z"/>
	<path class="st18" d="M634.9,402.7c0,0.4-0.1,0.8-0.4,1c-0.3,0.3-0.6,0.4-1.1,0.4h-3.8c-0.4,0-0.8-0.1-1.1-0.4
		c-0.3-0.3-0.4-0.6-0.4-1v-5.6c0-0.7,0-1.4,0-2.1c0-0.7,0-1.3,0-1.9c0-0.6,0-1,0-1.4s0-0.5,0-0.6c0-1.8-0.3-3.3-1-4.4
		c-0.7-1.2-1.7-2.1-2.9-2.8c-0.9-0.5-1.9-0.8-2.9-0.9c-1-0.1-2,0-2.9,0.3c-0.9,0.3-1.8,0.7-2.6,1.3c-0.8,0.6-1.4,1.3-1.9,2.2
		c-0.8,1.3-1,2.7-0.8,4.2c0.2,1.5,0.7,2.8,1.6,4c0.8,1.2,1.9,2.1,3.3,2.7c1.4,0.6,2.8,0.7,4.4,0.2c0.4-0.1,0.7-0.1,1,0.1
		c0.3,0.2,0.5,0.4,0.7,0.7l1.6,4.3c0.1,0.3,0,0.5-0.4,0.7c-2.1,0.7-4.1,0.9-6,0.8c-1.9-0.2-3.7-0.7-5.3-1.6c-1.6-0.8-3-2-4.1-3.4
		c-1.2-1.4-2-2.9-2.6-4.6c-0.6-1.7-0.8-3.5-0.7-5.4s0.7-3.8,1.6-5.7c0.8-1.6,2-3,3.5-4.2s3-2,4.8-2.5c1.7-0.5,3.5-0.7,5.3-0.5
		c1.8,0.2,3.5,0.8,5,1.9c0.3,0.3,0.5,0.4,0.8,0.3c0.2-0.1,0.4-0.3,0.4-0.8c0-0.4,0.1-0.7,0.4-1c0.3-0.3,0.6-0.5,1-0.5h4.1
		c0.4,0,0.8,0.2,1.1,0.5c0.3,0.3,0.4,0.7,0.4,1V402.7z"/>
	<path class="st18" d="M659.9,401.1c0.1,0.2,0.1,0.3,0,0.5c-0.1,0.1-0.2,0.2-0.4,0.3c-0.1,0-0.3,0.2-0.8,0.5c-0.4,0.3-1,0.6-1.8,0.9
		c-0.7,0.3-1.6,0.6-2.7,0.8s-2.2,0.4-3.5,0.3c-2.3-0.1-4-0.7-5.2-1.9c-1.2-1.2-1.8-2.9-1.8-5.3v-13.2c0-0.4-0.2-0.6-0.6-0.6h-3.3
		c-0.3,0-0.6-0.1-0.9-0.4c-0.3-0.3-0.4-0.6-0.4-1v-3.7c0-0.4,0.1-0.8,0.4-1c0.3-0.3,0.6-0.4,0.9-0.4h3.3c0.4,0,0.6-0.2,0.6-0.6v-8
		c0-0.4,0.1-0.7,0.4-1s0.6-0.4,0.9-0.4h3.9c0.5,0,0.8,0.1,1.1,0.4c0.2,0.3,0.4,0.6,0.4,1v8c0,0.4,0.2,0.6,0.7,0.6h6.4
		c0.4,0,0.7,0.1,1,0.4c0.3,0.3,0.4,0.6,0.4,1v3.7c0,0.4-0.1,0.8-0.4,1c-0.3,0.3-0.6,0.4-1,0.4h-6.3c-0.2,0-0.3,0.1-0.5,0.2
		s-0.2,0.3-0.2,0.5l0.1,11.9c0,1.2,0.3,1.9,0.8,2.3c0.5,0.4,1.2,0.5,1.8,0.3c0.8-0.2,1.5-0.4,2.2-0.8c0.6-0.3,1.1-0.6,1.5-0.8
		c0.4-0.2,0.7-0.3,1.1-0.2c0.3,0,0.6,0.2,0.6,0.5L659.9,401.1z"/>
	<path class="st18" d="M670.7,366.7c1,0,1.4,0.5,1.4,1.5v4.1c0,0.3-0.1,0.7-0.4,0.9s-0.6,0.4-1,0.4h-4c-0.3,0-0.7-0.1-0.9-0.4
		s-0.4-0.6-0.4-0.9v-4.1c0-0.4,0.1-0.8,0.4-1s0.6-0.4,0.9-0.4H670.7z M670.7,376.7c0.4,0,0.8,0.2,1,0.5s0.4,0.7,0.4,1.1v24.5
		c0,0.4-0.1,0.7-0.4,1c-0.3,0.3-0.6,0.4-1,0.4h-4c-0.3,0-0.7-0.1-0.9-0.4c-0.3-0.3-0.4-0.6-0.4-1v-24.5c0-0.4,0.1-0.8,0.4-1.1
		s0.6-0.5,0.9-0.5H670.7z"/>
	<path class="st18" d="M704,377.2c0.2,0.3,0.2,0.7,0,1l-10.6,25c-0.2,0.6-0.6,0.9-1.3,0.9h-3.3c-0.3,0-0.6-0.1-0.9-0.2
		c-0.3-0.1-0.5-0.4-0.5-0.7l-10.2-25.1c-0.1-0.3-0.1-0.6,0.1-1c0.2-0.3,0.5-0.5,0.9-0.5h4c0.7,0,1.2,0.4,1.6,1.1l6.3,15.1
		c0.2,0.4,0.4,0.4,0.6,0l6.2-15.1c0.1-0.3,0.3-0.6,0.7-0.8c0.3-0.2,0.7-0.3,1.1-0.3h4.5C703.5,376.7,703.8,376.9,704,377.2z"/>
	<path class="st18" d="M717.7,376.7c1.8,0,3.6,0.3,5.3,1c1.7,0.7,3.1,1.7,4.3,3c1.2,1.3,2.2,2.9,2.8,4.8c0.7,1.9,1,4.2,0.9,6.7
		c0,0.4-0.1,0.7-0.2,0.8s-0.4,0.2-0.7,0.2c-3.3,0-6.3,0.1-9,0.1h-10.3c0,0-0.1,0-0.1,0.1v0.1c0,0.2,0.2,0.6,0.4,1.1
		c0.2,0.5,0.6,1.1,1.2,1.7c0.5,0.6,1.2,1.2,2.1,1.7c0.9,0.5,2,0.9,3.3,1c1.1,0.2,2.2,0.2,3.1,0c0.9-0.2,1.7-0.4,2.4-0.7
		c0.7-0.3,1.3-0.6,1.8-1c0.5-0.4,0.9-0.8,1.3-1.2c0.2-0.2,0.3-0.2,0.5-0.1l3.1,2.7c0.2,0.2,0.2,0.3,0.2,0.4c0,0.2,0,0.3-0.1,0.3
		c-0.3,0.3-0.8,0.8-1.4,1.5c-0.6,0.6-1.5,1.2-2.5,1.8c-1,0.6-2.2,1.1-3.7,1.5c-1.4,0.4-3,0.6-4.9,0.6c-1.8,0-3.6-0.4-5.3-1.2
		s-3.1-1.8-4.3-3s-2.2-2.7-2.9-4.4c-0.7-1.7-1.1-3.5-1.1-5.4s0.4-3.8,1.1-5.5c0.7-1.7,1.7-3.2,2.9-4.4c1.2-1.3,2.7-2.3,4.3-3
		C714.1,377,715.8,376.7,717.7,376.7z M724.9,387.6c0,0,0.1-0.1,0.1-0.2c-0.2-0.5-0.5-1-0.8-1.6c-0.3-0.6-0.8-1.2-1.3-1.7
		c-0.6-0.5-1.2-1-2.1-1.3c-0.8-0.4-1.8-0.6-3-0.6c-1.2,0-2.2,0.2-3,0.7c-0.8,0.4-1.5,1-2,1.5s-0.9,1.2-1.1,1.7
		c-0.3,0.6-0.4,1-0.5,1.2v0.2c0,0,0.1,0.1,0.1,0.1h13.5C724.8,387.7,724.9,387.7,724.9,387.6z"/>
	<path class="st18" d="M760.6,353.2c0-0.2,0.1-0.4,0.3-0.6c0.2-0.2,0.4-0.2,0.5-0.2h0.7c0.5,0,0.8,0.3,0.8,0.8v60.8
		c0,0.2-0.1,0.4-0.3,0.6c-0.2,0.2-0.4,0.3-0.6,0.3h-0.7c-0.2,0-0.4-0.1-0.5-0.3c-0.2-0.2-0.3-0.4-0.3-0.6V353.2z"/>
	<path class="st19" d="M815.7,406.4c0,1.7-0.3,3.3-0.9,4.8c-0.6,1.5-1.4,2.9-2.5,4.1s-2.5,2.1-4.1,2.8c-1.6,0.7-3.6,1.1-5.8,1.1
		c-2.9,0-5.3-0.6-7.3-1.9c-2-1.3-3.5-2.9-4.5-5c-0.1-0.1-0.1-0.2-0.1-0.3c0-0.1,0.1-0.2,0.3-0.3l0.5-0.2c0.3-0.1,0.7-0.2,1.3-0.4
		s1.4-0.5,2.5-0.9c0.4-0.1,0.7,0,0.9,0.2c0.6,0.7,1.4,1.4,2.4,2c1,0.6,2.4,0.9,4.1,0.9c1.3,0,2.5-0.2,3.4-0.7
		c0.9-0.5,1.7-1.1,2.2-1.8s0.9-1.6,1.2-2.5c0.2-0.9,0.3-1.8,0.3-2.7c0-2.6,0-4.9,0.1-7c0-0.9,0-1.8,0-2.6s0-1.6,0.1-2.3s0-1.3,0-1.7
		s0-0.7,0-0.8c0-2-0.5-3.6-1.6-5c-1.1-1.4-2.3-2.3-3.8-2.8c-1.5-0.5-3.1-0.5-4.7,0c-1.6,0.5-3.1,1.7-4.3,3.5
		c-0.8,1.4-1.1,2.9-0.9,4.4s0.7,2.8,1.6,3.9c0.9,1.1,2,2,3.4,2.5c1.4,0.5,2.9,0.6,4.5,0.1c0.3-0.1,0.6,0,0.9,0.1s0.5,0.4,0.7,0.7
		l1.5,4.2c0.2,0.5,0,0.8-0.6,1c-2,0.5-3.9,0.7-5.7,0.5c-1.8-0.2-3.5-0.8-5.1-1.6c-1.5-0.8-2.9-2-4-3.3c-1.2-1.4-2-2.9-2.6-4.5
		c-0.6-1.7-0.8-3.4-0.7-5.3c0.1-1.9,0.6-3.8,1.6-5.7c0.8-1.7,1.9-3.1,3.4-4.3c1.5-1.2,3-2,4.7-2.6c1.7-0.5,3.5-0.7,5.2-0.5
		c1.8,0.2,3.4,0.9,4.9,2.1c0.2,0.3,0.4,0.4,0.7,0.3c0.3-0.1,0.4-0.3,0.4-0.7c0-0.4,0.1-0.7,0.4-1c0.3-0.3,0.6-0.5,1.1-0.5h3.9
		c0.4,0,0.6,0.2,0.7,0.5c0.1,0.3,0.1,0.7,0.1,1V406.4z"/>
	<path class="st19" d="M844.2,381.8c1,1.2,1.7,2.6,2.2,4.1c0.5,1.5,0.8,3,0.8,4.7c0,1.9-0.4,3.8-1.1,5.5c-0.7,1.7-1.7,3.2-3,4.4
		s-2.8,2.3-4.5,3c-1.7,0.7-3.5,1.1-5.5,1.1c-1.7,0-3.3-0.4-4.9-1.1c-1.6-0.7-3-1.7-4.1-3s-2.1-2.7-2.8-4.4c-0.7-1.7-1.1-3.5-1.1-5.5
		c0-2.7,0.6-5,1.8-7.1s2.8-3.7,4.7-4.9c1.9-1.2,4-1.8,6.4-1.9c2.3-0.1,4.6,0.4,6.9,1.7c0.4,0.2,0.5,0.4,0.3,0.8l-2.2,4
		c-0.2,0.3-0.5,0.5-0.8,0.7c-0.3,0.1-0.6,0.1-0.9-0.1c-0.9-0.4-2-0.6-3.2-0.6c-1,0-1.8,0.2-2.6,0.6c-0.8,0.4-1.5,0.9-2.1,1.6
		c-0.6,0.7-1.1,1.5-1.4,2.4c-0.3,0.9-0.5,1.9-0.5,3c0,2.2,0.6,4,1.9,5.4c1.2,1.4,2.8,2.1,4.7,2.1c1.1,0,2.1-0.2,3-0.6
		s1.8-0.9,2.4-1.6c0.7-0.7,1.2-1.5,1.6-2.4c0.4-0.9,0.6-1.9,0.6-3c0-0.7-0.1-1.4-0.3-2.1c-0.2-0.7-0.5-1.3-0.8-1.8
		c-0.3-0.7-0.2-1.2,0.4-1.7l3.5-3.1C843.9,381.7,844.1,381.7,844.2,381.8z"/>
	<path class="st19" d="M890.4,381.8c1,1.2,1.7,2.6,2.2,4.1c0.5,1.5,0.8,3,0.8,4.7c0,1.9-0.4,3.8-1.1,5.5c-0.7,1.7-1.7,3.2-3,4.4
		s-2.8,2.3-4.5,3c-1.7,0.7-3.5,1.1-5.5,1.1c-1.7,0-3.3-0.4-4.9-1.1c-1.6-0.7-3-1.7-4.1-3s-2.1-2.7-2.8-4.4c-0.7-1.7-1.1-3.5-1.1-5.5
		c0-2.7,0.6-5,1.8-7.1s2.8-3.7,4.7-4.9c1.9-1.2,4-1.8,6.4-1.9c2.3-0.1,4.6,0.4,6.9,1.7c0.4,0.2,0.5,0.4,0.3,0.8l-2.2,4
		c-0.2,0.3-0.5,0.5-0.8,0.7c-0.3,0.1-0.6,0.1-0.9-0.1c-0.9-0.4-2-0.6-3.2-0.6c-1,0-1.8,0.2-2.6,0.6c-0.8,0.4-1.5,0.9-2.1,1.6
		c-0.6,0.7-1.1,1.5-1.4,2.4c-0.3,0.9-0.5,1.9-0.5,3c0,2.2,0.6,4,1.9,5.4c1.2,1.4,2.8,2.1,4.7,2.1c1.1,0,2.1-0.2,3-0.6
		s1.8-0.9,2.4-1.6c0.7-0.7,1.2-1.5,1.6-2.4c0.4-0.9,0.6-1.9,0.6-3c0-0.7-0.1-1.4-0.3-2.1c-0.2-0.7-0.5-1.3-0.8-1.8
		c-0.3-0.7-0.2-1.2,0.4-1.7l3.5-3.1C890,381.7,890.2,381.7,890.4,381.8z"/>
	<path class="st19" d="M913.1,376.5c1.5,0,2.9,0.3,4.1,0.8c1.2,0.6,2.2,1.4,3.1,2.4c0.9,1,1.5,2.3,2,3.7c0.5,1.4,0.7,3,0.7,4.8v14.6
		c0,0.4-0.1,0.7-0.4,1c-0.3,0.3-0.6,0.4-1,0.4h-3.9c-0.4,0-0.8-0.1-1-0.4c-0.3-0.3-0.4-0.6-0.4-1V388c0-0.5-0.1-1-0.2-1.5
		c-0.2-0.6-0.4-1.1-0.7-1.6c-0.3-0.5-0.8-0.9-1.4-1.2c-0.6-0.3-1.4-0.5-2.3-0.5c-1.6,0-2.9,0.5-3.8,1.6c-0.9,1.1-1.4,2.5-1.4,4.2
		v13.8c0,0.4-0.1,0.7-0.4,1c-0.3,0.3-0.6,0.4-1.1,0.4h-3.8c-0.4,0-0.8-0.1-1.1-0.4c-0.3-0.3-0.4-0.6-0.4-1v-24.1
		c0-0.3,0.1-0.6,0.4-0.9c0.3-0.3,0.6-0.4,1.1-0.4h3.5c0.4,0,0.8,0.1,1,0.4c0.2,0.3,0.4,0.6,0.4,0.9v0.3c0,0.2,0.1,0.3,0.2,0.4
		c0.1,0.1,0.2,0.1,0.3,0.1c0.3,0.1,0.6,0,0.7-0.3c0.7-0.9,1.5-1.6,2.6-2.1C910.9,376.7,912,376.5,913.1,376.5z"/>
	<path class="st19" d="M937.5,364c0.3,0.3,0.4,0.7,0.4,1.1v37.7c0,0.4-0.1,0.7-0.4,1c-0.3,0.3-0.6,0.4-1,0.4h-4
		c-0.3,0-0.7-0.1-0.9-0.4c-0.3-0.3-0.4-0.6-0.4-1v-37.7c0-0.4,0.1-0.8,0.4-1.1c0.3-0.3,0.6-0.5,0.9-0.5h4
		C936.9,363.5,937.3,363.7,937.5,364z"/>
	<path class="st19" d="M950.8,366.7c1,0,1.4,0.5,1.4,1.5v4.1c0,0.3-0.1,0.7-0.4,0.9s-0.6,0.4-1,0.4h-4c-0.3,0-0.7-0.1-0.9-0.4
		s-0.4-0.6-0.4-0.9v-4.1c0-0.4,0.1-0.8,0.4-1s0.6-0.4,0.9-0.4H950.8z M950.8,376.7c0.4,0,0.8,0.2,1,0.5s0.4,0.7,0.4,1.1v24.5
		c0,0.4-0.1,0.7-0.4,1c-0.3,0.3-0.6,0.4-1,0.4h-4c-0.3,0-0.7-0.1-0.9-0.4c-0.3-0.3-0.4-0.6-0.4-1v-24.5c0-0.4,0.1-0.8,0.4-1.1
		s0.6-0.5,0.9-0.5H950.8z"/>
	<path class="st19" d="M975,376.5c1.5,0,2.9,0.3,4.1,0.8c1.2,0.6,2.2,1.4,3.1,2.4c0.9,1,1.5,2.3,2,3.7c0.5,1.4,0.7,3,0.7,4.8v14.6
		c0,0.4-0.1,0.7-0.4,1c-0.3,0.3-0.6,0.4-1,0.4h-3.9c-0.4,0-0.8-0.1-1-0.4c-0.3-0.3-0.4-0.6-0.4-1V388c0-0.5-0.1-1-0.2-1.5
		c-0.2-0.6-0.4-1.1-0.7-1.6c-0.3-0.5-0.8-0.9-1.4-1.2c-0.6-0.3-1.4-0.5-2.3-0.5c-1.6,0-2.9,0.5-3.8,1.6c-0.9,1.1-1.4,2.5-1.4,4.2
		v13.8c0,0.4-0.1,0.7-0.4,1c-0.3,0.3-0.6,0.4-1.1,0.4h-3.8c-0.4,0-0.8-0.1-1.1-0.4c-0.3-0.3-0.4-0.6-0.4-1v-24.1
		c0-0.3,0.1-0.6,0.4-0.9c0.3-0.3,0.6-0.4,1.1-0.4h3.5c0.4,0,0.8,0.1,1,0.4c0.2,0.3,0.4,0.6,0.4,0.9v0.3c0,0.2,0.1,0.3,0.2,0.4
		c0.1,0.1,0.2,0.1,0.3,0.1c0.3,0.1,0.6,0,0.7-0.3c0.7-0.9,1.5-1.6,2.6-2.1C972.8,376.7,973.9,376.5,975,376.5z"/>
	<path class="st19" d="M1003.4,376.7c1.8,0,3.6,0.3,5.3,1c1.7,0.7,3.1,1.7,4.3,3c1.2,1.3,2.2,2.9,2.8,4.8c0.7,1.9,1,4.2,0.9,6.7
		c0,0.4-0.1,0.7-0.2,0.8s-0.4,0.2-0.7,0.2c-3.3,0-6.3,0.1-9,0.1h-10.3c0,0-0.1,0-0.1,0.1v0.1c0,0.2,0.2,0.6,0.4,1.1
		c0.2,0.5,0.6,1.1,1.2,1.7c0.5,0.6,1.2,1.2,2.1,1.7c0.9,0.5,2,0.9,3.3,1c1.1,0.2,2.2,0.2,3.1,0c0.9-0.2,1.7-0.4,2.4-0.7
		c0.7-0.3,1.3-0.6,1.8-1c0.5-0.4,0.9-0.8,1.3-1.2c0.2-0.2,0.3-0.2,0.5-0.1l3.1,2.7c0.2,0.2,0.2,0.3,0.2,0.4c0,0.2,0,0.3-0.1,0.3
		c-0.3,0.3-0.8,0.8-1.4,1.5c-0.6,0.6-1.5,1.2-2.5,1.8c-1,0.6-2.2,1.1-3.7,1.5c-1.4,0.4-3,0.6-4.9,0.6c-1.8,0-3.6-0.4-5.3-1.2
		s-3.1-1.8-4.3-3s-2.2-2.7-2.9-4.4c-0.7-1.7-1.1-3.5-1.1-5.4s0.4-3.8,1.1-5.5c0.7-1.7,1.7-3.2,2.9-4.4c1.2-1.3,2.7-2.3,4.3-3
		C999.8,377,1001.5,376.7,1003.4,376.7z M1010.6,387.6c0,0,0.1-0.1,0.1-0.2c-0.2-0.5-0.5-1-0.8-1.6c-0.3-0.6-0.8-1.2-1.3-1.7
		c-0.6-0.5-1.2-1-2.1-1.3c-0.8-0.4-1.8-0.6-3-0.6c-1.2,0-2.2,0.2-3,0.7c-0.8,0.4-1.5,1-2,1.5s-0.9,1.2-1.1,1.7
		c-0.3,0.6-0.4,1-0.5,1.2v0.2c0,0,0.1,0.1,0.1,0.1h13.5C1010.5,387.7,1010.6,387.7,1010.6,387.6z"/>
	<path class="st19" d="M1056.1,387.2c1.6,0.3,3.1,0.6,4.5,0.9c1.4,0.3,2.6,0.8,3.6,1.5c1,0.6,1.8,1.4,2.4,2.4c0.6,1,0.9,2.2,0.9,3.6
		c0,1.3-0.3,2.5-0.8,3.6c-0.6,1.1-1.3,2-2.4,2.8c-1,0.8-2.2,1.4-3.7,1.8c-1.4,0.4-3,0.7-4.7,0.7c-1.3,0-2.5-0.2-3.7-0.5
		s-2.2-0.8-3.2-1.5c-1-0.6-1.8-1.4-2.5-2.3c-0.7-0.9-1.3-2-1.6-3.1c-0.2-0.4-0.2-0.8,0.2-1.3c0.2-0.3,0.6-0.5,1.1-0.5h4.1
		c0.5,0,0.8,0.2,1.2,0.5c0.7,1,1.4,1.6,2.3,2s1.7,0.5,2.6,0.5c1.3,0,2.4-0.2,3.3-0.6c0.8-0.4,1.2-0.9,1.2-1.7c0-0.4-0.1-0.7-0.2-1
		s-0.4-0.6-0.8-0.8c-0.4-0.2-1-0.4-1.7-0.6c-0.7-0.2-1.6-0.4-2.8-0.6c-1-0.2-2-0.4-3.2-0.7s-2.3-0.7-3.3-1.3s-1.9-1.3-2.6-2.3
		c-0.7-0.9-1-2.2-1-3.6c0-1,0.2-2.1,0.7-3.1s1.1-1.9,2-2.8c0.9-0.8,2-1.5,3.3-2c1.3-0.5,2.8-0.8,4.5-0.8c2.6,0,4.9,0.6,6.8,1.8
		c1.9,1.2,3.2,2.8,4.1,4.8c0.1,0.5,0,0.9-0.2,1.2c-0.1,0.2-0.2,0.3-0.5,0.5c-0.2,0.1-0.5,0.2-0.7,0.2h-4.1c-0.2,0-0.5-0.1-0.7-0.2
		c-0.2-0.1-0.4-0.3-0.6-0.5c-0.3-0.5-0.8-0.8-1.6-1.1c-0.8-0.3-1.6-0.5-2.5-0.5c-0.8,0-1.4,0-1.8,0.1c-0.5,0.1-0.8,0.3-1.1,0.5
		c-0.3,0.2-0.4,0.5-0.5,0.8c-0.1,0.3-0.1,0.6-0.1,0.8c0,0.7,0.3,1.1,0.8,1.4S1054.4,386.8,1056.1,387.2z"/>
	<path class="st19" d="M1095.6,381.8c1,1.2,1.7,2.6,2.2,4.1c0.5,1.5,0.8,3,0.8,4.7c0,1.9-0.4,3.8-1.1,5.5c-0.7,1.7-1.7,3.2-3,4.4
		s-2.8,2.3-4.5,3c-1.7,0.7-3.5,1.1-5.5,1.1c-1.7,0-3.3-0.4-4.9-1.1c-1.6-0.7-3-1.7-4.1-3s-2.1-2.7-2.8-4.4c-0.7-1.7-1.1-3.5-1.1-5.5
		c0-2.7,0.6-5,1.8-7.1s2.8-3.7,4.7-4.9c1.9-1.2,4-1.8,6.4-1.9c2.3-0.1,4.6,0.4,6.9,1.7c0.4,0.2,0.5,0.4,0.3,0.8l-2.2,4
		c-0.2,0.3-0.5,0.5-0.8,0.7c-0.3,0.1-0.6,0.1-0.9-0.1c-0.9-0.4-2-0.6-3.2-0.6c-1,0-1.8,0.2-2.6,0.6c-0.8,0.4-1.5,0.9-2.1,1.6
		c-0.6,0.7-1.1,1.5-1.4,2.4c-0.3,0.9-0.5,1.9-0.5,3c0,2.2,0.6,4,1.9,5.4c1.2,1.4,2.8,2.1,4.7,2.1c1.1,0,2.1-0.2,3-0.6
		s1.8-0.9,2.4-1.6c0.7-0.7,1.2-1.5,1.6-2.4c0.4-0.9,0.6-1.9,0.6-3c0-0.7-0.1-1.4-0.3-2.1c-0.2-0.7-0.5-1.3-0.8-1.8
		c-0.3-0.7-0.2-1.2,0.4-1.7l3.5-3.1C1095.2,381.7,1095.4,381.7,1095.6,381.8z"/>
	<path class="st19" d="M1109.7,364c0.3,0.3,0.4,0.7,0.4,1.1v37.7c0,0.4-0.1,0.7-0.4,1c-0.3,0.3-0.6,0.4-1,0.4h-4
		c-0.3,0-0.7-0.1-0.9-0.4c-0.3-0.3-0.4-0.6-0.4-1v-37.7c0-0.4,0.1-0.8,0.4-1.1c0.3-0.3,0.6-0.5,0.9-0.5h4
		C1109.1,363.5,1109.4,363.7,1109.7,364z"/>
	<path class="st19" d="M1128.1,404.5c-3.1,0-5.5-1-7.3-3.1s-2.7-5.1-2.7-8.9v-14.2c0-0.4,0.1-0.8,0.4-1.1c0.3-0.3,0.6-0.5,1-0.5h3.9
		c0.4,0,0.8,0.2,1,0.5c0.3,0.3,0.4,0.7,0.4,1.1v14.4c0,0.5,0.1,1,0.2,1.6c0.2,0.6,0.4,1.2,0.8,1.8s0.9,1.1,1.5,1.5
		c0.6,0.4,1.4,0.6,2.3,0.6c0.8,0,1.5-0.2,2.1-0.5c0.7-0.3,1.2-0.8,1.7-1.4s0.8-1.3,1.1-2c0.3-0.8,0.4-1.6,0.4-2.5v-13.5
		c0-0.4,0.1-0.8,0.4-1.1c0.2-0.3,0.6-0.5,1-0.5h3.9c0.4,0,0.7,0.2,1,0.5s0.4,0.7,0.4,1.1v24.4c0,0.4-0.1,0.8-0.4,1
		c-0.3,0.3-0.6,0.4-1,0.4h-3.6c-0.4,0-0.8-0.1-1.1-0.4c-0.3-0.3-0.4-0.6-0.4-1v-1c0-0.3-0.1-0.5-0.2-0.5c-0.2-0.1-0.4-0.1-0.5,0
		c-0.1,0.1-0.2,0.2-0.4,0.3c-0.3,0.5-0.7,0.9-1.2,1.2c-0.5,0.3-1,0.7-1.5,0.9c-0.5,0.3-1.1,0.5-1.6,0.6S1128.5,404.5,1128.1,404.5z"
		/>
	<path class="st19" d="M1168.3,401.1c0.1,0.2,0.1,0.3,0,0.5c-0.1,0.1-0.2,0.2-0.4,0.3c-0.1,0-0.3,0.2-0.8,0.5
		c-0.4,0.3-1,0.6-1.8,0.9c-0.7,0.3-1.6,0.6-2.7,0.8s-2.2,0.4-3.5,0.3c-2.3-0.1-4-0.7-5.2-1.9c-1.2-1.2-1.8-2.9-1.8-5.3v-13.2
		c0-0.4-0.2-0.6-0.6-0.6h-3.3c-0.3,0-0.6-0.1-0.9-0.4c-0.3-0.3-0.4-0.6-0.4-1v-3.7c0-0.4,0.1-0.8,0.4-1c0.3-0.3,0.6-0.4,0.9-0.4h3.3
		c0.4,0,0.6-0.2,0.6-0.6v-8c0-0.4,0.1-0.7,0.4-1s0.6-0.4,0.9-0.4h3.9c0.5,0,0.8,0.1,1.1,0.4c0.2,0.3,0.4,0.6,0.4,1v8
		c0,0.4,0.2,0.6,0.7,0.6h6.4c0.4,0,0.7,0.1,1,0.4c0.3,0.3,0.4,0.6,0.4,1v3.7c0,0.4-0.1,0.8-0.4,1c-0.3,0.3-0.6,0.4-1,0.4h-6.3
		c-0.2,0-0.3,0.1-0.5,0.2s-0.2,0.3-0.2,0.5l0.1,11.9c0,1.2,0.3,1.9,0.8,2.3c0.5,0.4,1.2,0.5,1.8,0.3c0.8-0.2,1.5-0.4,2.2-0.8
		c0.6-0.3,1.1-0.6,1.5-0.8c0.4-0.2,0.7-0.3,1.1-0.2c0.3,0,0.6,0.2,0.6,0.5L1168.3,401.1z"/>
	<path class="st19" d="M1179.1,366.7c1,0,1.4,0.5,1.4,1.5v4.1c0,0.3-0.1,0.7-0.4,0.9s-0.6,0.4-1,0.4h-4c-0.3,0-0.7-0.1-0.9-0.4
		s-0.4-0.6-0.4-0.9v-4.1c0-0.4,0.1-0.8,0.4-1s0.6-0.4,0.9-0.4H1179.1z M1179.1,376.7c0.4,0,0.8,0.2,1,0.5s0.4,0.7,0.4,1.1v24.5
		c0,0.4-0.1,0.7-0.4,1c-0.3,0.3-0.6,0.4-1,0.4h-4c-0.3,0-0.7-0.1-0.9-0.4c-0.3-0.3-0.4-0.6-0.4-1v-24.5c0-0.4,0.1-0.8,0.4-1.1
		s0.6-0.5,0.9-0.5H1179.1z"/>
	<path class="st19" d="M1210.4,381.8c1,1.2,1.7,2.6,2.2,4.1c0.5,1.5,0.8,3,0.8,4.7c0,1.9-0.4,3.8-1.1,5.5c-0.7,1.7-1.7,3.2-3,4.4
		s-2.8,2.3-4.5,3c-1.7,0.7-3.5,1.1-5.5,1.1c-1.7,0-3.3-0.4-4.9-1.1c-1.6-0.7-3-1.7-4.1-3s-2.1-2.7-2.8-4.4c-0.7-1.7-1.1-3.5-1.1-5.5
		c0-2.7,0.6-5,1.8-7.1s2.8-3.7,4.7-4.9c1.9-1.2,4-1.8,6.4-1.9c2.3-0.1,4.6,0.4,6.9,1.7c0.4,0.2,0.5,0.4,0.3,0.8l-2.2,4
		c-0.2,0.3-0.5,0.5-0.8,0.7c-0.3,0.1-0.6,0.1-0.9-0.1c-0.9-0.4-2-0.6-3.2-0.6c-1,0-1.8,0.2-2.6,0.6c-0.8,0.4-1.5,0.9-2.1,1.6
		c-0.6,0.7-1.1,1.5-1.4,2.4c-0.3,0.9-0.5,1.9-0.5,3c0,2.2,0.6,4,1.9,5.4c1.2,1.4,2.8,2.1,4.7,2.1c1.1,0,2.1-0.2,3-0.6
		s1.8-0.9,2.4-1.6c0.7-0.7,1.2-1.5,1.6-2.4c0.4-0.9,0.6-1.9,0.6-3c0-0.7-0.1-1.4-0.3-2.1c-0.2-0.7-0.5-1.3-0.8-1.8
		c-0.3-0.7-0.2-1.2,0.4-1.7l3.5-3.1C1210.1,381.7,1210.3,381.7,1210.4,381.8z"/>
	<path class="st19" d="M1233.1,376.5c1.5,0,2.9,0.3,4.1,0.8c1.2,0.6,2.2,1.4,3.1,2.4c0.9,1,1.5,2.3,2,3.7c0.5,1.4,0.7,3,0.7,4.8
		v14.6c0,0.4-0.1,0.7-0.4,1c-0.3,0.3-0.6,0.4-1,0.4h-3.9c-0.4,0-0.8-0.1-1-0.4c-0.3-0.3-0.4-0.6-0.4-1V388c0-0.5-0.1-1-0.2-1.5
		c-0.2-0.6-0.4-1.1-0.7-1.6c-0.3-0.5-0.8-0.9-1.4-1.2c-0.6-0.3-1.4-0.5-2.3-0.5c-1.6,0-2.9,0.5-3.8,1.6c-0.9,1.1-1.4,2.5-1.4,4.2
		v13.8c0,0.4-0.1,0.7-0.4,1c-0.3,0.3-0.6,0.4-1.1,0.4h-3.8c-0.4,0-0.8-0.1-1.1-0.4c-0.3-0.3-0.4-0.6-0.4-1v-24.1
		c0-0.3,0.1-0.6,0.4-0.9c0.3-0.3,0.6-0.4,1.1-0.4h3.5c0.4,0,0.8,0.1,1,0.4c0.2,0.3,0.4,0.6,0.4,0.9v0.3c0,0.2,0.1,0.3,0.2,0.4
		c0.1,0.1,0.2,0.1,0.3,0.1c0.3,0.1,0.6,0,0.7-0.3c0.7-0.9,1.5-1.6,2.6-2.1C1231,376.7,1232.1,376.5,1233.1,376.5z"/>
</g>
<g>
</g>
<g>
</g>
<g>
</g>
<g>
</g>
<g>
</g>
<g>
</g>
</svg>
