<?xml version="1.0" encoding="UTF-8" standalone="no"?>
<!-- Created with Inkscape (http://www.inkscape.org/) -->

<svg
   xmlns:dc="http://purl.org/dc/elements/1.1/"
   xmlns:cc="http://creativecommons.org/ns#"
   xmlns:rdf="http://www.w3.org/1999/02/22-rdf-syntax-ns#"
   xmlns:svg="http://www.w3.org/2000/svg"
   xmlns="http://www.w3.org/2000/svg"
   xmlns:sodipodi="http://sodipodi.sourceforge.net/DTD/sodipodi-0.dtd"
   xmlns:inkscape="http://www.inkscape.org/namespaces/inkscape"
   width="129.31065mm"
   height="33.193375mm"
   viewBox="0 0 129.31065 33.193375"
   version="1.1"
   id="svg1496"
   inkscape:version="0.92.4 (unknown)"
   sodipodi:docname="Logo.svg">
  <defs
     id="defs1490" />
  <sodipodi:namedview
     id="base"
     pagecolor="#ffffff"
     bordercolor="#666666"
     borderopacity="1.0"
     inkscape:pageopacity="0.0"
     inkscape:pageshadow="2"
     inkscape:zoom="1.4"
     inkscape:cx="222.70834"
     inkscape:cy="21.131606"
     inkscape:document-units="mm"
     inkscape:current-layer="layer1"
     showgrid="false" />
  <metadata
     id="metadata1493">
    <rdf:RDF>
      <cc:Work
         rdf:about="">
        <dc:format>image/svg+xml</dc:format>
        <dc:type
           rdf:resource="http://purl.org/dc/dcmitype/StillImage" />
        <dc:title></dc:title>
      </cc:Work>
    </rdf:RDF>
  </metadata>
  <g
     inkscape:label="Layer 1"
     inkscape:groupmode="layer"
     id="layer1"
     transform="translate(39.708897,-78.564026)">
    <rect
       style="opacity:1;vector-effect:none;fill:#ffffff;fill-opacity:1;fill-rule:nonzero;stroke:none;stroke-width:1.32291663;stroke-linecap:butt;stroke-linejoin:miter;stroke-miterlimit:4;stroke-dasharray:none;stroke-dashoffset:0;stroke-opacity:1;paint-order:fill markers stroke"
       id="rect1451"
       width="129.31065"
       height="33.193375"
       x="-39.708897"
       y="78.564026" />
    <path
       inkscape:connector-curvature="0"
       style="opacity:1;vector-effect:none;fill:#000000;fill-opacity:1;fill-rule:nonzero;stroke:none;stroke-width:0;stroke-linecap:square;stroke-linejoin:miter;stroke-miterlimit:4;stroke-dasharray:none;stroke-dashoffset:0;stroke-opacity:1;paint-order:markers stroke fill"
       d="m -33.902878,85.623021 v 18.617469 h 5.061188 V 90.458384 h 3.94806 l -3.457152,4.54029 6.388762,9.241816 h 8.928654 l 6.2740387,-9.407697 -6.0141117,-9.209772 -2.404506,4.726326 3.12076,4.354772 -2.995691,5.102532 h -4.888072 l -3.028235,-4.779553 3.419951,-4.408001 -2.675308,-4.996076 z"
       id="rect1312" />
    <rect
       y="85.622849"
       x="1.9635599"
       height="18.617783"
       width="1.8071358"
       id="rect1314"
       style="opacity:1;vector-effect:none;fill:#000000;fill-opacity:1;fill-rule:nonzero;stroke:#000000;stroke-width:0;stroke-linecap:square;stroke-linejoin:miter;stroke-miterlimit:4;stroke-dasharray:none;stroke-dashoffset:0;stroke-opacity:1;paint-order:markers stroke fill"
       transform="scale(-1,1)" />
    <path
       inkscape:connector-curvature="0"
       style="opacity:1;vector-effect:none;fill:#e20a16;fill-opacity:1;fill-rule:nonzero;stroke:#000000;stroke-width:0;stroke-linecap:square;stroke-linejoin:miter;stroke-miterlimit:4;stroke-dasharray:none;stroke-dashoffset:0;stroke-opacity:1;paint-order:markers stroke fill"
       d="m -17.396397,87.854408 c 0,0 -3.370659,4.99682 -3.943429,7.093625 -0.572744,2.096807 1.757733,3.999238 2.439114,3.999238 h 1.504315 1.504289 c 0.681381,0 3.011883,-1.902431 2.439141,-3.999238 -0.57277,-2.096805 -3.94343,-7.093625 -3.94343,-7.093625 z"
       id="path1320" />
    <rect
       transform="scale(-1,1)"
       style="opacity:1;vector-effect:none;fill:#000000;fill-opacity:1;fill-rule:nonzero;stroke:#000000;stroke-width:0;stroke-linecap:square;stroke-linejoin:miter;stroke-miterlimit:4;stroke-dasharray:none;stroke-dashoffset:0;stroke-opacity:1;paint-order:markers stroke fill"
       id="rect1325"
       width="1.4952409"
       height="7.1498241"
       x="-3.4084952"
       y="97.090813" />
    <path
       inkscape:connector-curvature="0"
       style="opacity:1;vector-effect:none;fill:#000000;fill-opacity:1;fill-rule:nonzero;stroke:#000000;stroke-width:0;stroke-linecap:square;stroke-linejoin:miter;stroke-miterlimit:4;stroke-dasharray:none;stroke-dashoffset:0;stroke-opacity:1;paint-order:markers stroke fill"
       d="m 4.7086927,97.091054 v 7.149436 h 1.495002 v -4.258656 l 2.573496,4.258656 H 10.272695 V 97.091054 H 8.7771907 v 4.258656 l -2.573496,-4.258656 z"
       id="rect1327" />
    <path
       inkscape:connector-curvature="0"
       style="opacity:1;vector-effect:none;fill:#000000;fill-opacity:1;fill-rule:nonzero;stroke:#000000;stroke-width:0;stroke-linecap:square;stroke-linejoin:miter;stroke-miterlimit:4;stroke-dasharray:none;stroke-dashoffset:0;stroke-opacity:1;paint-order:markers stroke fill"
       d="m 11.198737,97.091054 v 1.325499 h 2.107883 v 5.823937 h 1.49553 v -5.823937 h 2.107883 V 97.091054 H 14.80215 13.30662 Z"
       id="rect1331" />
    <path
       inkscape:connector-curvature="0"
       style="opacity:1;vector-effect:none;fill:#000000;fill-opacity:1;fill-rule:nonzero;stroke:#000000;stroke-width:0;stroke-linecap:square;stroke-linejoin:miter;stroke-miterlimit:4;stroke-dasharray:none;stroke-dashoffset:0;stroke-opacity:1;paint-order:markers stroke fill"
       d="m 17.414911,97.091054 v 1.325499 1.688267 1.1219 3.01377 h 1.495504 3.753274 v -1.3255 h -3.753274 v -1.68827 h 3.310414 v -1.1219 h -3.310414 v -1.688267 h 3.753274 v -1.325499 h -3.753274 z"
       id="rect1333" />
    <rect
       transform="scale(-1,1)"
       style="opacity:1;vector-effect:none;fill:#000000;fill-opacity:1;fill-rule:nonzero;stroke:#000000;stroke-width:0;stroke-linecap:square;stroke-linejoin:miter;stroke-miterlimit:4;stroke-dasharray:none;stroke-dashoffset:0;stroke-opacity:1;paint-order:markers stroke fill"
       id="rect1337"
       width="1.4952409"
       height="7.1498241"
       x="-32.165691"
       y="97.090813" />
    <path
       id="path1343"
       d="m 33.724224,97.091054 v 7.149436 h 1.495002 v -4.258656 l 2.573496,4.258656 h 1.495505 v -7.149436 h -1.495505 v 4.258656 l -2.573496,-4.258656 z"
       style="opacity:1;vector-effect:none;fill:#000000;fill-opacity:1;fill-rule:nonzero;stroke:#000000;stroke-width:0;stroke-linecap:square;stroke-linejoin:miter;stroke-miterlimit:4;stroke-dasharray:none;stroke-dashoffset:0;stroke-opacity:1;paint-order:markers stroke fill"
       inkscape:connector-curvature="0" />
    <path
       style="color:#000000;font-style:normal;font-variant:normal;font-weight:normal;font-stretch:normal;font-size:medium;line-height:normal;font-family:sans-serif;font-variant-ligatures:normal;font-variant-position:normal;font-variant-caps:normal;font-variant-numeric:normal;font-variant-alternates:normal;font-feature-settings:normal;text-indent:0;text-align:start;text-decoration:none;text-decoration-line:none;text-decoration-style:solid;text-decoration-color:#000000;letter-spacing:normal;word-spacing:normal;text-transform:none;writing-mode:lr-tb;direction:ltr;text-orientation:mixed;dominant-baseline:auto;baseline-shift:baseline;text-anchor:start;white-space:normal;shape-padding:0;clip-rule:nonzero;display:inline;overflow:visible;visibility:visible;opacity:1;isolation:auto;mix-blend-mode:normal;color-interpolation:sRGB;color-interpolation-filters:linearRGB;solid-color:#000000;solid-opacity:1;vector-effect:none;fill:#000000;fill-opacity:1;fill-rule:nonzero;stroke:none;stroke-width:1.32291663;stroke-linecap:butt;stroke-linejoin:miter;stroke-miterlimit:4;stroke-dasharray:none;stroke-dashoffset:0;stroke-opacity:1;paint-order:markers stroke fill;color-rendering:auto;image-rendering:auto;shape-rendering:auto;text-rendering:auto;enable-background:accumulate"
       d="m 43.088781,96.980467 c -0.975492,-0.03141 -1.719051,0.271912 -2.124419,0.8046 -0.405342,0.532688 -0.427884,1.15448 -0.348297,1.629876 0.134276,0.801827 0.780494,1.285587 1.340485,1.507917 0.55999,0.22234 1.122177,0.30429 1.411816,0.39688 0.324909,0.10385 0.635662,0.26044 0.816478,0.42529 0.180843,0.16486 0.248576,0.28219 0.233574,0.53124 -0.03003,0.49874 -0.513265,0.95522 -1.368372,0.9095 -0.477097,-0.0255 -0.779886,-0.13542 -1.000972,-0.31626 -0.221085,-0.18084 -0.402748,-0.46455 -0.527102,-0.98288 l -1.286749,0.3085 c 0.170233,0.70947 0.487469,1.29836 0.976154,1.69809 0.488686,0.39973 1.106541,0.57853 1.768369,0.61392 1.422744,0.0761 2.680917,-0.8462 2.759525,-2.15129 0.03932,-0.65288 -0.266647,-1.22672 -0.663522,-1.58853 -0.396849,-0.36182 -0.867701,-0.56773 -1.304819,-0.70746 -0.472387,-0.150998 -0.970942,-0.225396 -1.326039,-0.366382 -0.355071,-0.140984 -0.478843,-0.227508 -0.523981,-0.497126 -0.03995,-0.238659 -0.0061,-0.475948 0.09612,-0.610298 0.102235,-0.134351 0.317897,-0.306094 1.029388,-0.283189 0.640213,0.02061 0.840343,0.257516 0.995813,0.512114 0.155442,0.254598 0.17981,0.49661 0.17981,0.49661 l 1.318287,-0.106969 c 0,0 -0.03932,-0.539072 -0.368988,-1.079005 -0.329644,-0.539933 -1.035764,-1.111448 -2.082562,-1.145148 z"
       id="path1355"
       inkscape:connector-curvature="0" />
    <path
       style="color:#000000;font-style:normal;font-variant:normal;font-weight:normal;font-stretch:normal;font-size:medium;line-height:normal;font-family:sans-serif;font-variant-ligatures:normal;font-variant-position:normal;font-variant-caps:normal;font-variant-numeric:normal;font-variant-alternates:normal;font-feature-settings:normal;text-indent:0;text-align:start;text-decoration:none;text-decoration-line:none;text-decoration-style:solid;text-decoration-color:#000000;letter-spacing:normal;word-spacing:normal;text-transform:none;writing-mode:lr-tb;direction:ltr;text-orientation:mixed;dominant-baseline:auto;baseline-shift:baseline;text-anchor:start;white-space:normal;shape-padding:0;clip-rule:nonzero;display:inline;overflow:visible;visibility:visible;opacity:1;isolation:auto;mix-blend-mode:normal;color-interpolation:sRGB;color-interpolation-filters:linearRGB;solid-color:#000000;solid-opacity:1;vector-effect:none;fill:#000000;fill-opacity:1;fill-rule:nonzero;stroke:none;stroke-width:1.31359577;stroke-linecap:butt;stroke-linejoin:miter;stroke-miterlimit:4;stroke-dasharray:none;stroke-dashoffset:0;stroke-opacity:1;paint-order:markers stroke fill;color-rendering:auto;image-rendering:auto;shape-rendering:auto;text-rendering:auto;enable-background:accumulate"
       d="m 57.103443,97.153065 c -1.90291,0 -3.425111,1.626238 -3.425111,3.574455 0,1.94822 1.522201,3.57446 3.425111,3.57446 1.90291,0 3.424609,-1.62624 3.424609,-3.57446 0,-1.948217 -1.521699,-3.574455 -3.424609,-3.574455 z m 0,1.313616 c 1.154562,0 2.110978,0.986089 2.110978,2.260839 0,1.27476 -0.956416,2.26085 -2.110978,2.26085 -1.154563,0 -2.111508,-0.98609 -2.111508,-2.26085 0,-1.27475 0.956945,-2.260839 2.111508,-2.260839 z"
       id="path1357"
       inkscape:connector-curvature="0" />
    <path
       style="color:#000000;font-style:normal;font-variant:normal;font-weight:normal;font-stretch:normal;font-size:medium;line-height:normal;font-family:sans-serif;font-variant-ligatures:normal;font-variant-position:normal;font-variant-caps:normal;font-variant-numeric:normal;font-variant-alternates:normal;font-feature-settings:normal;text-indent:0;text-align:start;text-decoration:none;text-decoration-line:none;text-decoration-style:solid;text-decoration-color:#000000;letter-spacing:normal;word-spacing:normal;text-transform:none;writing-mode:lr-tb;direction:ltr;text-orientation:mixed;dominant-baseline:auto;baseline-shift:baseline;text-anchor:start;white-space:normal;shape-padding:0;clip-rule:nonzero;display:inline;overflow:visible;visibility:visible;opacity:1;isolation:auto;mix-blend-mode:normal;color-interpolation:sRGB;color-interpolation-filters:linearRGB;solid-color:#000000;solid-opacity:1;vector-effect:none;fill:#000000;fill-opacity:1;fill-rule:nonzero;stroke:none;stroke-width:1.26409638;stroke-linecap:butt;stroke-linejoin:miter;stroke-miterlimit:4;stroke-dasharray:none;stroke-dashoffset:0;stroke-opacity:1;paint-order:markers stroke fill;color-rendering:auto;image-rendering:auto;shape-rendering:auto;text-rendering:auto;enable-background:accumulate"
       d="m 49.971573,97.170117 c -0.369147,-0.03833 -0.748851,-0.0037 -1.12395,0.113689 -1.5004,0.469731 -2.421176,2.038988 -2.313041,3.705204 0.108135,1.66621 1.239044,3.08254 2.792598,3.28869 1.553527,0.20614 2.975398,-0.90355 3.408574,-2.50631 l -1.220073,-0.33022 c -0.295169,1.09211 -1.152446,1.69877 -2.022105,1.58337 -0.869685,-0.1154 -1.62298,-0.96815 -1.697566,-2.1177 -0.07461,-1.14955 0.575257,-2.149508 1.429358,-2.416904 0.854102,-0.267399 1.748499,0.1754 2.177124,1.194242 l 1.165305,-0.490411 c -0.479531,-1.139833 -1.488784,-1.908664 -2.596224,-2.02365 z"
       id="ellipse1359"
       inkscape:connector-curvature="0" />
    <path
       id="path1361"
       d="m 63.793322,97.091054 v 1.325499 h 2.10789 v 5.823937 h 1.49553 v -5.823937 h 2.10788 v -1.325499 h -2.10788 -1.49553 z"
       style="opacity:1;vector-effect:none;fill:#000000;fill-opacity:1;fill-rule:nonzero;stroke:#000000;stroke-width:0;stroke-linecap:square;stroke-linejoin:miter;stroke-miterlimit:4;stroke-dasharray:none;stroke-dashoffset:0;stroke-opacity:1;paint-order:markers stroke fill"
       inkscape:connector-curvature="0" />
    <path
       inkscape:connector-curvature="0"
       style="opacity:1;vector-effect:none;fill:#000000;fill-opacity:1;fill-rule:nonzero;stroke:#000000;stroke-width:0;stroke-linecap:square;stroke-linejoin:miter;stroke-miterlimit:4;stroke-dasharray:none;stroke-dashoffset:0;stroke-opacity:1;paint-order:markers stroke fill"
       d="m 76.994742,97.091054 v 7.149436 h 1.495 v -2.38074 l 1.04645,-1.06195 2.36006,3.44269 h 1.495 l -2.97347,-4.337206 2.77088,-2.81223 h -2.00867 l -2.69025,2.730583 v -2.730583 z"
       id="rect1363" />
    <path
       inkscape:connector-curvature="0"
       style="opacity:1;vector-effect:none;fill:#000000;fill-opacity:1;fill-rule:nonzero;stroke:#000000;stroke-width:0;stroke-linecap:square;stroke-linejoin:miter;stroke-miterlimit:4;stroke-dasharray:none;stroke-dashoffset:0;stroke-opacity:1;paint-order:markers stroke fill"
       d="m 71.061242,97.086403 c -0.11858,1.93e-4 -0.22016,5.29e-4 -0.29818,0.0011 -0.0683,5.3e-4 -0.0963,2.65e-4 -0.15761,0.0036 h -0.70123 v 7.149437 h 1.49498 v -0.01 h 2.27533 c 1.25151,0 2.12858,-0.97896 2.13887,-1.99937 0.006,-0.63846 -0.3497,-1.25432 -0.93067,-1.68723 0.3562,-0.44201 0.54464,-0.994724 0.49297,-1.536339 -0.094,-0.985806 -0.98949,-1.917714 -2.29804,-1.917714 -0.003,-8e-6 -0.58042,-0.0021 -1.17718,-0.0031 -0.29893,-5.29e-4 -0.60206,-7.94e-4 -0.83924,-5.29e-4 z m 0.33796,1.322917 c 0.16581,7.1e-5 0.32086,2.01e-4 0.49921,5.29e-4 0.59627,0.0011 1.17666,0.0031 1.17666,0.0031 a 0.66152448,0.66152448 0 0 0 0.003,0 c 0.76766,0 0.94512,0.340799 0.98134,0.72037 0.0341,0.358037 -0.11956,0.723069 -0.58653,0.861446 h -2.07327 z m 0,2.90835 h 2.02057 a 0.66152448,0.66152448 0 0 0 0.0259,0.005 c 0.86596,0.11012 1.04852,0.53582 1.0449,0.89555 -0.004,0.35974 -0.1742,0.68988 -0.81595,0.68988 h -2.27534 z"
       id="rect1379" />
    <path
       inkscape:connector-curvature="0"
       style="opacity:1;vector-effect:none;fill:#000000;fill-opacity:1;fill-rule:nonzero;stroke:#000000;stroke-width:0;stroke-linecap:square;stroke-linejoin:miter;stroke-miterlimit:4;stroke-dasharray:none;stroke-dashoffset:0;stroke-opacity:1;paint-order:markers stroke fill"
       d="m 25.091452,97.086403 c -0.118612,1.93e-4 -0.220689,5.29e-4 -0.298688,0.0011 -0.06839,5.3e-4 -0.09633,2.65e-4 -0.157612,0.0036 H 23.9339 v 7.149437 h 1.495505 v -2.913 h 0.975651 l 2.218478,2.913 h 1.619541 l -1.747202,-2.52078 c -0.140097,-0.22706 -0.302472,-0.38579 -0.470774,-0.50591 0.950992,-0.36374 1.466136,-1.31715 1.381337,-2.206068 -0.09406,-0.985806 -0.990018,-1.917713 -2.298568,-1.917713 -0.0026,-8e-6 -0.580151,-0.0021 -1.176681,-0.0031 -0.2989,-5.29e-4 -0.602059,-7.94e-4 -0.839232,-5.29e-4 z m 0.337953,1.322917 c 0.165655,7.1e-5 0.320516,2.01e-4 0.498686,5.29e-4 0.596265,0.0011 1.177184,0.0031 1.177184,0.0031 a 0.66152448,0.66152448 0 0 0 0.0026,0 c 0.767662,0 0.945092,0.340799 0.981313,0.72037 0.03516,0.36862 -0.131312,0.743006 -0.631481,0.871261 h -2.028295 z"
       id="rect1385" />
    <path
       id="path1395"
       d="m 3.0708167,86.283085 c -0.118613,1.93e-4 -0.220689,5.29e-4 -0.298689,0.0011 -0.06839,5.29e-4 -0.09633,2.64e-4 -0.157612,0.0036 h -0.701252 v 7.149433 h 1.495505 v -2.912999 h 0.975651 l 2.218478,2.912999 h 1.619541 l -1.747202,-2.520775 c -0.140097,-0.227061 -0.302472,-0.385795 -0.470773,-0.505913 0.950991,-0.363733 1.466135,-1.317149 1.381336,-2.206067 -0.09406,-0.985805 -0.990018,-1.917713 -2.298567,-1.917713 -0.0026,-8e-6 -0.580152,-0.0021 -1.176682,-0.0031 -0.2989,-5.29e-4 -0.602059,-7.94e-4 -0.839232,-5.29e-4 z m 0.337952,1.322916 c 0.165655,7.2e-5 0.320516,2.01e-4 0.498686,5.29e-4 0.596265,0.0011 1.177185,0.0031 1.177185,0.0031 a 0.66152448,0.66152448 0 0 0 0.0026,0 c 0.767663,0 0.945092,0.3408 0.981314,0.720371 0.03516,0.36862 -0.131313,0.743005 -0.631481,0.871265 h -2.028251 z"
       style="opacity:1;vector-effect:none;fill:#000000;fill-opacity:1;fill-rule:nonzero;stroke:#000000;stroke-width:0;stroke-linecap:square;stroke-linejoin:miter;stroke-miterlimit:4;stroke-dasharray:none;stroke-dashoffset:0;stroke-opacity:1;paint-order:markers stroke fill"
       inkscape:connector-curvature="0" />
    <path
       inkscape:connector-curvature="0"
       style="opacity:1;vector-effect:none;fill:#000000;fill-opacity:1;fill-rule:nonzero;stroke:#000000;stroke-width:0;stroke-linecap:square;stroke-linejoin:miter;stroke-miterlimit:4;stroke-dasharray:none;stroke-dashoffset:0;stroke-opacity:1;paint-order:markers stroke fill"
       d="m 10.996701,86.287577 -2.7026923,7.149436 h 1.495531 l 0.6273533,-1.659332 h 2.655121 l 0.627353,1.659332 h 1.495002 l -2.702666,-7.149436 z m 0.747739,1.977657 0.895059,2.368334 h -1.790091 z"
       id="rect1397" />
    <path
       id="path1405"
       d="m 27.517814,86.287577 -2.702692,7.149436 h 1.49553 l 0.627354,-1.659332 h 2.65512 l 0.627354,1.659332 h 1.495001 l -2.702666,-7.149436 z m 0.747739,1.977657 0.895059,2.368334 H 27.37052 Z"
       style="opacity:1;vector-effect:none;fill:#000000;fill-opacity:1;fill-rule:nonzero;stroke:#000000;stroke-width:0;stroke-linecap:square;stroke-linejoin:miter;stroke-miterlimit:4;stroke-dasharray:none;stroke-dashoffset:0;stroke-opacity:1;paint-order:markers stroke fill"
       inkscape:connector-curvature="0" />
    <path
       inkscape:connector-curvature="0"
       style="opacity:1;vector-effect:none;fill:#000000;fill-opacity:1;fill-rule:nonzero;stroke:#000000;stroke-width:0;stroke-linecap:square;stroke-linejoin:miter;stroke-miterlimit:4;stroke-dasharray:none;stroke-dashoffset:0;stroke-opacity:1;paint-order:markers stroke fill"
       d="m 32.381173,86.287577 v 7.149433 h 1.495002 v -4.258653 l 2.573496,4.258653 h 1.495504 v -7.149433 h -1.495504 v 4.258654 l -2.573496,-4.258654 z"
       id="path1407" />
    <path
       id="path1409"
       d="m 39.062987,86.287577 v 1.325499 h 2.107882 V 93.43701 H 42.6664 v -5.823934 h 2.107883 V 86.287577 H 42.6664 41.170869 Z"
       style="opacity:1;vector-effect:none;fill:#000000;fill-opacity:1;fill-rule:nonzero;stroke:#000000;stroke-width:0;stroke-linecap:square;stroke-linejoin:miter;stroke-miterlimit:4;stroke-dasharray:none;stroke-dashoffset:0;stroke-opacity:1;paint-order:markers stroke fill"
       inkscape:connector-curvature="0" />
    <rect
       y="86.287575"
       x="-24.335703"
       height="7.1498241"
       width="1.4952409"
       id="rect1411"
       style="opacity:1;vector-effect:none;fill:#000000;fill-opacity:1;fill-rule:nonzero;stroke:#000000;stroke-width:0;stroke-linecap:square;stroke-linejoin:miter;stroke-miterlimit:4;stroke-dasharray:none;stroke-dashoffset:0;stroke-opacity:1;paint-order:markers stroke fill"
       transform="scale(-1,1)" />
    <path
       inkscape:connector-curvature="0"
       style="opacity:1;vector-effect:none;fill:#000000;fill-opacity:1;fill-rule:nonzero;stroke:#000000;stroke-width:0;stroke-linecap:square;stroke-linejoin:miter;stroke-miterlimit:4;stroke-dasharray:none;stroke-dashoffset:0;stroke-opacity:1;paint-order:markers stroke fill"
       d="m 54.601887,86.287577 v 1.325499 h 2.107882 V 93.43701 H 58.2053 v -5.823934 h 2.107882 V 86.287577 H 58.2053 56.709769 Z"
       id="path1413" />
    <path
       inkscape:connector-curvature="0"
       style="opacity:1;vector-effect:none;fill:#000000;fill-opacity:1;fill-rule:nonzero;stroke:#000000;stroke-width:0;stroke-linecap:square;stroke-linejoin:miter;stroke-miterlimit:4;stroke-dasharray:none;stroke-dashoffset:0;stroke-opacity:1;paint-order:markers stroke fill"
       d="m 62.086952,86.287577 -2.702695,7.149436 h 1.495535 l 0.62735,-1.659332 h 2.65512 l 0.62735,1.659332 h 1.495 l -2.70266,-7.149436 z m 0.74774,1.977657 0.89506,2.368334 h -1.7901 z"
       id="path1415" />
    <path
       id="path1417"
       d="m 77.118432,86.287577 -2.70269,7.149436 h 1.49553 l 0.62735,-1.659332 h 2.65512 l 0.62735,1.659332 h 1.49501 l -2.70267,-7.149436 z m 0.74774,1.977657 0.89506,2.368334 h -1.79009 z"
       style="opacity:1;vector-effect:none;fill:#000000;fill-opacity:1;fill-rule:nonzero;stroke:#000000;stroke-width:0;stroke-linecap:square;stroke-linejoin:miter;stroke-miterlimit:4;stroke-dasharray:none;stroke-dashoffset:0;stroke-opacity:1;paint-order:markers stroke fill"
       inkscape:connector-curvature="0" />
    <path
       style="color:#000000;font-style:normal;font-variant:normal;font-weight:normal;font-stretch:normal;font-size:medium;line-height:normal;font-family:sans-serif;font-variant-ligatures:normal;font-variant-position:normal;font-variant-caps:normal;font-variant-numeric:normal;font-variant-alternates:normal;font-feature-settings:normal;text-indent:0;text-align:start;text-decoration:none;text-decoration-line:none;text-decoration-style:solid;text-decoration-color:#000000;letter-spacing:normal;word-spacing:normal;text-transform:none;writing-mode:lr-tb;direction:ltr;text-orientation:mixed;dominant-baseline:auto;baseline-shift:baseline;text-anchor:start;white-space:normal;shape-padding:0;clip-rule:nonzero;display:inline;overflow:visible;visibility:visible;opacity:1;isolation:auto;mix-blend-mode:normal;color-interpolation:sRGB;color-interpolation-filters:linearRGB;solid-color:#000000;solid-opacity:1;vector-effect:none;fill:#000000;fill-opacity:1;fill-rule:nonzero;stroke:none;stroke-width:1.32863057;stroke-linecap:butt;stroke-linejoin:round;stroke-miterlimit:4;stroke-dasharray:none;stroke-dashoffset:0;stroke-opacity:1;paint-order:markers stroke fill;color-rendering:auto;image-rendering:auto;shape-rendering:auto;text-rendering:auto;enable-background:accumulate"
       d="m 48.403202,86.287577 v 4.714441 c 0,0 -0.02275,0.595122 0.297127,1.202513 0.319775,0.607391 1.089607,1.232482 2.255679,1.232482 1.166071,0 1.935903,-0.625091 2.255679,-1.232482 0.319775,-0.607391 0.297153,-1.202513 0.297153,-1.202513 v -4.714441 h -1.328605 v 4.729946 a 0.66438174,0.66438174 0 0 0 0,0.0155 c 0,0 -0.0026,0.282372 -0.144198,0.552421 -0.142161,0.270053 -0.316786,0.522965 -1.080029,0.522965 -0.763244,0 -0.937869,-0.252912 -1.080029,-0.522965 -0.142187,-0.270045 -0.144172,-0.552417 -0.144172,-0.552417 a 0.66438174,0.66438174 0 0 0 0,-0.0155 v -4.72995 z"
       id="path1423"
       inkscape:connector-curvature="0" />
    <path
       style="color:#000000;font-style:normal;font-variant:normal;font-weight:normal;font-stretch:normal;font-size:medium;line-height:normal;font-family:sans-serif;font-variant-ligatures:normal;font-variant-position:normal;font-variant-caps:normal;font-variant-numeric:normal;font-variant-alternates:normal;font-feature-settings:normal;text-indent:0;text-align:start;text-decoration:none;text-decoration-line:none;text-decoration-style:solid;text-decoration-color:#000000;letter-spacing:normal;word-spacing:normal;text-transform:none;writing-mode:lr-tb;direction:ltr;text-orientation:mixed;dominant-baseline:auto;baseline-shift:baseline;text-anchor:start;white-space:normal;shape-padding:0;clip-rule:nonzero;display:inline;overflow:visible;visibility:visible;opacity:1;isolation:auto;mix-blend-mode:normal;color-interpolation:sRGB;color-interpolation-filters:linearRGB;solid-color:#000000;solid-opacity:1;vector-effect:none;fill:#000000;fill-opacity:1;fill-rule:nonzero;stroke:none;stroke-width:1.32291663;stroke-linecap:butt;stroke-linejoin:miter;stroke-miterlimit:4;stroke-dasharray:none;stroke-dashoffset:0;stroke-opacity:1;paint-order:fill markers stroke;color-rendering:auto;image-rendering:auto;shape-rendering:auto;text-rendering:auto;enable-background:accumulate"
       d="m 15.967455,86.423488 v 6.877098 h 0.661458 1.990064 c 0,0 0.775097,0.02668 1.553395,-0.40876 0.778272,-0.435443 1.552363,-1.422522 1.552363,-3.029789 0,-1.607264 -0.774091,-2.594345 -1.552363,-3.029789 -0.778298,-0.435443 -1.553395,-0.40876 -1.553395,-0.40876 z m 2.684065,1.322398 c 0,0 0.43905,-0.003 0.874898,0.240814 0.435848,0.243853 0.875401,0.645498 0.875401,1.875337 0,1.229839 -0.439553,1.631485 -0.875401,1.875338 -0.435848,0.243853 -0.874898,0.240294 -0.874898,0.240294 h -0.0082 -1.352894 v -4.231264 h 1.352894 z"
       id="path1425"
       inkscape:connector-curvature="0" />
    <path
       inkscape:connector-curvature="0"
       style="opacity:1;vector-effect:none;fill:#000000;fill-opacity:1;fill-rule:nonzero;stroke:#000000;stroke-width:0;stroke-linecap:square;stroke-linejoin:miter;stroke-miterlimit:4;stroke-dasharray:none;stroke-dashoffset:0;stroke-opacity:1;paint-order:markers stroke fill"
       d="m 67.033572,86.287061 v 7.149952 h 1.49553 v -5.232239 l 1.33789,5.232239 h 1.49553 l 1.33843,-5.234305 v 5.234305 h 1.495 v -7.149952 h -1.00513 -0.48987 -1.00513 l -1.08053,4.226616 -1.08159,-4.226616 h -1.0046 -0.4904 z"
       id="rect1427" />
  </g>
</svg>
